<svg xmlns="http://www.w3.org/2000/svg" viewBox="0 0 367.91 159.89">
  <defs>
    <style>
      .cls-1 {
        fill: #fff;
      }
    </style>
  </defs>
  <g id="Layer_2" data-name="Layer 2">
    <g id="Layer_5" data-name="Layer 5">
      <g>
        <g>
          <g>
            <path d="M8.29,35.32a53.84,53.84,0,0,0-4.69,22H0A57.36,57.36,0,0,1,5,33.86Z"/>
            <path d="M16.86,27.67A50.51,50.51,0,0,0,8.3,46.82l-3.52-.74A53.83,53.83,0,0,1,14,25.56Z"/>
            <path d="M26.31,22.54A47,47,0,0,0,14.86,38.25l-3.28-1.46A50.53,50.53,0,0,1,23.9,19.86Z"/>
            <path d="M36,19.9a43.52,43.52,0,0,0-13.33,12l-2.91-2.12a47.2,47.2,0,0,1,14.44-13Z"/>
            <path d="M21.44,41.19A39.37,39.37,0,0,0,18,57.29H14.4a42.93,42.93,0,0,1,3.75-17.57Z"/>
            <path d="M28.5,36.15A36,36,0,0,0,22.39,49.8l-3.52-.74a39.56,39.56,0,0,1,6.72-15Z"/>
            <path d="M36,33.24A32.45,32.45,0,0,0,28,44.12l-3.29-1.47a36.32,36.32,0,0,1,8.81-12.09Z"/>
            <path d="M43.22,32.36a29.28,29.28,0,0,0-8.89,8l-2.92-2.11a32.84,32.84,0,0,1,10-9Z"/>
            <path d="M34.59,47.05A25,25,0,0,0,32.4,57.29H28.8a28.67,28.67,0,0,1,2.5-11.71Z"/>
            <path d="M40.15,44.62a21.59,21.59,0,0,0-3.67,8.16L33,52a25,25,0,0,1,4.28-9.54Z"/>
            <path d="M45.59,43.94a18.11,18.11,0,0,0-4.42,6l-3.29-1.46a21.81,21.81,0,0,1,5.3-7.26Z"/>
            <path d="M50.43,44.83a14.81,14.81,0,0,0-4.46,4l-2.91-2.12a18.35,18.35,0,0,1,5.57-5Z"/>
            <path class="cls-1" d="M28,44.12A32.07,32.07,0,0,0,25.2,57.29H21.6a35.83,35.83,0,0,1,3.13-14.64Z"/>
            <path class="cls-1" d="M34.33,40.38a28.71,28.71,0,0,0-4.9,10.91l-3.52-.74a32.38,32.38,0,0,1,5.5-12.28Z"/>
            <path class="cls-1" d="M40.77,38.59a25.43,25.43,0,0,0-6.18,8.46L31.3,45.58a29.2,29.2,0,0,1,7.06-9.67Z"/>
            <path class="cls-1" d="M46.83,38.6a21.86,21.86,0,0,0-6.68,6L37.24,42.5a25.49,25.49,0,0,1,7.78-7Z"/>
            <path class="cls-1" d="M14.86,38.25a46.56,46.56,0,0,0-4.06,19H7.2a50.09,50.09,0,0,1,4.38-20.5Z"/>
            <path class="cls-1" d="M22.68,31.91a43.09,43.09,0,0,0-7.33,16.4l-3.53-.74a46.69,46.69,0,0,1,8-17.78Z"/>
            <path class="cls-1" d="M31.13,27.89a39.88,39.88,0,0,0-9.69,13.3l-3.29-1.47A43.64,43.64,0,0,1,28.72,25.21Z"/>
            <path class="cls-1" d="M39.61,26.13a36.47,36.47,0,0,0-11.11,10L25.59,34A40,40,0,0,1,37.81,23Z"/>
          </g>
          <g>
            <path d="M52,3.58a53.84,53.84,0,0,0-21.38,7L28.8,7.44A57.45,57.45,0,0,1,51.6,0Z"/>
            <path d="M62.85,7.16A50.25,50.25,0,0,0,42,9.36L40.92,5.94a53.64,53.64,0,0,1,22.3-2.36Z"/>
            <path d="M72.06,12.78a46.84,46.84,0,0,0-19.34-2l-.37-3.58a50.25,50.25,0,0,1,20.82,2.2Z"/>
            <path d="M79.19,19.9a43.07,43.07,0,0,0-17.08-5.58l.37-3.58a46.66,46.66,0,0,1,18.51,6Z"/>
            <path d="M53.46,17.9A39.48,39.48,0,0,0,37.81,23L36,19.9a43.07,43.07,0,0,1,17.08-5.58Z"/>
            <path d="M61.36,21.48a35.73,35.73,0,0,0-14.88,1.58l-1.11-3.43A39.49,39.49,0,0,1,61.74,17.9Z"/>
            <path d="M67.61,26.48a32.33,32.33,0,0,0-13.4-1.42l-.37-3.58a35.73,35.73,0,0,1,14.88,1.58Z"/>
            <path d="M72,32.36a28.56,28.56,0,0,0-11.36-3.71L61,25.06a32.34,32.34,0,0,1,12.79,4.19Z"/>
            <path d="M55,32.23A25,25,0,0,0,45,35.48l-1.8-3.12a28.56,28.56,0,0,1,11.36-3.71Z"/>
            <path d="M59.88,35.81a21.43,21.43,0,0,0-9,.94l-1.12-3.42a25.05,25.05,0,0,1,10.44-1.1Z"/>
            <path d="M63.16,40.18a17.68,17.68,0,0,0-7.46-.79l-.38-3.58a21.43,21.43,0,0,1,8.95.94Z"/>
            <path d="M64.77,44.83A14.19,14.19,0,0,0,59.13,43l.37-3.58a17.83,17.83,0,0,1,7.07,2.32Z"/>
            <path class="cls-1" d="M54.21,25.06a32.34,32.34,0,0,0-12.79,4.19l-1.81-3.12a36.08,36.08,0,0,1,14.23-4.65Z"/>
            <path class="cls-1" d="M60.62,28.65A28.62,28.62,0,0,0,48.7,29.9l-1.11-3.42A32.33,32.33,0,0,1,61,25.06Z"/>
            <path class="cls-1" d="M65.39,33.33A25.05,25.05,0,0,0,55,32.23l-.37-3.58A28.62,28.62,0,0,1,66.5,29.9Z"/>
            <path class="cls-1" d="M68.37,38.6a21.28,21.28,0,0,0-8.49-2.79l.37-3.58a25,25,0,0,1,9.93,3.25Z"/>
            <path class="cls-1" d="M52.72,10.74a46.66,46.66,0,0,0-18.51,6L32.4,13.67a50.2,50.2,0,0,1,20-6.51Z"/>
            <path class="cls-1" d="M62.11,14.32a43.05,43.05,0,0,0-17.85,1.89l-1.12-3.43a46.84,46.84,0,0,1,19.34-2Z"/>
            <path class="cls-1" d="M69.83,19.63A39.49,39.49,0,0,0,53.46,17.9l-.37-3.58a43.05,43.05,0,0,1,17.85,1.89Z"/>
            <path class="cls-1" d="M75.59,26.13a36.08,36.08,0,0,0-14.23-4.65l.38-3.58A39.53,39.53,0,0,1,77.39,23Z"/>
          </g>
          <g>
            <path d="M101.25,25.56a54.36,54.36,0,0,0-16.65-15l1.8-3.11a58,58,0,0,1,17.76,16Z"/>
            <path d="M103.62,36.79A50.53,50.53,0,0,0,91.3,19.86l2.41-2.67a54.25,54.25,0,0,1,13.2,18.13Z"/>
            <path d="M103.38,47.57a46.69,46.69,0,0,0-7.95-17.78l2.91-2.12a50.51,50.51,0,0,1,8.56,19.15Z"/>
            <path d="M100.8,57.29a43.1,43.1,0,0,0-3.75-17.57l3.29-1.47a46.56,46.56,0,0,1,4.06,19Z"/>
            <path d="M89.61,34A40,40,0,0,0,77.39,23l1.8-3.12a43.52,43.52,0,0,1,13.33,12Z"/>
            <path d="M90.47,42.65a36.32,36.32,0,0,0-8.81-12.09l2.41-2.67a39.88,39.88,0,0,1,9.69,13.3Z"/>
            <path d="M89.29,50.55a32.38,32.38,0,0,0-5.5-12.28l2.91-2.12A36,36,0,0,1,92.81,49.8Z"/>
            <path d="M86.4,57.29a28.67,28.67,0,0,0-2.5-11.71l3.28-1.46A32.07,32.07,0,0,1,90,57.29Z"/>
            <path d="M78,42.5a25.6,25.6,0,0,0-7.78-7L72,32.36a29.28,29.28,0,0,1,8.89,8Z"/>
            <path d="M77.32,48.52A21.81,21.81,0,0,0,72,41.26l2.41-2.67a25.43,25.43,0,0,1,6.18,8.46Z"/>
            <path d="M75.2,53.53a17.91,17.91,0,0,0-3.06-6.79l2.91-2.12a21.59,21.59,0,0,1,3.67,8.16Z"/>
            <path d="M72,57.29a14.05,14.05,0,0,0-1.26-5.84L74,50a17.65,17.65,0,0,1,1.57,7.31Z"/>
            <path class="cls-1" d="M83.79,38.27a32.84,32.84,0,0,0-10-9l1.81-3.12a36.47,36.47,0,0,1,11.11,10Z"/>
            <path class="cls-1" d="M83.9,45.58a29.2,29.2,0,0,0-7.06-9.67l2.41-2.67a32.45,32.45,0,0,1,7.93,10.88Z"/>
            <path class="cls-1" d="M82.24,52A25,25,0,0,0,78,42.5l2.91-2.12a28.71,28.71,0,0,1,4.9,10.91Z"/>
            <path class="cls-1" d="M79.2,57.29a21.32,21.32,0,0,0-1.88-8.77l3.29-1.47A25,25,0,0,1,82.8,57.29Z"/>
            <path class="cls-1" d="M95.43,29.79A47.2,47.2,0,0,0,81,16.78l1.81-3.11a50.9,50.9,0,0,1,15.54,14Z"/>
            <path class="cls-1" d="M97.05,39.72A43.64,43.64,0,0,0,86.48,25.21l2.41-2.67a47,47,0,0,1,11.45,15.71Z"/>
            <path class="cls-1" d="M96.33,49.06a39.56,39.56,0,0,0-6.72-15l2.91-2.12a43.09,43.09,0,0,1,7.33,16.4Z"/>
            <path class="cls-1" d="M93.6,57.29a35.83,35.83,0,0,0-3.13-14.64l3.29-1.46a39.37,39.37,0,0,1,3.44,16.1Z"/>
          </g>
        </g>
        <g>
          <g>
            <rect x="85.56" y="83.89" width="15.27" height="3.6" transform="translate(-33.29 91) rotate(-45)"/>
            <rect x="77.62" y="86.74" width="15.27" height="3.6" transform="translate(-37.64 86.22) rotate(-45)"/>
            <rect x="69.67" y="89.6" width="15.27" height="3.6" transform="translate(-41.98 81.44) rotate(-45)"/>
            <rect x="61.73" y="92.45" width="15.27" height="3.6" transform="translate(-46.33 76.65) rotate(-45)"/>
            <rect x="75.38" y="73.7" width="15.27" height="3.6" transform="translate(-29.07 80.82) rotate(-45)"/>
            <rect x="67.44" y="76.56" width="15.27" height="3.6" transform="translate(-33.42 76.04) rotate(-45)"/>
            <rect x="59.49" y="79.41" width="15.27" height="3.6" transform="translate(-37.77 71.25) rotate(-45)"/>
            <rect x="51.54" y="82.27" width="15.27" height="3.6" transform="translate(-42.11 66.47) rotate(-45)"/>
            <rect x="65.2" y="63.52" width="15.27" height="3.6" transform="translate(-24.86 70.64) rotate(-45)"/>
            <rect x="57.25" y="66.38" width="15.27" height="3.6" transform="translate(-29.2 65.85) rotate(-45)"/>
            <rect x="49.31" y="69.23" width="15.27" height="3.6" transform="translate(-33.55 61.07) rotate(-45)"/>
            <rect x="41.36" y="72.09" width="15.27" height="3.6" transform="translate(-37.89 56.29) rotate(-45)"/>
            <rect class="cls-1" x="70.29" y="68.61" width="15.27" height="3.6" transform="translate(-26.97 75.73) rotate(-45)"/>
            <rect class="cls-1" x="62.34" y="71.47" width="15.27" height="3.6" transform="translate(-31.31 70.95) rotate(-45)"/>
            <rect class="cls-1" x="54.4" y="74.32" width="15.27" height="3.6" transform="translate(-35.66 66.16) rotate(-45)"/>
            <rect class="cls-1" x="46.45" y="77.18" width="15.27" height="3.6" transform="translate(-40 61.38) rotate(-45)"/>
            <rect class="cls-1" x="80.47" y="78.8" width="15.27" height="3.6" transform="translate(-31.18 85.91) rotate(-45)"/>
            <rect class="cls-1" x="72.53" y="81.65" width="15.27" height="3.6" transform="translate(-35.53 81.13) rotate(-45)"/>
            <rect class="cls-1" x="64.58" y="84.5" width="15.27" height="3.6" transform="translate(-39.87 76.34) rotate(-45)"/>
            <rect class="cls-1" x="56.64" y="87.36" width="15.27" height="3.6" transform="translate(-44.22 71.56) rotate(-45)"/>
          </g>
          <g>
            <rect x="58.56" y="110.89" width="15.27" height="3.6" transform="translate(-60.29 79.82) rotate(-45)"/>
            <rect x="50.62" y="113.74" width="15.27" height="3.6" transform="translate(-64.64 75.03) rotate(-45)"/>
            <rect x="42.67" y="116.6" width="15.27" height="3.6" transform="translate(-68.98 70.25) rotate(-45)"/>
            <rect x="34.73" y="119.45" width="15.27" height="3.6" transform="translate(-73.33 65.47) rotate(-45)"/>
            <rect x="48.38" y="100.7" width="15.27" height="3.6" transform="translate(-56.07 69.63) rotate(-45)"/>
            <rect x="40.44" y="103.56" width="15.27" height="3.6" transform="translate(-60.42 64.85) rotate(-45)"/>
            <rect x="32.49" y="106.41" width="15.27" height="3.6" transform="translate(-64.77 60.07) rotate(-45)"/>
            <rect x="24.54" y="109.27" width="15.27" height="3.6" transform="translate(-69.11 55.29) rotate(-45)"/>
            <rect x="38.2" y="90.52" width="15.27" height="3.6" transform="translate(-51.86 59.45) rotate(-45)"/>
            <rect x="30.25" y="93.38" width="15.27" height="3.6" transform="translate(-56.2 54.67) rotate(-45)"/>
            <rect x="22.31" y="96.23" width="15.27" height="3.6" transform="translate(-60.55 49.89) rotate(-45)"/>
            <rect x="14.36" y="99.09" width="15.27" height="3.6" transform="translate(-64.89 45.1) rotate(-45)"/>
            <rect class="cls-1" x="43.29" y="95.61" width="15.27" height="3.6" transform="translate(-53.97 64.54) rotate(-45)"/>
            <rect class="cls-1" x="35.34" y="98.47" width="15.27" height="3.6" transform="translate(-58.31 59.76) rotate(-45)"/>
            <rect class="cls-1" x="27.4" y="101.32" width="15.27" height="3.6" transform="translate(-62.66 54.98) rotate(-45)"/>
            <rect class="cls-1" x="19.45" y="104.18" width="15.27" height="3.6" transform="translate(-67 50.2) rotate(-45)"/>
            <rect class="cls-1" x="53.47" y="105.8" width="15.27" height="3.6" transform="translate(-58.18 74.73) rotate(-45)"/>
            <rect class="cls-1" x="45.53" y="108.65" width="15.27" height="3.6" transform="translate(-62.53 69.94) rotate(-45)"/>
            <rect class="cls-1" x="37.58" y="111.5" width="15.27" height="3.6" transform="translate(-66.87 65.16) rotate(-45)"/>
            <rect class="cls-1" x="29.64" y="114.36" width="15.27" height="3.6" transform="translate(-71.22 60.38) rotate(-45)"/>
          </g>
        </g>
        <g>
          <g>
            <rect x="12.6" y="116.69" width="18" height="3.6"/>
            <rect x="21.6" y="120.29" width="18" height="3.6"/>
            <rect x="30.6" y="123.89" width="18" height="3.6"/>
            <rect x="39.6" y="127.49" width="18" height="3.6"/>
            <rect x="12.6" y="131.09" width="18" height="3.6"/>
            <rect x="21.6" y="134.69" width="18" height="3.6"/>
            <rect x="30.6" y="138.29" width="18" height="3.6"/>
            <rect x="39.6" y="141.89" width="18" height="3.6"/>
            <rect x="12.6" y="145.49" width="18" height="3.6"/>
            <rect x="21.6" y="149.09" width="18" height="3.6"/>
            <rect x="30.6" y="152.69" width="18" height="3.6"/>
            <rect x="39.6" y="156.29" width="18" height="3.6"/>
            <rect class="cls-1" x="12.6" y="138.29" width="18" height="3.6"/>
            <rect class="cls-1" x="21.6" y="141.89" width="18" height="3.6"/>
            <rect class="cls-1" x="30.6" y="145.49" width="18" height="3.6"/>
            <rect class="cls-1" x="39.6" y="149.09" width="18" height="3.6"/>
            <rect class="cls-1" x="12.6" y="123.89" width="18" height="3.6"/>
            <rect class="cls-1" x="21.6" y="127.49" width="18" height="3.6"/>
            <rect class="cls-1" x="30.6" y="131.09" width="18" height="3.6"/>
            <rect class="cls-1" x="39.6" y="134.69" width="18" height="3.6"/>
          </g>
          <g>
            <rect x="57.6" y="116.69" width="18" height="3.6"/>
            <rect x="66.6" y="120.29" width="18" height="3.6"/>
            <rect x="75.6" y="123.89" width="18" height="3.6"/>
            <rect x="84.6" y="127.49" width="18" height="3.6"/>
            <rect x="57.6" y="131.09" width="18" height="3.6"/>
            <rect x="66.6" y="134.69" width="18" height="3.6"/>
            <rect x="75.6" y="138.29" width="18" height="3.6"/>
            <rect x="84.6" y="141.89" width="18" height="3.6"/>
            <rect x="57.6" y="145.49" width="18" height="3.6"/>
            <rect x="66.6" y="149.09" width="18" height="3.6"/>
            <rect x="75.6" y="152.69" width="18" height="3.6"/>
            <rect x="84.6" y="156.29" width="18" height="3.6"/>
            <rect class="cls-1" x="57.6" y="138.29" width="18" height="3.6"/>
            <rect class="cls-1" x="66.6" y="141.89" width="18" height="3.6"/>
            <rect class="cls-1" x="75.6" y="145.49" width="18" height="3.6"/>
            <rect class="cls-1" x="84.6" y="149.09" width="18" height="3.6"/>
            <rect class="cls-1" x="57.6" y="123.89" width="18" height="3.6"/>
            <rect class="cls-1" x="66.6" y="127.49" width="18" height="3.6"/>
            <rect class="cls-1" x="75.6" y="131.09" width="18" height="3.6"/>
            <rect class="cls-1" x="84.6" y="134.69" width="18" height="3.6"/>
          </g>
        </g>
        <g>
          <g>
            <path d="M269.29,35.32a53.84,53.84,0,0,0-4.69,22H261a57.36,57.36,0,0,1,5-23.43Z"/>
            <path d="M277.86,27.67a50.51,50.51,0,0,0-8.56,19.15l-3.52-.74A53.83,53.83,0,0,1,275,25.56Z"/>
            <path d="M287.31,22.54a47,47,0,0,0-11.45,15.71l-3.28-1.46A50.53,50.53,0,0,1,284.9,19.86Z"/>
            <path d="M297,19.9a43.52,43.52,0,0,0-13.33,12l-2.91-2.12a47.2,47.2,0,0,1,14.44-13Z"/>
            <path d="M282.44,41.19A39.37,39.37,0,0,0,279,57.29h-3.6a42.93,42.93,0,0,1,3.75-17.57Z"/>
            <path d="M289.5,36.15a36,36,0,0,0-6.11,13.65l-3.52-.74a39.56,39.56,0,0,1,6.72-15Z"/>
            <path d="M297,33.24A32.45,32.45,0,0,0,289,44.12l-3.29-1.47a36.32,36.32,0,0,1,8.81-12.09Z"/>
            <path d="M304.22,32.36a29.28,29.28,0,0,0-8.89,8l-2.92-2.11a32.84,32.84,0,0,1,10-9Z"/>
            <path d="M295.59,47.05a25,25,0,0,0-2.19,10.24h-3.6a28.67,28.67,0,0,1,2.5-11.71Z"/>
            <path d="M301.15,44.62a21.59,21.59,0,0,0-3.67,8.16L294,52a25,25,0,0,1,4.28-9.54Z"/>
            <path d="M306.59,43.94a18.11,18.11,0,0,0-4.42,6l-3.29-1.46a21.81,21.81,0,0,1,5.3-7.26Z"/>
            <path d="M311.43,44.83a14.81,14.81,0,0,0-4.46,4l-2.91-2.12a18.35,18.35,0,0,1,5.57-5Z"/>
            <path class="cls-1" d="M289,44.12a32.07,32.07,0,0,0-2.82,13.17h-3.6a35.83,35.83,0,0,1,3.13-14.64Z"/>
            <path class="cls-1" d="M295.33,40.38a28.71,28.71,0,0,0-4.9,10.91l-3.52-.74a32.38,32.38,0,0,1,5.5-12.28Z"/>
            <path class="cls-1" d="M301.77,38.59a25.43,25.43,0,0,0-6.18,8.46l-3.29-1.47a29.2,29.2,0,0,1,7.06-9.67Z"/>
            <path class="cls-1" d="M307.83,38.6a21.86,21.86,0,0,0-6.68,6l-2.91-2.12a25.49,25.49,0,0,1,7.78-7Z"/>
            <path class="cls-1" d="M275.86,38.25a46.56,46.56,0,0,0-4.06,19h-3.6a50.09,50.09,0,0,1,4.38-20.5Z"/>
            <path class="cls-1" d="M283.68,31.91a43.09,43.09,0,0,0-7.33,16.4l-3.53-.74a46.69,46.69,0,0,1,7.95-17.78Z"/>
            <path class="cls-1" d="M292.13,27.89a39.88,39.88,0,0,0-9.69,13.3l-3.29-1.47a43.64,43.64,0,0,1,10.57-14.51Z"/>
            <path class="cls-1" d="M300.61,26.13a36.47,36.47,0,0,0-11.11,10L286.59,34a40,40,0,0,1,12.22-11Z"/>
          </g>
          <g>
            <path d="M313,3.58a53.84,53.84,0,0,0-21.38,7l-1.8-3.11A57.45,57.45,0,0,1,312.6,0Z"/>
            <path d="M323.85,7.16A50.25,50.25,0,0,0,303,9.36l-1.11-3.42a53.64,53.64,0,0,1,22.3-2.36Z"/>
            <path d="M333.06,12.78a46.84,46.84,0,0,0-19.34-2l-.37-3.58a50.25,50.25,0,0,1,20.82,2.2Z"/>
            <path d="M340.19,19.9a43.07,43.07,0,0,0-17.08-5.58l.37-3.58a46.66,46.66,0,0,1,18.51,6Z"/>
            <path d="M314.46,17.9A39.48,39.48,0,0,0,298.81,23L297,19.9a43.07,43.07,0,0,1,17.08-5.58Z"/>
            <path d="M322.36,21.48a35.73,35.73,0,0,0-14.88,1.58l-1.11-3.43a39.49,39.49,0,0,1,16.37-1.73Z"/>
            <path d="M328.61,26.48a32.33,32.33,0,0,0-13.4-1.42l-.37-3.58a35.73,35.73,0,0,1,14.88,1.58Z"/>
            <path d="M333,32.36a28.56,28.56,0,0,0-11.36-3.71l.37-3.59a32.34,32.34,0,0,1,12.79,4.19Z"/>
            <path d="M316,32.23A25,25,0,0,0,306,35.48l-1.8-3.12a28.56,28.56,0,0,1,11.36-3.71Z"/>
            <path d="M320.88,35.81a21.43,21.43,0,0,0-8.95.94l-1.12-3.42a25.05,25.05,0,0,1,10.44-1.1Z"/>
            <path d="M324.16,40.18a17.68,17.68,0,0,0-7.46-.79l-.38-3.58a21.43,21.43,0,0,1,8.95.94Z"/>
            <path d="M325.77,44.83A14.19,14.19,0,0,0,320.13,43l.37-3.58a17.83,17.83,0,0,1,7.07,2.32Z"/>
            <path class="cls-1" d="M315.21,25.06a32.34,32.34,0,0,0-12.79,4.19l-1.81-3.12a36.08,36.08,0,0,1,14.23-4.65Z"/>
            <path class="cls-1" d="M321.62,28.65A28.62,28.62,0,0,0,309.7,29.9l-1.11-3.42A32.33,32.33,0,0,1,322,25.06Z"/>
            <path class="cls-1" d="M326.39,33.33A25.05,25.05,0,0,0,316,32.23l-.37-3.58A28.62,28.62,0,0,1,327.5,29.9Z"/>
            <path class="cls-1" d="M329.37,38.6a21.28,21.28,0,0,0-8.49-2.79l.37-3.58a25,25,0,0,1,9.93,3.25Z"/>
            <path class="cls-1" d="M313.72,10.74a46.66,46.66,0,0,0-18.51,6l-1.81-3.11a50.2,50.2,0,0,1,20-6.51Z"/>
            <path class="cls-1" d="M323.11,14.32a43.05,43.05,0,0,0-17.85,1.89l-1.12-3.43a46.84,46.84,0,0,1,19.34-2Z"/>
            <path class="cls-1" d="M330.83,19.63a39.49,39.49,0,0,0-16.37-1.73l-.37-3.58a43.05,43.05,0,0,1,17.85,1.89Z"/>
            <path class="cls-1" d="M336.59,26.13a36.08,36.08,0,0,0-14.23-4.65l.38-3.58A39.53,39.53,0,0,1,338.39,23Z"/>
          </g>
          <g>
            <path d="M362.25,25.56a54.36,54.36,0,0,0-16.65-15l1.8-3.11a58,58,0,0,1,17.76,16Z"/>
            <path d="M364.62,36.79A50.53,50.53,0,0,0,352.3,19.86l2.41-2.67a54.25,54.25,0,0,1,13.2,18.13Z"/>
            <path d="M364.38,47.57a46.69,46.69,0,0,0-7.95-17.78l2.91-2.12a50.51,50.51,0,0,1,8.56,19.15Z"/>
            <path d="M361.8,57.29a43.1,43.1,0,0,0-3.75-17.57l3.29-1.47a46.56,46.56,0,0,1,4.06,19Z"/>
            <path d="M350.61,34a40,40,0,0,0-12.22-11l1.8-3.12a43.52,43.52,0,0,1,13.33,12Z"/>
            <path d="M351.47,42.65a36.32,36.32,0,0,0-8.81-12.09l2.41-2.67a39.88,39.88,0,0,1,9.69,13.3Z"/>
            <path d="M350.29,50.55a32.38,32.38,0,0,0-5.5-12.28l2.91-2.12a36,36,0,0,1,6.11,13.65Z"/>
            <path d="M347.4,57.29a28.67,28.67,0,0,0-2.5-11.71l3.28-1.46A32.07,32.07,0,0,1,351,57.29Z"/>
            <path d="M339,42.5a25.6,25.6,0,0,0-7.78-7l1.8-3.12a29.28,29.28,0,0,1,8.89,8Z"/>
            <path d="M338.32,48.52a21.81,21.81,0,0,0-5.3-7.26l2.41-2.67a25.43,25.43,0,0,1,6.18,8.46Z"/>
            <path d="M336.2,53.53a17.91,17.91,0,0,0-3.06-6.79l2.91-2.12a21.59,21.59,0,0,1,3.67,8.16Z"/>
            <path d="M333,57.29a14.05,14.05,0,0,0-1.26-5.84L335,50a17.65,17.65,0,0,1,1.57,7.31Z"/>
            <path class="cls-1" d="M344.79,38.27a32.84,32.84,0,0,0-10-9l1.81-3.12a36.47,36.47,0,0,1,11.11,10Z"/>
            <path class="cls-1" d="M344.9,45.58a29.2,29.2,0,0,0-7.06-9.67l2.41-2.67a32.45,32.45,0,0,1,7.93,10.88Z"/>
            <path class="cls-1" d="M343.24,52A25,25,0,0,0,339,42.5l2.91-2.12a28.71,28.71,0,0,1,4.9,10.91Z"/>
            <path class="cls-1" d="M340.2,57.29a21.32,21.32,0,0,0-1.88-8.77l3.29-1.47a25,25,0,0,1,2.19,10.24Z"/>
            <path class="cls-1" d="M356.43,29.79a47.2,47.2,0,0,0-14.44-13l1.81-3.11a50.9,50.9,0,0,1,15.54,14Z"/>
            <path class="cls-1" d="M358.05,39.72a43.64,43.64,0,0,0-10.57-14.51l2.41-2.67a47,47,0,0,1,11.45,15.71Z"/>
            <path class="cls-1" d="M357.33,49.06a39.56,39.56,0,0,0-6.72-15l2.91-2.12a43.09,43.09,0,0,1,7.33,16.4Z"/>
            <path class="cls-1" d="M354.6,57.29a35.83,35.83,0,0,0-3.13-14.64l3.29-1.46a39.37,39.37,0,0,1,3.44,16.1Z"/>
          </g>
        </g>
        <g>
          <g>
            <rect x="346.56" y="83.89" width="15.27" height="3.6" transform="translate(43.15 275.55) rotate(-45)"/>
            <rect x="338.62" y="86.74" width="15.27" height="3.6" transform="translate(38.81 270.77) rotate(-45)"/>
            <rect x="330.67" y="89.6" width="15.27" height="3.6" transform="translate(34.46 265.99) rotate(-45)"/>
            <rect x="322.73" y="92.45" width="15.27" height="3.6" transform="translate(30.12 261.21) rotate(-45)"/>
            <rect x="336.38" y="73.7" width="15.27" height="3.6" transform="translate(47.37 265.37) rotate(-45)"/>
            <rect x="328.44" y="76.56" width="15.27" height="3.6" transform="translate(43.03 260.59) rotate(-45)"/>
            <rect x="320.49" y="79.41" width="15.27" height="3.6" transform="translate(38.68 255.81) rotate(-45)"/>
            <rect x="312.54" y="82.27" width="15.27" height="3.6" transform="translate(34.33 251.02) rotate(-45)"/>
            <rect x="326.2" y="63.52" width="15.27" height="3.6" transform="translate(51.59 255.19) rotate(-45)"/>
            <rect x="318.25" y="66.38" width="15.27" height="3.6" transform="translate(47.24 250.41) rotate(-45)"/>
            <rect x="310.31" y="69.23" width="15.27" height="3.6" transform="translate(42.9 245.63) rotate(-45)"/>
            <rect x="302.36" y="72.09" width="15.27" height="3.6" transform="translate(38.55 240.84) rotate(-45)"/>
            <rect class="cls-1" x="331.29" y="68.61" width="15.27" height="3.6" transform="translate(49.48 260.28) rotate(-45)"/>
            <rect class="cls-1" x="323.34" y="71.47" width="15.27" height="3.6" transform="translate(45.14 255.5) rotate(-45)"/>
            <rect class="cls-1" x="315.4" y="74.32" width="15.27" height="3.6" transform="translate(40.79 250.72) rotate(-45)"/>
            <rect class="cls-1" x="307.45" y="77.18" width="15.27" height="3.6" transform="translate(36.44 245.93) rotate(-45)"/>
            <rect class="cls-1" x="341.47" y="78.8" width="15.27" height="3.6" transform="translate(45.26 270.47) rotate(-45)"/>
            <rect class="cls-1" x="333.53" y="81.65" width="15.27" height="3.6" transform="translate(40.92 265.68) rotate(-45)"/>
            <rect class="cls-1" x="325.58" y="84.5" width="15.27" height="3.6" transform="translate(36.57 260.9) rotate(-45)"/>
            <rect class="cls-1" x="317.64" y="87.36" width="15.27" height="3.6" transform="translate(32.23 256.12) rotate(-45)"/>
          </g>
          <g>
            <rect x="319.56" y="110.89" width="15.27" height="3.6" transform="translate(16.15 264.37) rotate(-45)"/>
            <rect x="311.62" y="113.74" width="15.27" height="3.6" transform="translate(11.81 259.59) rotate(-45)"/>
            <rect x="303.67" y="116.6" width="15.27" height="3.6" transform="translate(7.46 254.81) rotate(-45)"/>
            <rect x="295.73" y="119.45" width="15.27" height="3.6" transform="translate(3.12 250.02) rotate(-45)"/>
            <rect x="309.38" y="100.7" width="15.27" height="3.6" transform="translate(20.37 254.19) rotate(-45)"/>
            <rect x="301.44" y="103.56" width="15.27" height="3.6" transform="translate(16.03 249.41) rotate(-45)"/>
            <rect x="293.49" y="106.41" width="15.27" height="3.6" transform="translate(11.68 244.62) rotate(-45)"/>
            <rect x="285.54" y="109.27" width="15.27" height="3.6" transform="translate(7.33 239.84) rotate(-45)"/>
            <rect x="299.2" y="90.52" width="15.27" height="3.6" transform="translate(24.59 244.01) rotate(-45)"/>
            <rect x="291.25" y="93.38" width="15.27" height="3.6" transform="translate(20.24 239.22) rotate(-45)"/>
            <rect x="283.31" y="96.23" width="15.27" height="3.6" transform="translate(15.9 234.44) rotate(-45)"/>
            <rect x="275.36" y="99.09" width="15.27" height="3.6" transform="translate(11.55 229.66) rotate(-45)"/>
            <rect class="cls-1" x="304.29" y="95.61" width="15.27" height="3.6" transform="translate(22.48 249.1) rotate(-45)"/>
            <rect class="cls-1" x="296.34" y="98.47" width="15.27" height="3.6" transform="translate(18.14 244.32) rotate(-45)"/>
            <rect class="cls-1" x="288.4" y="101.32" width="15.27" height="3.6" transform="translate(13.79 239.53) rotate(-45)"/>
            <rect class="cls-1" x="280.45" y="104.18" width="15.27" height="3.6" transform="translate(9.44 234.75) rotate(-45)"/>
            <rect class="cls-1" x="314.47" y="105.8" width="15.27" height="3.6" transform="translate(18.26 259.28) rotate(-45)"/>
            <rect class="cls-1" x="306.53" y="108.65" width="15.27" height="3.6" transform="translate(13.92 254.5) rotate(-45)"/>
            <rect class="cls-1" x="298.58" y="111.5" width="15.27" height="3.6" transform="translate(9.57 249.72) rotate(-45)"/>
            <rect class="cls-1" x="290.64" y="114.36" width="15.27" height="3.6" transform="translate(5.23 244.93) rotate(-45)"/>
          </g>
        </g>
        <g>
          <g>
            <rect x="291.6" y="116.69" width="14.4" height="3.6"/>
            <rect x="298.8" y="120.29" width="14.4" height="3.6"/>
            <rect x="306" y="123.89" width="14.4" height="3.6"/>
            <rect x="313.2" y="127.49" width="14.4" height="3.6"/>
            <rect x="291.6" y="131.09" width="14.4" height="3.6"/>
            <rect x="298.8" y="134.69" width="14.4" height="3.6"/>
            <rect x="306" y="138.29" width="14.4" height="3.6"/>
            <rect x="313.2" y="141.89" width="14.4" height="3.6"/>
            <rect x="291.6" y="145.49" width="14.4" height="3.6"/>
            <rect x="298.8" y="149.09" width="14.4" height="3.6"/>
            <rect x="306" y="152.69" width="14.4" height="3.6"/>
            <rect x="313.2" y="156.29" width="14.4" height="3.6"/>
            <rect class="cls-1" x="291.6" y="138.29" width="14.4" height="3.6"/>
            <rect class="cls-1" x="298.8" y="141.89" width="14.4" height="3.6"/>
            <rect class="cls-1" x="306" y="145.49" width="14.4" height="3.6"/>
            <rect class="cls-1" x="313.2" y="149.09" width="14.4" height="3.6"/>
            <rect class="cls-1" x="291.6" y="123.89" width="14.4" height="3.6"/>
            <rect class="cls-1" x="298.8" y="127.49" width="14.4" height="3.6"/>
            <rect class="cls-1" x="306" y="131.09" width="14.4" height="3.6"/>
            <rect class="cls-1" x="313.2" y="134.69" width="14.4" height="3.6"/>
          </g>
          <g>
            <rect x="327.6" y="116.69" width="14.4" height="3.6"/>
            <rect x="334.8" y="120.29" width="14.4" height="3.6"/>
            <rect x="342" y="123.89" width="14.4" height="3.6"/>
            <rect x="349.2" y="127.49" width="14.4" height="3.6"/>
            <rect x="327.6" y="131.09" width="14.4" height="3.6"/>
            <rect x="334.8" y="134.69" width="14.4" height="3.6"/>
            <rect x="342" y="138.29" width="14.4" height="3.6"/>
            <rect x="349.2" y="141.89" width="14.4" height="3.6"/>
            <rect x="327.6" y="145.49" width="14.4" height="3.6"/>
            <rect x="334.8" y="149.09" width="14.4" height="3.6"/>
            <rect x="342" y="152.69" width="14.4" height="3.6"/>
            <rect x="349.2" y="156.29" width="14.4" height="3.6"/>
            <rect class="cls-1" x="327.6" y="138.29" width="14.4" height="3.6"/>
            <rect class="cls-1" x="334.8" y="141.89" width="14.4" height="3.6"/>
            <rect class="cls-1" x="342" y="145.49" width="14.4" height="3.6"/>
            <rect class="cls-1" x="349.2" y="149.09" width="14.4" height="3.6"/>
            <rect class="cls-1" x="327.6" y="123.89" width="14.4" height="3.6"/>
            <rect class="cls-1" x="334.8" y="127.49" width="14.4" height="3.6"/>
            <rect class="cls-1" x="342" y="131.09" width="14.4" height="3.6"/>
            <rect class="cls-1" x="349.2" y="134.69" width="14.4" height="3.6"/>
          </g>
        </g>
        <g>
          <g>
            <path d="M209.19,96.65a103.13,103.13,0,0,0,1.41-16.86h3.6a106.13,106.13,0,0,1-1.46,17.46Z"/>
            <path d="M203.92,104.12a94.94,94.94,0,0,0,2.74-16.19l3.58.29A97.29,97.29,0,0,1,207.4,105Z"/>
            <path d="M198.05,110.84a86.4,86.4,0,0,0,4-15.39l3.55.6a89.55,89.55,0,0,1-4.21,16Z"/>
            <path d="M191.64,116.7A76.3,76.3,0,0,0,197,102.3l3.48.91a80.46,80.46,0,0,1-5.56,15.07Z"/>
            <path d="M195,94.26a89,89,0,0,0,1.21-14.47h3.6a92,92,0,0,1-1.26,15.07Z"/>
            <path d="M190,100.47a79.77,79.77,0,0,0,2.31-13.72l3.59.29a83.11,83.11,0,0,1-2.42,14.34Z"/>
            <path d="M184.53,105.88a71.12,71.12,0,0,0,3.36-12.82l3.55.6a74.49,74.49,0,0,1-3.53,13.46Z"/>
            <path d="M178.71,110.36A62.56,62.56,0,0,0,183,98.65l3.48.91a65.32,65.32,0,0,1-4.56,12.38Z"/>
            <path d="M180.79,91.87a73.76,73.76,0,0,0,1-12.08h3.6a77.74,77.74,0,0,1-1.06,12.67Z"/>
            <path d="M176.06,96.82A64.47,64.47,0,0,0,178,85.57l3.59.29a68.24,68.24,0,0,1-2,11.88Z"/>
            <path d="M171,100.92a56.9,56.9,0,0,0,2.68-10.25l3.55.6a61.11,61.11,0,0,1-2.85,10.89Z"/>
            <path d="M165.78,104a47.69,47.69,0,0,0,3.31-9l3.48.91a51.24,51.24,0,0,1-3.56,9.7Z"/>
            <path class="cls-1" d="M187.89,93.06A81.85,81.85,0,0,0,189,79.79h3.6a84.85,84.85,0,0,1-1.16,13.87Z"/>
            <path class="cls-1" d="M183,98.65a72.75,72.75,0,0,0,2.11-12.49l3.59.29a76.25,76.25,0,0,1-2.22,13.11Z"/>
            <path class="cls-1" d="M177.77,103.4a64.48,64.48,0,0,0,3-11.53l3.55.59a68.59,68.59,0,0,1-3.19,12.18Z"/>
            <path class="cls-1" d="M172.24,107.19a55.68,55.68,0,0,0,3.82-10.37l3.48.92a59,59,0,0,1-4.06,11Z"/>
            <path class="cls-1" d="M202.09,95.45a95.93,95.93,0,0,0,1.31-15.66H207a98.93,98.93,0,0,1-1.36,16.26Z"/>
            <path class="cls-1" d="M197,102.3a86.93,86.93,0,0,0,2.53-15l3.59.29a89.49,89.49,0,0,1-2.64,15.58Z"/>
            <path class="cls-1" d="M191.29,108.36a78.7,78.7,0,0,0,3.7-14.1l3.55.6a82.08,82.08,0,0,1-3.87,14.74Z"/>
            <path class="cls-1" d="M185.17,113.53A69.86,69.86,0,0,0,190,100.47l3.48.91a73,73,0,0,1-5.06,13.73Z"/>
          </g>
          <g>
            <path d="M191.33,136.87a74.14,74.14,0,0,0,10-15.42l3.23,1.58a77.33,77.33,0,0,1-10.5,16.18Z"/>
            <path d="M182.08,141.08a62.27,62.27,0,0,0,11.79-13.69l3,2a66.11,66.11,0,0,1-12.48,14.47Z"/>
            <path d="M172.41,143.53a51.26,51.26,0,0,0,13.43-11.33l2.75,2.34a55,55,0,0,1-14.39,12.11Z"/>
            <path d="M162.82,143.83a41.61,41.61,0,0,0,14.58-8.22l2.34,2.73a45.17,45.17,0,0,1-15.85,8.93Z"/>
            <path d="M180.36,127.53a59.47,59.47,0,0,0,8-12.42l3.23,1.59a63.26,63.26,0,0,1-8.54,13.17Z"/>
            <path d="M172.72,130.14a48.19,48.19,0,0,0,9-10.54l3,2a51.57,51.57,0,0,1-9.73,11.32Z"/>
            <path d="M165.25,131a36.92,36.92,0,0,0,9.63-8.18l2.74,2.34a40.59,40.59,0,0,1-10.58,9Z"/>
            <path d="M158.54,130.08a27.2,27.2,0,0,0,9.5-5.41l2.34,2.73a30.85,30.85,0,0,1-10.77,6.12Z"/>
            <path d="M169.4,118.19a45,45,0,0,0,6.08-9.42l3.23,1.59a48.43,48.43,0,0,1-6.57,10.17Z"/>
            <path d="M163.35,119.2a33.82,33.82,0,0,0,6.31-7.4l3,2a37.14,37.14,0,0,1-7,8.18Z"/>
            <path d="M158.09,118.54a22.55,22.55,0,0,0,5.83-5l2.74,2.34a26.28,26.28,0,0,1-6.78,5.81Z"/>
            <path d="M154.25,116.34a12.81,12.81,0,0,0,4.42-2.61l2.34,2.73a16.15,16.15,0,0,1-5.69,3.31Z"/>
            <path class="cls-1" d="M174.88,122.86a51.71,51.71,0,0,0,7.06-10.92l3.23,1.59a56.16,56.16,0,0,1-7.55,11.67Z"/>
            <path class="cls-1" d="M168,124.67a41,41,0,0,0,7.67-9l3,2a45.13,45.13,0,0,1-8.36,9.75Z"/>
            <path class="cls-1" d="M161.67,124.79a29.62,29.62,0,0,0,7.73-6.6l2.74,2.34a33.5,33.5,0,0,1-8.68,7.38Z"/>
            <path class="cls-1" d="M156.4,123.21a19.87,19.87,0,0,0,6.95-4l2.34,2.73a23.42,23.42,0,0,1-8.22,4.72Z"/>
            <path class="cls-1" d="M185.84,132.2a66.14,66.14,0,0,0,9-13.92l3.24,1.58a70.67,70.67,0,0,1-9.52,14.68Z"/>
            <path class="cls-1" d="M177.4,135.61a55.73,55.73,0,0,0,10.42-12.11l3,1.94a58.61,58.61,0,0,1-11.1,12.9Z"/>
            <path class="cls-1" d="M168.83,137.28a44,44,0,0,0,11.53-9.75l2.74,2.34a47.68,47.68,0,0,1-12.48,10.53Z"/>
            <path class="cls-1" d="M160.68,137a34.54,34.54,0,0,0,12-6.82l2.34,2.73a38.1,38.1,0,0,1-13.31,7.53Z"/>
          </g>
          <g>
            <path d="M143.63,155.49a46.65,46.65,0,0,0,22.4-1.34l1.07,3.43a51.27,51.27,0,0,1-11.94,2.2A49.19,49.19,0,0,1,143,159Z"/>
            <path d="M134.45,148.92a43.85,43.85,0,0,0,20.27,3.68l.22,3.59a47.41,47.41,0,0,1-21.94-4Z"/>
            <path d="M128,141.08a46.17,46.17,0,0,0,8,4.54,40.47,40.47,0,0,0,9,2.79l-.65,3.54a44.44,44.44,0,0,1-9.84-3,50.19,50.19,0,0,1-8.57-4.9Z"/>
            <path d="M123.82,132.83a44.53,44.53,0,0,0,13.54,9.5l-1.45,3.29a47.82,47.82,0,0,1-14.64-10.26Z"/>
            <path d="M146.25,141.33a32.17,32.17,0,0,0,15.5-.93l1.07,3.43a35.63,35.63,0,0,1-17.22,1Z"/>
            <path d="M140.26,135.74a29.35,29.35,0,0,0,13.58,2.48l.22,3.6A32.92,32.92,0,0,1,138.81,139Z"/>
            <path d="M136.31,129.35a28.17,28.17,0,0,0,11.25,4.9l-.66,3.54a31.67,31.67,0,0,1-12.67-5.51Z"/>
            <path d="M134.05,122.69a30.15,30.15,0,0,0,9.12,6.46l-1.46,3.3a34,34,0,0,1-10.22-7.22Z"/>
            <path d="M148.87,127.17a17.83,17.83,0,0,0,8.6-.52l1.07,3.43a21.31,21.31,0,0,1-10.33.63Z"/>
            <path d="M146.07,122.56a14.87,14.87,0,0,0,6.89,1.29l.22,3.59a18.41,18.41,0,0,1-8.56-1.58Z"/>
            <path d="M144.66,117.62a13.85,13.85,0,0,0,5.52,2.47l-.66,3.54a17.44,17.44,0,0,1-7-3.08Z"/>
            <path d="M144.28,112.55A15.9,15.9,0,0,0,149,116l-1.45,3.3a19.65,19.65,0,0,1-5.8-4.18Z"/>
            <path class="cls-1" d="M147.56,134.25a24.88,24.88,0,0,0,12.05-.73l1.07,3.44a28.61,28.61,0,0,1-13.78.83Z"/>
            <path class="cls-1" d="M143.17,129.15A22.1,22.1,0,0,0,153.4,131l.22,3.59a25.8,25.8,0,0,1-11.91-2.18Z"/>
            <path class="cls-1" d="M140.49,123.48a20.86,20.86,0,0,0,8.38,3.69l-.66,3.54a24.65,24.65,0,0,1-9.81-4.29Z"/>
            <path class="cls-1" d="M139.16,117.62a23.07,23.07,0,0,0,6.91,4.94l-1.45,3.3a26.7,26.7,0,0,1-8-5.7Z"/>
            <path class="cls-1" d="M144.94,148.41a39.48,39.48,0,0,0,18.95-1.14l1.07,3.44A43,43,0,0,1,144.29,152Z"/>
            <path class="cls-1" d="M137.36,142.33a36.57,36.57,0,0,0,16.92,3.08l.22,3.59a40.13,40.13,0,0,1-18.59-3.38Z"/>
            <path class="cls-1" d="M132.14,135.22a35.31,35.31,0,0,0,14.11,6.11l-.65,3.54a36.65,36.65,0,0,1-8.24-2.54,43.41,43.41,0,0,1-7.31-4.18Z"/>
            <path class="cls-1" d="M128.94,127.76a37.14,37.14,0,0,0,11.32,8L138.81,139a40.72,40.72,0,0,1-12.43-8.74Z"/>
          </g>
          <g>
            <path d="M105,125.43a69.94,69.94,0,0,0,11.2,15L113.6,143a73.41,73.41,0,0,1-11.79-15.78Z"/>
            <path d="M104.32,116a74.48,74.48,0,0,0,8.51,15l-2.89,2.14A77.73,77.73,0,0,1,101,117.41Z"/>
            <path d="M104.87,107a77,77,0,0,0,6.35,14.86l-3.13,1.77a81.56,81.56,0,0,1-6.66-15.55Z"/>
            <path d="M106.36,98.59a82.78,82.78,0,0,0,4.58,14.59l-3.31,1.41a85.79,85.79,0,0,1-4.79-15.25Z"/>
            <path d="M117.5,118.38a55.63,55.63,0,0,0,8.88,11.91l-2.56,2.54a59.3,59.3,0,0,1-9.46-12.69Z"/>
            <path d="M117.57,110.36a60,60,0,0,0,6.85,12.11l-2.9,2.13a63.34,63.34,0,0,1-7.26-12.83Z"/>
            <path d="M118.61,102.75a63.24,63.24,0,0,0,5.17,12.1l-3.14,1.76a65.91,65.91,0,0,1-5.46-12.79Z"/>
            <path d="M120.44,95.58a67.59,67.59,0,0,0,3.76,12L120.88,109a71.4,71.4,0,0,1-4-12.62Z"/>
            <path d="M130.06,111.32a40.83,40.83,0,0,0,6.55,8.84l-2.56,2.53a44.61,44.61,0,0,1-7.13-9.6Z"/>
            <path d="M130.82,104.72a45.61,45.61,0,0,0,5.18,9.19l-2.9,2.14a49.3,49.3,0,0,1-5.59-9.92Z"/>
            <path d="M132.36,98.45a49.13,49.13,0,0,0,4,9.35l-3.14,1.76a52.45,52.45,0,0,1-4.27-10Z"/>
            <path d="M134.52,92.56a53.68,53.68,0,0,0,2.93,9.35l-3.32,1.41a57.39,57.39,0,0,1-3.13-10Z"/>
            <path class="cls-1" d="M123.78,114.85a48.36,48.36,0,0,0,7.71,10.38l-2.55,2.53a51.76,51.76,0,0,1-8.3-11.15Z"/>
            <path class="cls-1" d="M124.2,107.54a52.54,52.54,0,0,0,6,10.65l-2.9,2.14A56.75,56.75,0,0,1,120.88,109Z"/>
            <path class="cls-1" d="M125.49,100.6a55.33,55.33,0,0,0,4.57,10.72l-3.14,1.77a58.49,58.49,0,0,1-4.87-11.42Z"/>
            <path class="cls-1" d="M127.48,94.07a60.85,60.85,0,0,0,3.34,10.65l-3.31,1.41A63.86,63.86,0,0,1,124,94.82Z"/>
            <path class="cls-1" d="M111.22,121.9a62.46,62.46,0,0,0,10,13.46l-2.56,2.54a66.26,66.26,0,0,1-10.62-14.23Z"/>
            <path class="cls-1" d="M110.94,113.18a67.11,67.11,0,0,0,7.69,13.56l-2.9,2.14a70.8,70.8,0,0,1-8.1-14.29Z"/>
            <path class="cls-1" d="M111.74,104.89a70.21,70.21,0,0,0,5.76,13.49l-3.14,1.76a73.06,73.06,0,0,1-6-14.17Z"/>
            <path class="cls-1" d="M113.4,97.08a75.24,75.24,0,0,0,4.17,13.28l-3.31,1.41a78.15,78.15,0,0,1-4.38-13.93Z"/>
          </g>
          <g>
            <path d="M93.69,84a102.69,102.69,0,0,0,2.11,16.85l-3.52.75A104.85,104.85,0,0,1,90.1,84.15Z"/>
            <path d="M97.29,75.72A98.46,98.46,0,0,0,98,92l-3.57.45a102.49,102.49,0,0,1-.7-16.87Z"/>
            <path d="M101.54,68a94.68,94.68,0,0,0-.65,15.69l-3.6.14A98.46,98.46,0,0,1,98,67.58Z"/>
            <path d="M106.36,61a92.18,92.18,0,0,0-1.88,15l-3.59-.15a95.14,95.14,0,0,1,2-15.63Z"/>
            <path d="M108.08,83.42a89,89,0,0,0,1.8,14.42l-3.52.75a91.91,91.91,0,0,1-1.88-15Z"/>
            <path d="M111.68,76.3a84,84,0,0,0,.57,13.91l-3.57.45a87.93,87.93,0,0,1-.6-14.5Z"/>
            <path d="M115.83,69.8a81.23,81.23,0,0,0-.56,13.32l-3.59.15a84,84,0,0,1,.57-13.91Z"/>
            <path d="M120.44,64a77.08,77.08,0,0,0-1.57,12.61l-3.6-.15a81.27,81.27,0,0,1,1.65-13.21Z"/>
            <path d="M122.47,82.83a73.73,73.73,0,0,0,1.49,12l-3.52.76A77,77,0,0,1,118.87,83Z"/>
            <path d="M126.07,76.89a69.39,69.39,0,0,0,.47,11.54l-3.57.45a73.37,73.37,0,0,1-.5-12.14Z"/>
            <path d="M130.12,71.59a66.53,66.53,0,0,0-.46,11l-3.59.14a69.39,69.39,0,0,1,.47-11.54Z"/>
            <path d="M134.52,67a63,63,0,0,0-1.26,10.17l-3.6-.15A67.59,67.59,0,0,1,131,66.25Z"/>
            <path class="cls-1" d="M115.27,83.12a81.27,81.27,0,0,0,1.65,13.21l-3.52.75a83.29,83.29,0,0,1-1.72-13.81Z"/>
            <path class="cls-1" d="M118.87,76.6a76.07,76.07,0,0,0,.53,12.72l-3.57.45a81.18,81.18,0,0,1-.56-13.32Z"/>
            <path class="cls-1" d="M123,70.7a73.24,73.24,0,0,0-.5,12.13l-3.6.15a76.14,76.14,0,0,1,.53-12.73Z"/>
            <path class="cls-1" d="M127.48,65.5a69.4,69.4,0,0,0-1.41,11.39l-3.6-.15a73.73,73.73,0,0,1,1.49-12Z"/>
            <path class="cls-1" d="M100.89,83.71a95.14,95.14,0,0,0,2,15.63l-3.52.76a98.49,98.49,0,0,1-2-16.25Z"/>
            <path class="cls-1" d="M104.48,76a90.66,90.66,0,0,0,.63,15.09l-3.57.45a94.68,94.68,0,0,1-.65-15.69Z"/>
            <path class="cls-1" d="M108.68,68.91a88,88,0,0,0-.6,14.51l-3.6.14a90.71,90.71,0,0,1,.63-15.09Z"/>
            <path class="cls-1" d="M113.4,62.49a83.29,83.29,0,0,0-1.72,13.81l-3.6-.14a88.94,88.94,0,0,1,1.8-14.43Z"/>
          </g>
          <g>
            <path d="M101,42.16A92.55,92.55,0,0,0,95.8,58.72L92.28,58a96.81,96.81,0,0,1,5.41-17.21Z"/>
            <path d="M108.09,35.9a81.37,81.37,0,0,0-6.66,15.56L98,50.38a84.22,84.22,0,0,1,7-16.24Z"/>
            <path d="M115.73,30.69A71.07,71.07,0,0,0,107.63,45l-3.31-1.41a74.75,74.75,0,0,1,8.51-15Z"/>
            <path d="M123.82,26.74a59.3,59.3,0,0,0-9.46,12.69l-3.14-1.76a62.7,62.7,0,0,1,10-13.46Z"/>
            <path d="M114.26,47.8a78.41,78.41,0,0,0-4.38,13.93L106.36,61a82.78,82.78,0,0,1,4.58-14.59Z"/>
            <path d="M120.64,43a65.91,65.91,0,0,0-5.46,12.79l-3.44-1.07a70.21,70.21,0,0,1,5.76-13.49Z"/>
            <path d="M127.31,39.25a56.4,56.4,0,0,0-6.43,11.37l-3.31-1.41a59.65,59.65,0,0,1,6.85-12.1Z"/>
            <path d="M134.05,36.88a44.61,44.61,0,0,0-7.13,9.6l-3.14-1.76a48.05,48.05,0,0,1,7.71-10.37Z"/>
            <path d="M127.51,53.44A63.86,63.86,0,0,0,124,64.75L120.44,64a67.85,67.85,0,0,1,3.76-12Z"/>
            <path d="M133.19,50a52.45,52.45,0,0,0-4.27,10L125.49,59a55.33,55.33,0,0,1,4.57-10.72Z"/>
            <path d="M138.89,47.8a42.38,42.38,0,0,0-4.76,8.46l-3.31-1.41A45.61,45.61,0,0,1,136,45.66Z"/>
            <path d="M144.28,47a30.46,30.46,0,0,0-4.81,6.52l-3.14-1.77a34.4,34.4,0,0,1,5.39-7.29Z"/>
            <path class="cls-1" d="M120.88,50.62a71.4,71.4,0,0,0-4,12.62l-3.52-.75a75.24,75.24,0,0,1,4.17-13.28Z"/>
            <path class="cls-1" d="M126.92,46.48a59,59,0,0,0-4.87,11.42l-3.44-1.07a63.32,63.32,0,0,1,5.17-12.11Z"/>
            <path class="cls-1" d="M133.1,43.52a49.3,49.3,0,0,0-5.59,9.92L124.2,52a52.2,52.2,0,0,1,6-10.64Z"/>
            <path class="cls-1" d="M139.16,42a38.08,38.08,0,0,0-6,8.06l-3.13-1.76a41.08,41.08,0,0,1,6.55-8.84Z"/>
            <path class="cls-1" d="M107.63,45a85.79,85.79,0,0,0-4.79,15.25l-3.52-.76a89.79,89.79,0,0,1,5-15.9Z"/>
            <path class="cls-1" d="M114.36,39.43a73.06,73.06,0,0,0-6,14.17l-3.44-1.07a77,77,0,0,1,6.35-14.86Z"/>
            <path class="cls-1" d="M121.52,35a63.34,63.34,0,0,0-7.26,12.83l-3.32-1.41a67.38,67.38,0,0,1,7.69-13.56Z"/>
            <path class="cls-1" d="M128.94,31.81A52,52,0,0,0,120.64,43l-3.14-1.77a55.63,55.63,0,0,1,8.88-11.91Z"/>
          </g>
          <g>
            <path d="M133,7.36a55.34,55.34,0,0,0-16.85,11.78l-2.55-2.53a58.76,58.76,0,0,1,18-12.54Z"/>
            <path d="M144.29,7.62a44.44,44.44,0,0,0-9.84,3,50.23,50.23,0,0,0-8.57,4.91l-2.09-2.94A54.4,54.4,0,0,1,133,7.36a47.58,47.58,0,0,1,10.63-3.28Z"/>
            <path d="M154.5,10.57A40.13,40.13,0,0,0,135.91,14l-1.46-3.3A43.84,43.84,0,0,1,154.72,7Z"/>
            <path d="M162.82,15.74a35.75,35.75,0,0,0-17.22-1l-.66-3.54a39.48,39.48,0,0,1,18.95,1.14Z"/>
            <path d="M138.81,20.54a40.72,40.72,0,0,0-12.43,8.74l-2.56-2.54a44.53,44.53,0,0,1,13.54-9.5Z"/>
            <path d="M146.9,21.78a31.67,31.67,0,0,0-12.67,5.51l-2.09-2.93a35.33,35.33,0,0,1,14.11-6.12Z"/>
            <path d="M153.62,24.94a25.68,25.68,0,0,0-11.91,2.19l-1.45-3.3a29.35,29.35,0,0,1,13.58-2.48Z"/>
            <path d="M158.54,29.49a21.31,21.31,0,0,0-10.33-.63l-.65-3.54a25,25,0,0,1,12.05.73Z"/>
            <path d="M144.62,33.71a26.7,26.7,0,0,0-8,5.7l-2.56-2.53a30.15,30.15,0,0,1,9.12-6.46Z"/>
            <path d="M149.52,35.94a17.58,17.58,0,0,0-7,3.08l-2.08-2.93a20.86,20.86,0,0,1,8.38-3.69Z"/>
            <path d="M152.74,39.32a11.17,11.17,0,0,0-5.22,1L146.07,37A14.87,14.87,0,0,1,153,35.72Z"/>
            <path d="M154.25,43.24a6.8,6.8,0,0,0-3.42-.22l-.65-3.54a10.36,10.36,0,0,1,5.14.32Z"/>
            <path class="cls-1" d="M141.71,27.13a33.8,33.8,0,0,0-10.22,7.22l-2.55-2.54a37.31,37.31,0,0,1,11.32-8Z"/>
            <path class="cls-1" d="M148.21,28.86a24.53,24.53,0,0,0-9.81,4.3l-2.09-2.94a28.17,28.17,0,0,1,11.25-4.9Z"/>
            <path class="cls-1" d="M153.18,32.13a18.54,18.54,0,0,0-8.56,1.58l-1.45-3.29a22,22,0,0,1,10.23-1.88Z"/>
            <path class="cls-1" d="M156.4,36.36a14.25,14.25,0,0,0-6.88-.42l-.65-3.54a17.83,17.83,0,0,1,8.6.52Z"/>
            <path class="cls-1" d="M135.91,14a47.82,47.82,0,0,0-14.64,10.26l-2.56-2.54a51.83,51.83,0,0,1,15.74-11Z"/>
            <path class="cls-1" d="M145.6,14.7a36.65,36.65,0,0,0-8.24,2.54,43.41,43.41,0,0,0-7.31,4.18L128,18.49a46.17,46.17,0,0,1,8-4.54,40.47,40.47,0,0,1,9-2.79Z"/>
            <path class="cls-1" d="M154.06,17.76a32.78,32.78,0,0,0-15.25,2.78l-1.45-3.3a36.57,36.57,0,0,1,16.92-3.08Z"/>
            <path class="cls-1" d="M160.68,22.61a28.61,28.61,0,0,0-13.78-.83l-.65-3.54a32.05,32.05,0,0,1,15.5.94Z"/>
          </g>
          <g>
            <path d="M184.42,15.76A52.25,52.25,0,0,0,166,5.43L167.1,2a55.8,55.8,0,0,1,19.66,11Z"/>
            <path d="M188.59,25A54.83,54.83,0,0,0,174.2,12.92L176,9.8a58.38,58.38,0,0,1,15.34,12.9Z"/>
            <path d="M190.84,34.13a58.61,58.61,0,0,0-11.1-12.9l2.34-2.73a62.22,62.22,0,0,1,11.79,13.68Z"/>
            <path d="M191.64,42.88A63.07,63.07,0,0,0,183.1,29.7l2.74-2.33a66.14,66.14,0,0,1,9,13.92Z"/>
            <path d="M175.06,26.7a37.92,37.92,0,0,0-13.31-7.52l1.07-3.44A41.48,41.48,0,0,1,177.4,24Z"/>
            <path d="M177.62,34.37a40.59,40.59,0,0,0-10.58-9l1.79-3.12A44,44,0,0,1,180.36,32Z"/>
            <path d="M178.74,41.92a45.13,45.13,0,0,0-8.36-9.75l2.34-2.73a47.91,47.91,0,0,1,9,10.53Z"/>
            <path d="M178.71,49.21A48.69,48.69,0,0,0,172.14,39l2.74-2.33a52,52,0,0,1,7.06,10.92Z"/>
            <path d="M165.69,37.64a23.58,23.58,0,0,0-8.22-4.72l1.07-3.43a27.08,27.08,0,0,1,9.5,5.42Z"/>
            <path d="M166.66,43.71a26,26,0,0,0-6.78-5.8l1.79-3.13a29.81,29.81,0,0,1,7.73,6.6Z"/>
            <path d="M166.63,49.72A30.45,30.45,0,0,0,161,43.11l2.34-2.73a33.52,33.52,0,0,1,6.31,7.39Z"/>
            <path d="M165.78,55.55a34.56,34.56,0,0,0-4.6-7.17l2.74-2.33A37.82,37.82,0,0,1,169,54Z"/>
            <path class="cls-1" d="M170.38,32.17a30.85,30.85,0,0,0-10.77-6.12l1.07-3.44a34.41,34.41,0,0,1,12,6.83Z"/>
            <path class="cls-1" d="M172.14,39a33.5,33.5,0,0,0-8.68-7.38l1.79-3.12a36.69,36.69,0,0,1,9.63,8.17Z"/>
            <path class="cls-1" d="M172.68,45.82a37.14,37.14,0,0,0-7-8.18L168,34.91a41.2,41.2,0,0,1,7.67,9Z"/>
            <path class="cls-1" d="M172.24,52.38a41.2,41.2,0,0,0-5.58-8.67l2.74-2.33a45.3,45.3,0,0,1,6.08,9.42Z"/>
            <path class="cls-1" d="M179.74,21.23a45.17,45.17,0,0,0-15.85-8.93L165,8.86a48.82,48.82,0,0,1,17.12,9.64Z"/>
            <path class="cls-1" d="M183.1,29.7a47.68,47.68,0,0,0-12.48-10.53L172.41,16a51.26,51.26,0,0,1,13.43,11.33Z"/>
            <path class="cls-1" d="M184.79,38a51.8,51.8,0,0,0-9.73-11.32L177.4,24a55.26,55.26,0,0,1,10.42,12.11Z"/>
            <path class="cls-1" d="M185.17,46a56.16,56.16,0,0,0-7.55-11.67L180.36,32a59.47,59.47,0,0,1,8,12.42Z"/>
          </g>
          <g>
            <path d="M207.4,54.54a87.46,87.46,0,0,0-6.06-16.42l3.23-1.58a91.18,91.18,0,0,1,6.31,17.09Z"/>
            <path d="M205.64,63.52a89.55,89.55,0,0,0-4.21-16l3.38-1.24a93.14,93.14,0,0,1,4.38,16.67Z"/>
            <path d="M203.07,71.94a89.65,89.65,0,0,0-2.64-15.58l3.49-.91a94.89,94.89,0,0,1,2.74,16.2Z"/>
            <path d="M199.8,79.79a91.86,91.86,0,0,0-1.26-15.07l3.55-.6a96.05,96.05,0,0,1,1.31,15.67Z"/>
            <path d="M193.47,58.19a73.28,73.28,0,0,0-5.06-13.73l3.23-1.58A76,76,0,0,1,197,57.28Z"/>
            <path d="M191.44,65.91a74.71,74.71,0,0,0-3.53-13.46l3.38-1.24a78.7,78.7,0,0,1,3.7,14.1Z"/>
            <path d="M188.72,73.12A76.25,76.25,0,0,0,186.5,60L190,59.1a79.72,79.72,0,0,1,2.31,13.73Z"/>
            <path d="M185.4,79.79a77.77,77.77,0,0,0-1.06-12.68l3.55-.6A81.88,81.88,0,0,1,189,79.79Z"/>
            <path d="M179.54,61.84a58.85,58.85,0,0,0-4.06-11l3.23-1.59A62.56,62.56,0,0,1,183,60.92Z"/>
            <path d="M177.24,68.3a61.34,61.34,0,0,0-2.85-10.89l3.38-1.24a64.59,64.59,0,0,1,3,11.54Z"/>
            <path d="M174.37,74.3a62.06,62.06,0,0,0-1.8-10.64l3.49-.91A64.63,64.63,0,0,1,178,74Z"/>
            <path d="M171,79.79a63.6,63.6,0,0,0-.86-10.29l3.55-.6a66.68,66.68,0,0,1,.91,10.89Z"/>
            <path class="cls-1" d="M186.5,60a65.58,65.58,0,0,0-4.56-12.38L185.17,46A69.86,69.86,0,0,1,190,59.1Z"/>
            <path class="cls-1" d="M184.34,67.11a68.59,68.59,0,0,0-3.19-12.18l3.38-1.24a71.34,71.34,0,0,1,3.36,12.82Z"/>
            <path class="cls-1" d="M181.54,73.71a68.13,68.13,0,0,0-2-11.87l3.48-.92a72.91,72.91,0,0,1,2.11,12.49Z"/>
            <path class="cls-1" d="M178.2,79.79a70.89,70.89,0,0,0-1-11.49l3.55-.59a73.58,73.58,0,0,1,1,12.08Z"/>
            <path class="cls-1" d="M200.43,56.36a80.46,80.46,0,0,0-5.56-15.07l3.24-1.58a84.62,84.62,0,0,1,5.81,15.74Z"/>
            <path class="cls-1" d="M198.54,64.72A82.18,82.18,0,0,0,194.67,50l3.38-1.24a86.4,86.4,0,0,1,4,15.39Z"/>
            <path class="cls-1" d="M195.89,72.53a83.11,83.11,0,0,0-2.42-14.34l3.48-.91a86.61,86.61,0,0,1,2.53,15Z"/>
            <path class="cls-1" d="M192.6,79.79a84.88,84.88,0,0,0-1.16-13.88l3.55-.6a89.07,89.07,0,0,1,1.21,14.48Z"/>
          </g>
        </g>
        <g>
          <g>
            <path d="M197.29,35.32a53.84,53.84,0,0,0-4.69,22H189a57.36,57.36,0,0,1,5-23.43Z"/>
            <path d="M205.86,27.67a50.51,50.51,0,0,0-8.56,19.15l-3.52-.74A53.83,53.83,0,0,1,203,25.56Z"/>
            <path d="M215.31,22.54a47,47,0,0,0-11.45,15.71l-3.28-1.46A50.53,50.53,0,0,1,212.9,19.86Z"/>
            <path d="M225,19.9a43.52,43.52,0,0,0-13.33,12l-2.91-2.12a47.2,47.2,0,0,1,14.44-13Z"/>
            <path d="M210.44,41.19A39.37,39.37,0,0,0,207,57.29h-3.6a42.93,42.93,0,0,1,3.75-17.57Z"/>
            <path d="M217.5,36.15a36,36,0,0,0-6.11,13.65l-3.52-.74a39.56,39.56,0,0,1,6.72-15Z"/>
            <path d="M225,33.24A32.45,32.45,0,0,0,217,44.12l-3.29-1.47a36.32,36.32,0,0,1,8.81-12.09Z"/>
            <path d="M232.22,32.36a29.28,29.28,0,0,0-8.89,8l-2.92-2.11a32.84,32.84,0,0,1,10-9Z"/>
            <path d="M223.59,47.05a25,25,0,0,0-2.19,10.24h-3.6a28.67,28.67,0,0,1,2.5-11.71Z"/>
            <path d="M229.15,44.62a21.59,21.59,0,0,0-3.67,8.16L222,52a25,25,0,0,1,4.28-9.54Z"/>
            <path d="M234.59,43.94a18.11,18.11,0,0,0-4.42,6l-3.29-1.46a21.81,21.81,0,0,1,5.3-7.26Z"/>
            <path d="M239.43,44.83a14.81,14.81,0,0,0-4.46,4l-2.91-2.12a18.35,18.35,0,0,1,5.57-5Z"/>
            <path class="cls-1" d="M217,44.12a32.07,32.07,0,0,0-2.82,13.17h-3.6a35.83,35.83,0,0,1,3.13-14.64Z"/>
            <path class="cls-1" d="M223.33,40.38a28.71,28.71,0,0,0-4.9,10.91l-3.52-.74a32.38,32.38,0,0,1,5.5-12.28Z"/>
            <path class="cls-1" d="M229.77,38.59a25.43,25.43,0,0,0-6.18,8.46l-3.29-1.47a29.2,29.2,0,0,1,7.06-9.67Z"/>
            <path class="cls-1" d="M235.83,38.6a21.86,21.86,0,0,0-6.68,6l-2.91-2.12a25.49,25.49,0,0,1,7.78-7Z"/>
            <path class="cls-1" d="M203.86,38.25a46.56,46.56,0,0,0-4.06,19h-3.6a50.09,50.09,0,0,1,4.38-20.5Z"/>
            <path class="cls-1" d="M211.68,31.91a43.09,43.09,0,0,0-7.33,16.4l-3.53-.74a46.69,46.69,0,0,1,8-17.78Z"/>
            <path class="cls-1" d="M220.13,27.89a39.88,39.88,0,0,0-9.69,13.3l-3.29-1.47a43.64,43.64,0,0,1,10.57-14.51Z"/>
            <path class="cls-1" d="M228.61,26.13a36.47,36.47,0,0,0-11.11,10L214.59,34a40,40,0,0,1,12.22-11Z"/>
          </g>
          <g>
            <path d="M241,3.58a53.84,53.84,0,0,0-21.38,7l-1.8-3.11A57.45,57.45,0,0,1,240.6,0Z"/>
            <path d="M251.85,7.16A50.25,50.25,0,0,0,231,9.36l-1.11-3.42a53.64,53.64,0,0,1,22.3-2.36Z"/>
            <path d="M261.06,12.78a46.84,46.84,0,0,0-19.34-2l-.37-3.58a50.25,50.25,0,0,1,20.82,2.2Z"/>
            <path d="M268.19,19.9a43.07,43.07,0,0,0-17.08-5.58l.37-3.58a46.66,46.66,0,0,1,18.51,6Z"/>
            <path d="M242.46,17.9A39.48,39.48,0,0,0,226.81,23L225,19.9a43.07,43.07,0,0,1,17.08-5.58Z"/>
            <path d="M250.36,21.48a35.73,35.73,0,0,0-14.88,1.58l-1.11-3.43a39.49,39.49,0,0,1,16.37-1.73Z"/>
            <path d="M256.61,26.48a32.33,32.33,0,0,0-13.4-1.42l-.37-3.58a35.73,35.73,0,0,1,14.88,1.58Z"/>
            <path d="M261,32.36a28.56,28.56,0,0,0-11.36-3.71l.37-3.59a32.34,32.34,0,0,1,12.79,4.19Z"/>
            <path d="M244,32.23A25,25,0,0,0,234,35.48l-1.8-3.12a28.56,28.56,0,0,1,11.36-3.71Z"/>
            <path d="M248.88,35.81a21.43,21.43,0,0,0-8.95.94l-1.12-3.42a25.05,25.05,0,0,1,10.44-1.1Z"/>
            <path d="M252.16,40.18a17.68,17.68,0,0,0-7.46-.79l-.38-3.58a21.43,21.43,0,0,1,9,.94Z"/>
            <path d="M253.77,44.83A14.19,14.19,0,0,0,248.13,43l.37-3.58a17.83,17.83,0,0,1,7.07,2.32Z"/>
            <path class="cls-1" d="M243.21,25.06a32.34,32.34,0,0,0-12.79,4.19l-1.81-3.12a36.08,36.08,0,0,1,14.23-4.65Z"/>
            <path class="cls-1" d="M249.62,28.65A28.62,28.62,0,0,0,237.7,29.9l-1.11-3.42A32.33,32.33,0,0,1,250,25.06Z"/>
            <path class="cls-1" d="M254.39,33.33A25.05,25.05,0,0,0,244,32.23l-.37-3.58A28.62,28.62,0,0,1,255.5,29.9Z"/>
            <path class="cls-1" d="M257.37,38.6a21.28,21.28,0,0,0-8.49-2.79l.37-3.58a25,25,0,0,1,9.93,3.25Z"/>
            <path class="cls-1" d="M241.72,10.74a46.66,46.66,0,0,0-18.51,6l-1.81-3.11a50.2,50.2,0,0,1,19.95-6.51Z"/>
            <path class="cls-1" d="M251.11,14.32a43.05,43.05,0,0,0-17.85,1.89l-1.12-3.43a46.84,46.84,0,0,1,19.34-2Z"/>
            <path class="cls-1" d="M258.83,19.63a39.49,39.49,0,0,0-16.37-1.73l-.37-3.58a43.05,43.05,0,0,1,17.85,1.89Z"/>
            <path class="cls-1" d="M264.59,26.13a36.08,36.08,0,0,0-14.23-4.65l.38-3.58A39.53,39.53,0,0,1,266.39,23Z"/>
          </g>
          <g>
            <path d="M290.25,25.56a54.36,54.36,0,0,0-16.65-15l1.8-3.11a58,58,0,0,1,17.76,16Z"/>
            <path d="M292.62,36.79A50.53,50.53,0,0,0,280.3,19.86l2.41-2.67a54.25,54.25,0,0,1,13.2,18.13Z"/>
            <path d="M292.38,47.57a46.69,46.69,0,0,0-7.95-17.78l2.91-2.12a50.51,50.51,0,0,1,8.56,19.15Z"/>
            <path d="M289.8,57.29a43.1,43.1,0,0,0-3.75-17.57l3.29-1.47a46.56,46.56,0,0,1,4.06,19Z"/>
            <path d="M278.61,34a40,40,0,0,0-12.22-11l1.8-3.12a43.52,43.52,0,0,1,13.33,12Z"/>
            <path d="M279.47,42.65a36.32,36.32,0,0,0-8.81-12.09l2.41-2.67a39.88,39.88,0,0,1,9.69,13.3Z"/>
            <path d="M278.29,50.55a32.38,32.38,0,0,0-5.5-12.28l2.91-2.12a36,36,0,0,1,6.11,13.65Z"/>
            <path d="M275.4,57.29a28.67,28.67,0,0,0-2.5-11.71l3.28-1.46A32.07,32.07,0,0,1,279,57.29Z"/>
            <path d="M267,42.5a25.6,25.6,0,0,0-7.78-7l1.8-3.12a29.28,29.28,0,0,1,8.89,8Z"/>
            <path d="M266.32,48.52a21.81,21.81,0,0,0-5.3-7.26l2.41-2.67a25.43,25.43,0,0,1,6.18,8.46Z"/>
            <path d="M264.2,53.53a17.91,17.91,0,0,0-3.06-6.79l2.91-2.12a21.59,21.59,0,0,1,3.67,8.16Z"/>
            <path d="M261,57.29a14.05,14.05,0,0,0-1.26-5.84L263,50a17.65,17.65,0,0,1,1.57,7.31Z"/>
            <path class="cls-1" d="M272.79,38.27a32.84,32.84,0,0,0-10-9l1.81-3.12a36.47,36.47,0,0,1,11.11,10Z"/>
            <path class="cls-1" d="M272.9,45.58a29.2,29.2,0,0,0-7.06-9.67l2.41-2.67a32.45,32.45,0,0,1,7.93,10.88Z"/>
            <path class="cls-1" d="M271.24,52A25,25,0,0,0,267,42.5l2.91-2.12a28.71,28.71,0,0,1,4.9,10.91Z"/>
            <path class="cls-1" d="M268.2,57.29a21.32,21.32,0,0,0-1.88-8.77l3.29-1.47a25,25,0,0,1,2.19,10.24Z"/>
            <path class="cls-1" d="M284.43,29.79a47.2,47.2,0,0,0-14.44-13l1.81-3.11a50.9,50.9,0,0,1,15.54,14Z"/>
            <path class="cls-1" d="M286.05,39.72a43.64,43.64,0,0,0-10.57-14.51l2.41-2.67a47,47,0,0,1,11.45,15.71Z"/>
            <path class="cls-1" d="M285.33,49.06a39.56,39.56,0,0,0-6.72-15l2.91-2.12a43.09,43.09,0,0,1,7.33,16.4Z"/>
            <path class="cls-1" d="M282.6,57.29a35.83,35.83,0,0,0-3.13-14.64l3.29-1.46a39.37,39.37,0,0,1,3.44,16.1Z"/>
          </g>
        </g>
        <g>
          <g>
            <rect x="274.56" y="83.89" width="15.27" height="3.6" transform="translate(22.07 224.64) rotate(-45)"/>
            <rect x="266.62" y="86.74" width="15.27" height="3.6" transform="translate(17.72 219.86) rotate(-45)"/>
            <rect x="258.67" y="89.6" width="15.27" height="3.6" transform="translate(13.37 215.08) rotate(-45)"/>
            <rect x="250.73" y="92.45" width="15.27" height="3.6" transform="translate(9.03 210.3) rotate(-45)"/>
            <rect x="264.38" y="73.7" width="15.27" height="3.6" transform="translate(26.28 214.46) rotate(-45)"/>
            <rect x="256.44" y="76.56" width="15.27" height="3.6" transform="translate(21.94 209.68) rotate(-45)"/>
            <rect x="248.49" y="79.41" width="15.27" height="3.6" transform="translate(17.59 204.9) rotate(-45)"/>
            <rect x="240.54" y="82.27" width="15.27" height="3.6" transform="translate(13.24 200.11) rotate(-45)"/>
            <rect x="254.2" y="63.52" width="15.27" height="3.6" transform="translate(30.5 204.28) rotate(-45)"/>
            <rect x="246.25" y="66.38" width="15.27" height="3.6" transform="translate(26.15 199.5) rotate(-45)"/>
            <rect x="238.31" y="69.23" width="15.27" height="3.6" transform="translate(21.81 194.71) rotate(-45)"/>
            <rect x="230.36" y="72.09" width="15.27" height="3.6" transform="translate(17.46 189.93) rotate(-45)"/>
            <rect class="cls-1" x="259.29" y="68.61" width="15.27" height="3.6" transform="translate(28.39 209.37) rotate(-45)"/>
            <rect class="cls-1" x="251.34" y="71.47" width="15.27" height="3.6" transform="translate(24.05 204.59) rotate(-45)"/>
            <rect class="cls-1" x="243.4" y="74.32" width="15.27" height="3.6" transform="translate(19.7 199.8) rotate(-45)"/>
            <rect class="cls-1" x="235.45" y="77.18" width="15.27" height="3.6" transform="translate(15.35 195.02) rotate(-45)"/>
            <rect class="cls-1" x="269.47" y="78.8" width="15.27" height="3.6" transform="translate(24.18 219.55) rotate(-45)"/>
            <rect class="cls-1" x="261.53" y="81.65" width="15.27" height="3.6" transform="translate(19.83 214.77) rotate(-45)"/>
            <rect class="cls-1" x="253.58" y="84.5" width="15.27" height="3.6" transform="translate(15.48 209.99) rotate(-45)"/>
            <rect class="cls-1" x="245.64" y="87.36" width="15.27" height="3.6" transform="translate(11.14 205.2) rotate(-45)"/>
          </g>
          <g>
            <rect x="247.56" y="110.89" width="15.27" height="3.6" transform="translate(-4.93 213.46) rotate(-45)"/>
            <rect x="239.62" y="113.74" width="15.27" height="3.6" transform="translate(-9.28 208.68) rotate(-45)"/>
            <rect x="231.67" y="116.6" width="15.27" height="3.6" transform="translate(-13.63 203.89) rotate(-45)"/>
            <rect x="223.73" y="119.45" width="15.27" height="3.6" transform="translate(-17.97 199.11) rotate(-45)"/>
            <rect x="237.38" y="100.7" width="15.27" height="3.6" transform="translate(-0.72 203.27) rotate(-45)"/>
            <rect x="229.44" y="103.56" width="15.27" height="3.6" transform="translate(-5.06 198.49) rotate(-45)"/>
            <rect x="221.49" y="106.41" width="15.27" height="3.6" transform="translate(-9.41 193.71) rotate(-45)"/>
            <rect x="213.54" y="109.27" width="15.27" height="3.6" transform="translate(-13.75 188.93) rotate(-45)"/>
            <rect x="227.2" y="90.52" width="15.27" height="3.6" transform="translate(3.5 193.09) rotate(-45)"/>
            <rect x="219.25" y="93.38" width="15.27" height="3.6" transform="translate(-0.85 188.31) rotate(-45)"/>
            <rect x="211.31" y="96.23" width="15.27" height="3.6" transform="translate(-5.19 183.53) rotate(-45)"/>
            <rect x="203.36" y="99.09" width="15.27" height="3.6" transform="translate(-9.54 178.75) rotate(-45)"/>
            <rect class="cls-1" x="232.29" y="95.61" width="15.27" height="3.6" transform="translate(1.39 198.19) rotate(-45)"/>
            <rect class="cls-1" x="224.34" y="98.47" width="15.27" height="3.6" transform="translate(-2.95 193.41) rotate(-45)"/>
            <rect class="cls-1" x="216.4" y="101.32" width="15.27" height="3.6" transform="translate(-7.3 188.62) rotate(-45)"/>
            <rect class="cls-1" x="208.45" y="104.18" width="15.27" height="3.6" transform="translate(-11.65 183.84) rotate(-45)"/>
            <rect class="cls-1" x="242.47" y="105.8" width="15.27" height="3.6" transform="translate(-2.82 208.37) rotate(-45)"/>
            <rect class="cls-1" x="234.53" y="108.65" width="15.27" height="3.6" transform="translate(-7.17 203.59) rotate(-45)"/>
            <rect class="cls-1" x="226.58" y="111.5" width="15.27" height="3.6" transform="translate(-11.52 198.8) rotate(-45)"/>
            <rect class="cls-1" x="218.64" y="114.36" width="15.27" height="3.6" transform="translate(-15.86 194.02) rotate(-45)"/>
          </g>
        </g>
        <g>
          <g>
            <rect x="201.6" y="116.69" width="18" height="3.6"/>
            <rect x="210.6" y="120.29" width="18" height="3.6"/>
            <rect x="219.6" y="123.89" width="18" height="3.6"/>
            <rect x="228.6" y="127.49" width="18" height="3.6"/>
            <rect x="201.6" y="131.09" width="18" height="3.6"/>
            <rect x="210.6" y="134.69" width="18" height="3.6"/>
            <rect x="219.6" y="138.29" width="18" height="3.6"/>
            <rect x="228.6" y="141.89" width="18" height="3.6"/>
            <rect x="201.6" y="145.49" width="18" height="3.6"/>
            <rect x="210.6" y="149.09" width="18" height="3.6"/>
            <rect x="219.6" y="152.69" width="18" height="3.6"/>
            <rect x="228.6" y="156.29" width="18" height="3.6"/>
            <rect class="cls-1" x="201.6" y="138.29" width="18" height="3.6"/>
            <rect class="cls-1" x="210.6" y="141.89" width="18" height="3.6"/>
            <rect class="cls-1" x="219.6" y="145.49" width="18" height="3.6"/>
            <rect class="cls-1" x="228.6" y="149.09" width="18" height="3.6"/>
            <rect class="cls-1" x="201.6" y="123.89" width="18" height="3.6"/>
            <rect class="cls-1" x="210.6" y="127.49" width="18" height="3.6"/>
            <rect class="cls-1" x="219.6" y="131.09" width="18" height="3.6"/>
            <rect class="cls-1" x="228.6" y="134.69" width="18" height="3.6"/>
          </g>
          <g>
            <rect x="246.6" y="116.69" width="18" height="3.6"/>
            <rect x="255.6" y="120.29" width="18" height="3.6"/>
            <rect x="264.6" y="123.89" width="18" height="3.6"/>
            <rect x="273.6" y="127.49" width="18" height="3.6"/>
            <rect x="246.6" y="131.09" width="18" height="3.6"/>
            <rect x="255.6" y="134.69" width="18" height="3.6"/>
            <rect x="264.6" y="138.29" width="18" height="3.6"/>
            <rect x="273.6" y="141.89" width="18" height="3.6"/>
            <rect x="246.6" y="145.49" width="18" height="3.6"/>
            <rect x="255.6" y="149.09" width="18" height="3.6"/>
            <rect x="264.6" y="152.69" width="18" height="3.6"/>
            <rect x="273.6" y="156.29" width="18" height="3.6"/>
            <rect class="cls-1" x="246.6" y="138.29" width="18" height="3.6"/>
            <rect class="cls-1" x="255.6" y="141.89" width="18" height="3.6"/>
            <rect class="cls-1" x="264.6" y="145.49" width="18" height="3.6"/>
            <rect class="cls-1" x="273.6" y="149.09" width="18" height="3.6"/>
            <rect class="cls-1" x="246.6" y="123.89" width="18" height="3.6"/>
            <rect class="cls-1" x="255.6" y="127.49" width="18" height="3.6"/>
            <rect class="cls-1" x="264.6" y="131.09" width="18" height="3.6"/>
            <rect class="cls-1" x="273.6" y="134.69" width="18" height="3.6"/>
          </g>
        </g>
      </g>
    </g>
  </g>
</svg>
