<svg xmlns="http://www.w3.org/2000/svg" viewBox="0 0 427.56 157.03">
  <defs>
    <style>
      .cls-1, .cls-2 {
        fill: none;
      }

      .cls-1 {
        stroke: #231f20;
        stroke-miterlimit: 10;
        stroke-width: 3.5px;
      }
    </style>
  </defs>
  <g id="Layer_2" data-name="Layer 2">
    <g id="Layer_5" data-name="Layer 5">
      <g>
        <g>
          <path class="cls-1" d="M13.27,43.14c.23,0,.09.35,0,1a12.39,12.39,0,0,0-.3,2.7,29.46,29.46,0,0,0,.4,4,21.08,21.08,0,0,1,.31,4.91,23.35,23.35,0,0,1,1.18-4.91,20.67,20.67,0,0,1,.66-2.14c.23-.67.41-1.29.55-1.86.55-2.28,0-3.69.39-3.69"/>
          <path class="cls-1" d="M16.41,43.14v0c0-.39.39-.48,1.12-.88a.94.94,0,0,0,.29-.19l.42-.51q.43-.49.9-.93a7.93,7.93,0,0,1,2-1.44c2.93-1.58,6.38-1.18,9.41.38a12.57,12.57,0,0,1-4-3,9.33,9.33,0,0,1-2-4.39A10.62,10.62,0,0,1,29,22.31"/>
          <path class="cls-1" d="M29,22.31a10.54,10.54,0,0,1,10.64-1.5c3.09,1.44,4.85,4.33,5.45,7.78a12.18,12.18,0,0,1,0-5,9.79,9.79,0,0,1,.84-2.3,9.23,9.23,0,0,1,1.45-1.95,9.93,9.93,0,0,1,4.55-2.61,14.11,14.11,0,0,1,2.88-.32,11.91,11.91,0,0,1,3,.46"/>
          <path class="cls-1" d="M57.81,16.91a11.22,11.22,0,0,1,5.08,3,9.62,9.62,0,0,1,.9,1,12.89,12.89,0,0,1,.71,1.16,9.52,9.52,0,0,1,.9,2.39,8.94,8.94,0,0,1-.31,4.82,12.31,12.31,0,0,1-2.63,4.24,12.27,12.27,0,0,1,4-3,9.15,9.15,0,0,1,4.77-.73,9.83,9.83,0,0,1,2.46.68,9.72,9.72,0,0,1,1.21.6,13.59,13.59,0,0,1,1.12.8A9.53,9.53,0,0,1,78,34a10.37,10.37,0,0,1,1.47,2.68"/>
          <path class="cls-1" d="M79.48,36.7A10.48,10.48,0,0,1,78,47.35,8.6,8.6,0,0,1,74,50a12.14,12.14,0,0,1-5,.45c3.44.29,6.58,1.8,8.24,4.74a10.53,10.53,0,0,1-.5,10.73"/>
          <path class="cls-1" d="M76.76,65.93a11.93,11.93,0,0,1-1.94,2.38,12.21,12.21,0,0,1-1.22,1,11.79,11.79,0,0,1-1.11.59,13.51,13.51,0,0,1-4.77,1.19A12.81,12.81,0,0,1,58.5,68a12.3,12.3,0,0,1,.84,17.67"/>
          <path class="cls-1" d="M59.34,85.64a12.93,12.93,0,0,1-18,1,12.39,12.39,0,0,1,.78,17.73"/>
          <path class="cls-1" d="M42.08,104.35a12.83,12.83,0,0,1-18,.92,12.5,12.5,0,0,1,.72,17.8"/>
          <path class="cls-1" d="M24.82,123.07a12.7,12.7,0,0,1-17.92.84,12.61,12.61,0,0,1,.67,17.87"/>
          <path class="cls-1" d="M7.26,134.12c1.42,1.31-1.26,6.52-6,11.63,4.71-5.11,9.69-8.2,11.11-6.89"/>
          <path class="cls-1" d="M3.3,142.85c0-1.93,5.64-3.5,12.6-3.5-7,0-12.6-1.57-12.6-3.5"/>
          <path class="cls-1" d="M8.72,130.42c4.42,0,8,5.65,8,12.6a17,17,0,0,1,2.34-8.91,9.54,9.54,0,0,1,2.52-2.7c.37-.63.49-1,.75-1"/>
          <path class="cls-1" d="M22.32,130.42a1,1,0,0,1,.58-.24l.21,0s.1,0,.2-.1l.25-.14a9.66,9.66,0,0,1,1.07-.53,12.1,12.1,0,0,1,4.59-1,12.86,12.86,0,0,1,9,3.43,12.33,12.33,0,0,1-1.09-17.41"/>
          <path class="cls-1" d="M37.09,114.41a12.43,12.43,0,0,1,17.5-.38,12.28,12.28,0,0,1-1.13-17.38"/>
          <path class="cls-1" d="M53.46,96.65A12.49,12.49,0,0,1,71,96.23,12.21,12.21,0,0,1,69.84,78.9"/>
          <path class="cls-1" d="M69.84,78.9a11.91,11.91,0,0,1,8.53-3.81,13.47,13.47,0,0,1,2.38.15,15.6,15.6,0,0,1,2.38.46,13,13,0,0,1,4.53,2.15,15.25,15.25,0,0,1-5.19-8.15,14,14,0,0,1,.15-8.62"/>
          <path class="cls-1" d="M82.62,61.08a14,14,0,0,1,5.49-6.64,15.3,15.3,0,0,1,9.25-2.81,15.48,15.48,0,0,1-8.85-4,15.25,15.25,0,0,1-2.92-3.36,10.19,10.19,0,0,1-1-1.88,9.06,9.06,0,0,1-.34-1c-.1-.34-.24-.68-.32-1"/>
          <path class="cls-1" d="M83.9,40.41a13.22,13.22,0,0,1-.23-4.25A12.22,12.22,0,0,1,84.12,34a19.3,19.3,0,0,1,.71-2.15,16.66,16.66,0,0,1,2.44-4.15A13,13,0,0,1,91,24.4,15.06,15.06,0,0,1,81.47,26a14.52,14.52,0,0,1-4.29-1.2,10.14,10.14,0,0,1-1.91-1,10.46,10.46,0,0,1-.84-.65c-.27-.23-.57-.44-.83-.69"/>
          <path class="cls-1" d="M73.6,22.44a8.63,8.63,0,0,1-1.4-1.62A16.1,16.1,0,0,1,71.07,19,13,13,0,0,1,70.26,17a15.4,15.4,0,0,1-.59-2.17,17,17,0,0,1-.23-4.8,12.83,12.83,0,0,1,1.32-4.81A13.33,13.33,0,0,1,67.63,9.1a17.37,17.37,0,0,1-1.93,1.45c-.66.41-1.35.78-2.06,1.14a14.63,14.63,0,0,1-4.24,1.36,9.19,9.19,0,0,1-2.14.21,9.26,9.26,0,0,1-1-.07c-.35,0-.72,0-1.07-.11"/>
          <path class="cls-1" d="M55.14,13.08a13.35,13.35,0,0,1-4-1.47,17.91,17.91,0,0,1-3.5-2.77A15.34,15.34,0,0,1,43.24.21,14.86,14.86,0,0,1,40.9,9.57a13.84,13.84,0,0,1-2.79,3.5,14.38,14.38,0,0,1-1.66,1.35,10.61,10.61,0,0,1-1.89,1"/>
          <path class="cls-1" d="M34.56,15.41a8.61,8.61,0,0,1-2,.69c-.7.14-1.42.21-2.12.3a12.37,12.37,0,0,1-2.19,0c-.76-.08-1.52-.21-2.26-.35a15.18,15.18,0,0,1-8.42-4.77,14.94,14.94,0,0,1,3.21,9.11,13.74,13.74,0,0,1-.41,4.45,14,14,0,0,1-.64,2.05,14.3,14.3,0,0,1-1,1.87"/>
          <path class="cls-1" d="M18.67,28.73A13.79,13.79,0,0,1,11.82,34a15.3,15.3,0,0,1-9.66.63,15.25,15.25,0,0,1,7.69,5.81,9.82,9.82,0,0,0,2.43,1.94c.63.34,1,.41,1,.81"/>
        </g>
        <g>
          <path class="cls-1" d="M14.15,142.85c0,1.93-5.64,3.5-12.6,3.5,7,0,12.6,1.57,12.6,3.5"/>
          <path class="cls-1" d="M8.72,144.42c7.56,0,13.69,5.65,13.69,12.6,0-7,6.13-12.6,13.69-12.6"/>
          <path class="cls-1" d="M36.1,144.42c7.57,0,13.69,5.65,13.69,12.6,0-7,6.13-12.6,13.7-12.6"/>
          <path class="cls-1" d="M63.49,144.42c7.56,0,13.69,5.65,13.69,12.6a12.1,12.1,0,0,1,4-8.91,13.24,13.24,0,0,1,2-1.53c.17-.12.41-.23.52-.33s.17-.21.26-.3.29-.38.41-.54c.47-.63.59-1,1-1"/>
          <path class="cls-1" d="M85.44,144.42c0-.23.35-.12,1,0a11.1,11.1,0,0,0,2.7,0,30.13,30.13,0,0,0,4-.87c.75-.18,1.54-.42,2.36-.54a23.3,23.3,0,0,1,2.54-.14,23.3,23.3,0,0,1-2.54-.14c-.82-.12-1.61-.36-2.36-.54a30.13,30.13,0,0,0-4-.87,11.74,11.74,0,0,0-2.7,0c-.64.08-1,.19-1,0"/>
          <path class="cls-1" d="M85.44,141.27c-.7,0-.24-1.41-2.37-3.69a13.49,13.49,0,0,1-3.23-8.91c0,7-4.94,12.6-11,12.6"/>
          <path class="cls-1" d="M68.81,141.27c-6.09,0-11-5.64-11-12.6,0,7-4.93,12.6-11,12.6"/>
          <path class="cls-1" d="M46.76,141.27c-6.09,0-11-5.64-11-12.6a13.54,13.54,0,0,1-3.23,8.91,11,11,0,0,1-3.51,2.7,9,9,0,0,1-1,.43l-.13,0,0,.05-.08.08-.14.14a.73.73,0,0,1-.51.25"/>
          <path class="cls-1" d="M27.08,141.27c-.18.2-.52,0-1.24-.11a9.31,9.31,0,0,1-3.69,0A16.92,16.92,0,0,1,14,136.86c5.12,4.72,6.84,11.17,3.85,14.41"/>
          <path class="cls-1" d="M10.19,151.58c-1.42-1.31,1.25-6.52,6-11.63-4.72,5.11-9.69,8.2-11.11,6.89"/>
        </g>
        <g>
          <path class="cls-2" d="M156.8,7.05c-29.06,0-46.41,26.69-46.41,71.4s17.35,71.4,46.41,71.4,46.41-26.69,46.41-71.4S185.86,7.05,156.8,7.05Zm0,128.8c-9.74,0-32.41-5.59-32.41-57.4s22.67-57.4,32.41-57.4,32.41,5.59,32.41,57.4S166.55,135.85,156.8,135.85Z"/>
          <g>
            <path class="cls-1" d="M156.8,141.27a10,10,0,0,1-9.05-5.22c-1.51-3-1-6.37.58-9.42a12.68,12.68,0,0,1-3,3.93,8.76,8.76,0,0,1-4.33,2,10.27,10.27,0,0,1-9.48-4.05"/>
            <path class="cls-1" d="M131.5,128.5a10.5,10.5,0,0,1-1.77-10,11.31,11.31,0,0,1,6.82-6.65,11.46,11.46,0,0,1-9.53-.21,11.22,11.22,0,0,1-5.83-7.84"/>
            <path class="cls-1" d="M121.19,103.83a11.38,11.38,0,0,1,2.3-9.41A12.09,12.09,0,0,1,132,90.08a12.21,12.21,0,0,1-9.14-2.9A12,12,0,0,1,120,83.33,12.34,12.34,0,0,1,119,78.45"/>
            <path class="cls-1" d="M119,78.45A12.34,12.34,0,0,1,120,73.57a12.11,12.11,0,0,1,2.86-3.86A12.24,12.24,0,0,1,132,66.82a12.09,12.09,0,0,1-8.54-4.34,11.38,11.38,0,0,1-2.3-9.41"/>
            <path class="cls-1" d="M121.19,53.07A11.22,11.22,0,0,1,127,45.23a11.46,11.46,0,0,1,9.53-.21,11.32,11.32,0,0,1-6.82-6.66,10.48,10.48,0,0,1,1.77-10"/>
            <path class="cls-1" d="M131.5,28.4A10.3,10.3,0,0,1,141,24.34a8.77,8.77,0,0,1,4.33,2,12.68,12.68,0,0,1,3,3.93c-1.62-3.05-2.09-6.45-.58-9.42a10.06,10.06,0,0,1,9.05-5.23"/>
            <path class="cls-1" d="M156.8,15.62a10.07,10.07,0,0,1,9.06,5.23c1.51,3,1,6.37-.58,9.42a12.53,12.53,0,0,1,3-3.93,8.73,8.73,0,0,1,4.33-2,10.29,10.29,0,0,1,9.47,4.06"/>
            <path class="cls-1" d="M182.1,28.4a10.46,10.46,0,0,1,1.77,10A11.28,11.28,0,0,1,177.06,45a11.44,11.44,0,0,1,9.52.21,11.23,11.23,0,0,1,5.84,7.84"/>
            <path class="cls-1" d="M192.42,53.07a11.35,11.35,0,0,1-2.31,9.41,12.09,12.09,0,0,1-8.53,4.34,12.22,12.22,0,0,1,9.13,2.89,12,12,0,0,1,2.87,3.86,12.51,12.51,0,0,1,1.06,4.88"/>
            <path class="cls-1" d="M194.64,78.45a12.51,12.51,0,0,1-1.06,4.88,11.84,11.84,0,0,1-2.87,3.85,12.18,12.18,0,0,1-9.13,2.9,12.09,12.09,0,0,1,8.53,4.34,11.35,11.35,0,0,1,2.31,9.41"/>
            <path class="cls-1" d="M192.42,103.83a11.23,11.23,0,0,1-5.84,7.84,11.44,11.44,0,0,1-9.52.21,11.28,11.28,0,0,1,6.81,6.66,10.46,10.46,0,0,1-1.77,10"/>
            <path class="cls-1" d="M182.1,128.5a10.26,10.26,0,0,1-9.47,4.05,8.72,8.72,0,0,1-4.33-2,12.53,12.53,0,0,1-3-3.93c1.62,3.05,2.09,6.45.58,9.42a10,10,0,0,1-9.06,5.22"/>
          </g>
          <g>
            <path class="cls-1" d="M156.8,12.47a15.23,15.23,0,0,1-8.57-2.8,17.48,17.48,0,0,1-1.91-1.48,16.65,16.65,0,0,1-1.72-1.74,12.65,12.65,0,0,1-2.49-4.38,12.81,12.81,0,0,1,.47,5,18.9,18.9,0,0,1-1.11,4.72,16.19,16.19,0,0,1-5.18,7.24"/>
            <path class="cls-1" d="M136.29,19.05a15.72,15.72,0,0,1-8.46,3,17.24,17.24,0,0,1-4.84-.37,12.91,12.91,0,0,1-4.6-2,14.39,14.39,0,0,1,5.21,8.23A14.48,14.48,0,0,1,123,37"/>
            <path class="cls-1" d="M123,37a14.23,14.23,0,0,1-6.38,6.8,13.53,13.53,0,0,1-9.6,1.32,13.88,13.88,0,0,1,10,15"/>
            <path class="cls-1" d="M117,60.13a13.21,13.21,0,0,1-1.5,4.62,14.44,14.44,0,0,1-3,3.73,13.11,13.11,0,0,1-9.09,3.33,13.09,13.09,0,0,1,8.8,4A13.42,13.42,0,0,1,116,84.6"/>
            <path class="cls-1" d="M116,84.6a13.37,13.37,0,0,1-3.08,9,13.18,13.18,0,0,1-8.41,4.81,13.25,13.25,0,0,1,9.37,2.48,13.45,13.45,0,0,1,3.35,3.38,13.18,13.18,0,0,1,2,4.36"/>
            <path class="cls-1" d="M119.2,108.63a13.32,13.32,0,0,1,.31,4.77,14.42,14.42,0,0,1-1.29,4.55,13.81,13.81,0,0,1-6.82,6.91,14,14,0,0,1,9.71-.25,14.62,14.62,0,0,1,7.47,5.29"/>
            <path class="cls-1" d="M128.58,129.9a15.16,15.16,0,0,1,2.76,8.61,18.9,18.9,0,0,1-.51,4.83,12.79,12.79,0,0,1-2.13,4.57,12.89,12.89,0,0,1,3.81-3.3,18.75,18.75,0,0,1,4.5-1.83,16.17,16.17,0,0,1,8.89,0"/>
            <path class="cls-1" d="M145.9,142.81a15.84,15.84,0,0,1,7.32,5.14,17.08,17.08,0,0,1,2.53,4.14A12.59,12.59,0,0,1,156.8,157a12.77,12.77,0,0,1,1-4.93,17.4,17.4,0,0,1,2.53-4.14,15.89,15.89,0,0,1,7.32-5.14"/>
            <path class="cls-1" d="M167.7,142.81a16.21,16.21,0,0,1,8.9,0,18.85,18.85,0,0,1,4.49,1.83,12.92,12.92,0,0,1,3.82,3.3,12.76,12.76,0,0,1-2.13-4.58,18.35,18.35,0,0,1-.51-4.82A15.15,15.15,0,0,1,185,129.9"/>
            <path class="cls-1" d="M185,129.9a14.69,14.69,0,0,1,7.48-5.29,13.93,13.93,0,0,1,9.7.25,13.85,13.85,0,0,1-6.82-6.91,14.4,14.4,0,0,1-1.28-4.55,12.89,12.89,0,0,1,.31-4.77"/>
            <path class="cls-1" d="M194.41,108.63a13,13,0,0,1,2-4.36,13.45,13.45,0,0,1,3.35-3.38,13.23,13.23,0,0,1,9.37-2.48,13.16,13.16,0,0,1-8.41-4.81,13.34,13.34,0,0,1-3.08-9"/>
            <path class="cls-1" d="M197.66,84.6a13.32,13.32,0,0,1,3.79-8.76,13.09,13.09,0,0,1,8.8-4,13.09,13.09,0,0,1-9.09-3.33,14.24,14.24,0,0,1-3-3.73,13.44,13.44,0,0,1-1.51-4.62"/>
            <path class="cls-1" d="M196.65,60.13a13.9,13.9,0,0,1,10-15A13.56,13.56,0,0,1,197,43.84a14.21,14.21,0,0,1-6.37-6.8"/>
            <path class="cls-1" d="M190.64,37a14.55,14.55,0,0,1-.64-9.21,14.36,14.36,0,0,1,5.22-8.23,13,13,0,0,1-4.61,2,17.17,17.17,0,0,1-4.83.37,15.72,15.72,0,0,1-8.46-3"/>
            <path class="cls-1" d="M177.32,19.05a16,16,0,0,1-5.18-7.24A18.49,18.49,0,0,1,171,7.09a12.63,12.63,0,0,1,.48-5A12.83,12.83,0,0,1,169,6.45a14.89,14.89,0,0,1-1.72,1.74,16.57,16.57,0,0,1-1.91,1.48,15.18,15.18,0,0,1-8.57,2.8"/>
          </g>
        </g>
        <g>
          <path class="cls-1" d="M232.72,43.14c.23,0,.09.35-.05,1a12.39,12.39,0,0,0-.3,2.7,28.09,28.09,0,0,0,.41,4,21.65,21.65,0,0,1,.3,4.91,23.35,23.35,0,0,1,1.18-4.91,20.67,20.67,0,0,1,.66-2.14,18.54,18.54,0,0,0,.55-1.86c.55-2.28,0-3.69.4-3.69"/>
          <path class="cls-1" d="M235.87,43.14v0c0-.39.39-.48,1.12-.88a1,1,0,0,0,.3-.19,5.17,5.17,0,0,1,.42-.51,11.21,11.21,0,0,1,.89-.93,7.93,7.93,0,0,1,2-1.44c2.94-1.58,6.38-1.18,9.41.38a12.57,12.57,0,0,1-4-3,9.33,9.33,0,0,1-2-4.39,10.62,10.62,0,0,1,4.35-9.8"/>
          <path class="cls-1" d="M248.41,22.31a10.54,10.54,0,0,1,10.64-1.5c3.09,1.44,4.85,4.33,5.46,7.78a12,12,0,0,1,0-5,9.76,9.76,0,0,1,.83-2.3,9.28,9.28,0,0,1,1.46-1.95,9.85,9.85,0,0,1,4.54-2.61,14.11,14.11,0,0,1,2.88-.32,11.84,11.84,0,0,1,3,.46"/>
          <path class="cls-1" d="M277.26,16.91a11.22,11.22,0,0,1,5.08,3,11,11,0,0,1,.91,1,12.76,12.76,0,0,1,.7,1.16,9.15,9.15,0,0,1,.9,2.39,9,9,0,0,1-.3,4.82,12.34,12.34,0,0,1-2.64,4.24,12.48,12.48,0,0,1,4-3,9.16,9.16,0,0,1,4.77-.73,9.72,9.72,0,0,1,2.46.68,9.08,9.08,0,0,1,1.21.6,13.59,13.59,0,0,1,1.12.8,9.53,9.53,0,0,1,2,2.1,10.37,10.37,0,0,1,1.47,2.68"/>
          <path class="cls-1" d="M298.93,36.7a10.43,10.43,0,0,1-1.51,10.65,8.6,8.6,0,0,1-4,2.66,12.14,12.14,0,0,1-4.95.45c3.45.29,6.58,1.8,8.24,4.74a10.53,10.53,0,0,1-.5,10.73"/>
          <path class="cls-1" d="M296.21,65.93a11.93,11.93,0,0,1-1.94,2.38,13.9,13.9,0,0,1-1.22,1c-.36.21-.73.4-1.11.58a13.3,13.3,0,0,1-4.77,1.19A12.81,12.81,0,0,1,278,68a12.29,12.29,0,0,1,.84,17.67"/>
          <path class="cls-1" d="M278.79,85.64a12.93,12.93,0,0,1-18,1,12.39,12.39,0,0,1,.78,17.73"/>
          <path class="cls-1" d="M261.53,104.35a12.83,12.83,0,0,1-18,.92,12.5,12.5,0,0,1,.72,17.8"/>
          <path class="cls-1" d="M244.27,123.07a12.7,12.7,0,0,1-17.92.84,12.61,12.61,0,0,1,.67,17.87"/>
          <path class="cls-1" d="M226.71,134.12c1.42,1.31-1.26,6.52-6,11.63,4.71-5.11,9.69-8.2,11.11-6.89"/>
          <path class="cls-1" d="M222.75,142.85c0-1.93,5.64-3.5,12.6-3.5-7,0-12.6-1.57-12.6-3.5"/>
          <path class="cls-1" d="M228.17,130.42c4.42,0,8,5.65,8,12.6a17,17,0,0,1,2.34-8.91,9.54,9.54,0,0,1,2.52-2.7c.37-.63.49-1,.75-1"/>
          <path class="cls-1" d="M241.77,130.42a1,1,0,0,1,.58-.24l.21,0s.1,0,.2-.1l.25-.14a9.66,9.66,0,0,1,1.07-.53,12.1,12.1,0,0,1,4.59-1,12.86,12.86,0,0,1,9,3.43,12.33,12.33,0,0,1-1.09-17.41"/>
          <path class="cls-1" d="M256.54,114.41A12.43,12.43,0,0,1,274,114a12.28,12.28,0,0,1-1.12-17.38"/>
          <path class="cls-1" d="M272.92,96.65a12.48,12.48,0,0,1,17.52-.42,12.21,12.21,0,0,1-1.15-17.33"/>
          <path class="cls-1" d="M289.29,78.9a11.91,11.91,0,0,1,8.53-3.81,13.47,13.47,0,0,1,2.38.15,15.6,15.6,0,0,1,2.38.46,13.14,13.14,0,0,1,4.54,2.15,15.21,15.21,0,0,1-5.2-8.15,14,14,0,0,1,.15-8.62"/>
          <path class="cls-1" d="M302.07,61.08a14,14,0,0,1,5.49-6.64,15.3,15.3,0,0,1,9.25-2.81,15.51,15.51,0,0,1-8.85-4A15.25,15.25,0,0,1,305,44.32a10.81,10.81,0,0,1-1-1.88,9.06,9.06,0,0,1-.34-1c-.1-.34-.24-.68-.32-1"/>
          <path class="cls-1" d="M303.35,40.41a13.22,13.22,0,0,1-.23-4.25,12.22,12.22,0,0,1,.45-2.16,19.3,19.3,0,0,1,.71-2.15,17,17,0,0,1,2.44-4.15,13,13,0,0,1,3.73-3.3A15,15,0,0,1,300.93,26a14.5,14.5,0,0,1-4.3-1.2,8.92,8.92,0,0,1-2.75-1.64c-.27-.23-.57-.44-.83-.69"/>
          <path class="cls-1" d="M293.05,22.44a8.63,8.63,0,0,1-1.4-1.62A17.69,17.69,0,0,1,290.52,19a13,13,0,0,1-.81-2.06,16.88,16.88,0,0,1-.59-2.17,17.39,17.39,0,0,1-.23-4.8,12.83,12.83,0,0,1,1.32-4.81,13.33,13.33,0,0,1-3.13,3.93,15.69,15.69,0,0,1-1.93,1.45c-.66.41-1.35.78-2.06,1.14a14.54,14.54,0,0,1-4.24,1.36,9.76,9.76,0,0,1-2.13.22c-.36,0-.71,0-1.06-.08s-.71,0-1.07-.11"/>
          <path class="cls-1" d="M274.59,13.08a13.39,13.39,0,0,1-4-1.47,18,18,0,0,1-3.51-2.77A15.27,15.27,0,0,1,262.7.21a14.93,14.93,0,0,1-2.35,9.36,13.62,13.62,0,0,1-2.79,3.5,14.38,14.38,0,0,1-1.66,1.35,10.28,10.28,0,0,1-1.89,1"/>
          <path class="cls-1" d="M254,15.41a8.61,8.61,0,0,1-2,.69c-.7.14-1.42.21-2.11.3a12.49,12.49,0,0,1-2.2,0c-.76-.08-1.52-.21-2.25-.35A15.21,15.21,0,0,1,237,11.25a14.94,14.94,0,0,1,3.21,9.11,13.47,13.47,0,0,1-.41,4.45,14,14,0,0,1-.64,2.05,14.3,14.3,0,0,1-1,1.87"/>
          <path class="cls-1" d="M238.12,28.73A13.79,13.79,0,0,1,231.27,34a15.3,15.3,0,0,1-9.66.63,15.32,15.32,0,0,1,7.7,5.81,9.47,9.47,0,0,0,2.43,1.94c.62.34,1,.41,1,.81"/>
        </g>
        <g>
          <path class="cls-1" d="M233.6,142.85c0,1.93-5.64,3.5-12.6,3.5,7,0,12.6,1.57,12.6,3.5"/>
          <path class="cls-1" d="M228.17,144.42c7.57,0,13.69,5.65,13.69,12.6,0-7,6.13-12.6,13.7-12.6"/>
          <path class="cls-1" d="M255.56,144.42c7.56,0,13.69,5.65,13.69,12.6,0-7,6.13-12.6,13.69-12.6"/>
          <path class="cls-1" d="M282.94,144.42c7.56,0,13.69,5.65,13.69,12.6a12.1,12.1,0,0,1,4-8.91,13.24,13.24,0,0,1,2-1.53c.17-.12.41-.23.52-.33l.26-.3c.16-.2.29-.38.41-.54.47-.63.59-1,1-1"/>
          <path class="cls-1" d="M304.89,144.42c0-.23.36-.12,1,0a11.1,11.1,0,0,0,2.7,0,30.13,30.13,0,0,0,4-.87c.75-.18,1.54-.42,2.36-.54a23.3,23.3,0,0,1,2.54-.14,23.3,23.3,0,0,1-2.54-.14c-.82-.12-1.61-.36-2.36-.54a30.13,30.13,0,0,0-4-.87,11.74,11.74,0,0,0-2.7,0c-.63.08-1,.19-1,0"/>
          <path class="cls-1" d="M304.89,141.27c-.7,0-.24-1.41-2.37-3.69a13.49,13.49,0,0,1-3.23-8.91c0,7-4.94,12.6-11,12.6"/>
          <path class="cls-1" d="M288.26,141.27c-6.09,0-11-5.64-11-12.6,0,7-4.93,12.6-11,12.6"/>
          <path class="cls-1" d="M266.21,141.27c-6.09,0-11-5.64-11-12.6a13.54,13.54,0,0,1-3.23,8.91,11,11,0,0,1-3.51,2.7,9,9,0,0,1-1,.43l-.13,0,0,.05-.08.08L247,141a.73.73,0,0,1-.51.25"/>
          <path class="cls-1" d="M246.53,141.27c-.18.2-.52,0-1.24-.11a9.31,9.31,0,0,1-3.69,0,16.92,16.92,0,0,1-8.14-4.32c5.12,4.72,6.84,11.17,3.85,14.41"/>
          <path class="cls-1" d="M229.64,151.58c-1.42-1.31,1.25-6.52,6-11.63-4.72,5.11-9.69,8.2-11.11,6.89"/>
        </g>
        <g>
          <path class="cls-1" d="M342.79,43.14c.23,0,.08.35-.06,1a13.05,13.05,0,0,0-.3,2.7,29.63,29.63,0,0,0,.41,4,21.63,21.63,0,0,1,.31,4.91,23.35,23.35,0,0,1,1.17-4.91c.2-.75.42-1.47.67-2.14a18.32,18.32,0,0,0,.54-1.86c.56-2.28,0-3.69.4-3.69"/>
          <path class="cls-1" d="M345.93,43.14v0c0-.39.39-.48,1.12-.88a.94.94,0,0,0,.29-.19l.42-.51q.44-.49.9-.93a7.76,7.76,0,0,1,2-1.44c2.93-1.58,6.37-1.18,9.41.38a12.46,12.46,0,0,1-4-3,9.23,9.23,0,0,1-2-4.39,10.6,10.6,0,0,1,4.35-9.8"/>
          <path class="cls-1" d="M358.48,22.31a10.52,10.52,0,0,1,10.63-1.5c3.09,1.44,4.86,4.33,5.46,7.78a12.18,12.18,0,0,1,0-5,9.79,9.79,0,0,1,.84-2.3,9.23,9.23,0,0,1,1.45-1.95,9.88,9.88,0,0,1,4.55-2.61,14.11,14.11,0,0,1,2.88-.32,11.91,11.91,0,0,1,3,.46"/>
          <path class="cls-1" d="M387.33,16.91a11.27,11.27,0,0,1,5.08,3,10.88,10.88,0,0,1,.9,1,10.83,10.83,0,0,1,.7,1.16,8.81,8.81,0,0,1,.9,2.39,8.94,8.94,0,0,1-.3,4.82A12.31,12.31,0,0,1,392,33.58a12.27,12.27,0,0,1,4-3,9.15,9.15,0,0,1,4.77-.73,9.83,9.83,0,0,1,2.46.68,10.46,10.46,0,0,1,1.21.6,13.59,13.59,0,0,1,1.12.8,9.76,9.76,0,0,1,2,2.1A10.37,10.37,0,0,1,409,36.7"/>
          <path class="cls-1" d="M409,36.7a10.45,10.45,0,0,1-1.52,10.65,8.57,8.57,0,0,1-4,2.66,12.14,12.14,0,0,1-4.95.45c3.44.29,6.57,1.8,8.23,4.74a10.55,10.55,0,0,1-.49,10.73"/>
          <path class="cls-1" d="M406.28,65.93a12.25,12.25,0,0,1-3.16,3.4c-.36.22-.74.41-1.11.59a13.51,13.51,0,0,1-4.78,1.19A12.81,12.81,0,0,1,388,68a12.29,12.29,0,0,1,.83,17.67"/>
          <path class="cls-1" d="M388.85,85.64a12.92,12.92,0,0,1-18,1,12.39,12.39,0,0,1,.78,17.73"/>
          <path class="cls-1" d="M371.6,104.35a12.83,12.83,0,0,1-18,.92,12.5,12.5,0,0,1,.72,17.8"/>
          <path class="cls-1" d="M354.34,123.07a12.7,12.7,0,0,1-17.92.84,12.6,12.6,0,0,1,.66,17.87"/>
          <path class="cls-1" d="M336.77,134.12c1.42,1.31-1.25,6.52-6,11.63,4.72-5.11,9.7-8.2,11.12-6.89"/>
          <path class="cls-1" d="M332.82,142.85c0-1.93,5.64-3.5,12.6-3.5-7,0-12.6-1.57-12.6-3.5"/>
          <path class="cls-1" d="M338.24,130.42c4.41,0,8,5.65,8,12.6a16.87,16.87,0,0,1,2.34-8.91,9.27,9.27,0,0,1,2.52-2.7c.37-.63.49-1,.75-1"/>
          <path class="cls-1" d="M351.84,130.42a.94.94,0,0,1,.58-.24l.21,0s.1,0,.19-.1l.26-.14a8.86,8.86,0,0,1,1.07-.53,12.1,12.1,0,0,1,4.59-1,12.87,12.87,0,0,1,9,3.43,12.32,12.32,0,0,1-1.09-17.41"/>
          <path class="cls-1" d="M366.61,114.41A12.42,12.42,0,0,1,384.1,114,12.28,12.28,0,0,1,383,96.65"/>
          <path class="cls-1" d="M383,96.65a12.49,12.49,0,0,1,17.53-.42,12.21,12.21,0,0,1-1.15-17.33"/>
          <path class="cls-1" d="M399.36,78.9a11.89,11.89,0,0,1,8.53-3.81,13.47,13.47,0,0,1,2.38.15,15.48,15.48,0,0,1,2.37.46,13.06,13.06,0,0,1,4.54,2.15A15.19,15.19,0,0,1,412,69.7a14,14,0,0,1,.15-8.62"/>
          <path class="cls-1" d="M412.14,61.08a14,14,0,0,1,5.49-6.64,15.25,15.25,0,0,1,9.25-2.81,15.48,15.48,0,0,1-8.85-4,15,15,0,0,1-2.92-3.36,10.19,10.19,0,0,1-1-1.88,7.36,7.36,0,0,1-.34-1c-.1-.34-.24-.68-.32-1"/>
          <path class="cls-1" d="M413.42,40.41a13.22,13.22,0,0,1-.23-4.25,12.22,12.22,0,0,1,.45-2.16,21.54,21.54,0,0,1,.7-2.15,17,17,0,0,1,2.44-4.15,13.13,13.13,0,0,1,3.74-3.3A15.06,15.06,0,0,1,411,26a14.59,14.59,0,0,1-4.3-1.2A9,9,0,0,1,404,23.13c-.27-.23-.57-.44-.83-.69"/>
          <path class="cls-1" d="M403.12,22.44a8.68,8.68,0,0,1-1.41-1.62A17.61,17.61,0,0,1,400.59,19a12.09,12.09,0,0,1-.81-2.06,15.4,15.4,0,0,1-.59-2.17A17.38,17.38,0,0,1,399,10a13.21,13.21,0,0,1,1.32-4.81,13.3,13.3,0,0,1-3.12,3.93,17.37,17.37,0,0,1-1.93,1.45c-.67.41-1.35.78-2.06,1.14a14.6,14.6,0,0,1-4.25,1.36,9.06,9.06,0,0,1-2.13.21,9.26,9.26,0,0,1-1-.07c-.35,0-.72,0-1.07-.11"/>
          <path class="cls-1" d="M384.66,13.08a13.35,13.35,0,0,1-4-1.47,17.91,17.91,0,0,1-3.5-2.77,15.28,15.28,0,0,1-4.4-8.63,14.86,14.86,0,0,1-2.34,9.36,13.84,13.84,0,0,1-2.79,3.5A16.32,16.32,0,0,1,366,14.42a10.61,10.61,0,0,1-1.89,1"/>
          <path class="cls-1" d="M364.08,15.41a8.61,8.61,0,0,1-2,.69c-.7.14-1.42.21-2.12.3a12.37,12.37,0,0,1-2.19,0c-.76-.08-1.52-.21-2.26-.35a15.18,15.18,0,0,1-8.42-4.77,14.94,14.94,0,0,1,3.21,9.11,14,14,0,0,1-.41,4.45,12.87,12.87,0,0,1-.65,2.05,13.16,13.16,0,0,1-1,1.87"/>
          <path class="cls-1" d="M348.19,28.73A13.87,13.87,0,0,1,341.34,34a15.3,15.3,0,0,1-9.66.63,15.25,15.25,0,0,1,7.69,5.81,9.82,9.82,0,0,0,2.43,1.94c.62.34,1,.41,1,.81"/>
        </g>
        <g>
          <path class="cls-1" d="M339.71,151.58c-1.42-1.31,1.25-6.52,6-11.63-4.72,5.11-9.69,8.2-11.12,6.89"/>
          <path class="cls-1" d="M343.67,142.85c0,1.93-5.64,3.5-12.6,3.5,7,0,12.6,1.57,12.6,3.5"/>
          <path class="cls-1" d="M338.24,144.42c7.56,0,13.69,5.65,13.69,12.6,0-7,6.13-12.6,13.69-12.6"/>
          <path class="cls-1" d="M365.62,144.42c7.56,0,13.69,5.65,13.69,12.6,0-7,6.13-12.6,13.69-12.6"/>
          <path class="cls-1" d="M393,144.42c7.56,0,13.69,5.65,13.69,12.6a12.14,12.14,0,0,1,4-8.91,13.32,13.32,0,0,1,2-1.53c.16-.12.41-.23.52-.33s.17-.21.26-.3.29-.38.4-.54c.47-.63.6-1,1-1"/>
          <path class="cls-1" d="M415,144.42c0-.23.35-.12,1,0a11.1,11.1,0,0,0,2.7,0,29.69,29.69,0,0,0,4-.87c.76-.18,1.55-.42,2.37-.54a23.3,23.3,0,0,1,2.54-.14,23.3,23.3,0,0,1-2.54-.14c-.82-.12-1.61-.36-2.37-.54a29.69,29.69,0,0,0-4-.87,11.74,11.74,0,0,0-2.7,0c-.64.08-1,.19-1,0"/>
          <path class="cls-1" d="M415,141.27c-.7,0-.24-1.41-2.37-3.69a13.49,13.49,0,0,1-3.23-8.91c0,7-4.94,12.6-11,12.6"/>
          <path class="cls-1" d="M398.33,141.27c-6.09,0-11-5.64-11-12.6,0,7-4.94,12.6-11,12.6"/>
          <path class="cls-1" d="M376.27,141.27c-6.09,0-11-5.64-11-12.6a13.54,13.54,0,0,1-3.23,8.91,11,11,0,0,1-3.51,2.7,9.87,9.87,0,0,1-1,.43l-.13,0-.05.05-.07.08-.14.14a.73.73,0,0,1-.51.25"/>
          <path class="cls-1" d="M356.6,141.27c-.18.2-.53,0-1.24-.11a9.36,9.36,0,0,1-3.7,0,16.93,16.93,0,0,1-8.13-4.32c5.11,4.72,6.84,11.17,3.85,14.41"/>
        </g>
      </g>
    </g>
  </g>
</svg>
