<svg xmlns="http://www.w3.org/2000/svg" viewBox="0 0 383.84 168.1">
  <defs>
    <style>
      .cls-1 {
        fill: none;
        stroke: #000;
        stroke-linecap: round;
        stroke-linejoin: round;
        stroke-width: 2px;
      }
    </style>
  </defs>
  <g id="Layer_2" data-name="Layer 2">
    <g id="Layer_5" data-name="Layer 5">
      <g>
        <path class="cls-1" d="M375,38.32a1.34,1.34,0,0,0,.24.12,3.86,3.86,0,0,1,3,3,67,67,0,0,1,3,15.61c.19,3.4.4,6.8.6,10.2,0,.16,0,.39.13.47a2.69,2.69,0,0,1,.83,2.05"/>
        <path class="cls-1" d="M358.36,50c-.35.49.26.77.26,1.2,0,.2.36.43.32.6-.37,1.67.75,2.85,1.34,4.2"/>
        <path class="cls-1" d="M373,66.76c2.46.52,4.77,1.54,7.2,2.15.11,0,.24-.07.36-.11"/>
        <path class="cls-1" d="M375.88,119.32c.12.84-.43,1.46-.72,2.16L373,126.76"/>
        <path class="cls-1" d="M361,138.76a2.92,2.92,0,0,1-2.18.16,2.75,2.75,0,0,0-1.91.18c-.33.12-.61.64-1.07.26"/>
        <path class="cls-1" d="M225.4,166.06c-.81,1.05-1.93,1-3.12,1-8.08,0-16.16,0-24.24,0-.4,0-.8,0-1.2-.06"/>
        <path class="cls-1" d="M6.76,166.06c.81,1.05,1.93,1,3.12,1,8.08,0,16.16,0,24.24,0,.4,0,.8,0,1.2-.06"/>
        <path class="cls-1" d="M305.2,144.16a3.92,3.92,0,0,1-3.13.26c-.59-.22-1.14.2-1.67.46"/>
        <path class="cls-1" d="M288.4,156.88l-2.76,6.84"/>
        <path class="cls-1" d="M215.2,144.16a3.92,3.92,0,0,1-3.13.26c-.59-.22-1.14.2-1.67.46"/>
        <path class="cls-1" d="M198.4,156.88l-2.76,6.84"/>
        <path class="cls-1" d="M26.08,144.16a3.92,3.92,0,0,1-3.13.26c-.59-.22-1.14.2-1.67.46"/>
        <path class="cls-1" d="M9.52,156.64l-2.88,7.08"/>
        <path class="cls-1" d="M376.84,117.28c-.4,0-.88-.14-1.19.13-.83.75-1.81.59-2.77.59H350.2"/>
        <path class="cls-1" d="M181.48,44.92a3,3,0,0,0-.44-3.15c-4.07-5.4-8.92-9.82-15.17-12.56A26.64,26.64,0,0,0,156.76,27"/>
        <path class="cls-1" d="M181.6,122a2.87,2.87,0,0,1-.68,3,38.4,38.4,0,0,1-14.08,12,27.66,27.66,0,0,1-9,2.52l-1.08.12"/>
        <path class="cls-1" d="M182.08,159.76c-2.26-1.06-4,.64-5.74,1.38A59.29,59.29,0,0,1,164,164.83c-2.32.41-4.65.54-7,.79a2.91,2.91,0,0,0-.45,1.46"/>
        <path class="cls-1" d="M368.68,161.08c2.2.88,4.4,1.75,6.6,2.65.32.14.6.38,1,.11"/>
        <path class="cls-1" d="M193,71.32a7.14,7.14,0,0,0,0,3.12,70.29,70.29,0,0,1,.24,15.48c-.16,1.56-.38,3.12-.48,4.68,0,.59-.34.68-.75.78"/>
        <path class="cls-1" d="M292.6,122.44l-6.72-2.75c-.18-.07-.4-.31-.6,0"/>
        <path class="cls-1" d="M182.08,6.76c-1.47.75-2.76.19-4.08-.47a50,50,0,0,0-19.68-5.17L156.88,1"/>
        <path class="cls-1" d="M309.88,167l-15,.06c-2.68,0-5.36,0-8-.06"/>
        <path class="cls-1" d="M118.42,98a43.66,43.66,0,0,0,1.76,7.56,59.79,59.79,0,0,0,6.47,14.88c.57.9-.16,1.68-.13,2.52"/>
        <path class="cls-1" d="M126.52,43.72c.76,1.43.1,2.66-.61,3.84-3.85,6.44-6,13.5-7.54,20.76,0,.14.11.32.17.48"/>
        <path class="cls-1" d="M13.72,122.44,7,119.69c-.18-.07-.4-.31-.6,0"/>
        <path class="cls-1" d="M202.6,122.44l-6.72-2.75c-.18-.07-.4-.31-.6,0"/>
        <path class="cls-1" d="M107.8,161.08l6.72,2.75c.18.07.4.31.6,0"/>
        <path class="cls-1" d="M213.76,95.08a15.82,15.82,0,0,0-3.24,1.21c-.93.31-1.84.71-2.76,1.07"/>
        <path class="cls-1" d="M377.56,143.2v18.36a2.41,2.41,0,0,0,.46,1.82c.41.45.25,1.09.26,1.66"/>
        <path class="cls-1" d="M282.88,71.56c-2.16,0-4.32,0-6.48,0a72.08,72.08,0,0,1-10-.72,2.37,2.37,0,0,0-2.43.81,3.59,3.59,0,0,1-2.73,1.4"/>
        <path class="cls-1" d="M4.24,118.84c0,.4-.07.92.15,1.18A3.83,3.83,0,0,1,5,122.8v17.4"/>
        <path class="cls-1" d="M85.6,35.8A4.58,4.58,0,0,1,82,34.52a32.21,32.21,0,0,0-15.56-7A37.21,37.21,0,0,0,62.2,27"/>
        <path class="cls-1" d="M352.72,50.44a5.3,5.3,0,0,1-3.72.12"/>
        <path class="cls-1" d="M344.44,42.4c.08-1.92.17-3.84.23-5.76,0-.92-.71-1.3-1.31-1.8A32,32,0,0,0,336,30.16,34.58,34.58,0,0,0,323.32,27"/>
        <path class="cls-1" d="M91.6,96.88c.77.56.44,1.49.53,2.17a101.08,101.08,0,0,0,3.8,16.31,6.89,6.89,0,0,1,.23,2.16"/>
        <path class="cls-1" d="M5.44,62.2c-1.14,2.19-2,4.52-3.35,6.61,0,.06.07.23.11.35"/>
        <path class="cls-1" d="M266.44,62.32c-1,2.08-2.09,4.16-3.11,6.24-.08.17-.31.4,0,.6"/>
        <path class="cls-1" d="M194.44,62.32c-1,2.08-2.09,4.16-3.11,6.24-.08.17-.31.4,0,.6"/>
        <path class="cls-1" d="M320.32,1a58.66,58.66,0,0,0-18.59,3.52,3.4,3.4,0,0,1-3.25-.28"/>
        <path class="cls-1" d="M248.32,1a58.66,58.66,0,0,0-18.59,3.52,3.4,3.4,0,0,1-3.25-.28"/>
        <path class="cls-1" d="M59.2,1A64.08,64.08,0,0,0,39.88,4.73c-.89.32-1,1.25-1.2,2"/>
        <path class="cls-1" d="M59.32,139.6H39.64"/>
        <path class="cls-1" d="M248.44,139.6H228.76"/>
        <path class="cls-1" d="M81.76,144H62.32"/>
        <path class="cls-1" d="M270.64,144h-19.2"/>
        <path class="cls-1" d="M240,51.4a5.3,5.3,0,0,1-.93,3.62,10.34,10.34,0,0,0-1.47,5.5c-.06,1,0,2-.13,3-.13,1.39.21,2.46,1.8,2.83,1.84-1.39,3.15-3.41,4.69-5.23,2.69-3.19,5.36-6.4,8.05-9.59a4.06,4.06,0,0,0,.73-1.32,3.39,3.39,0,0,1,3.7-1.69.69.69,0,0,1,.35.24A35.42,35.42,0,0,1,259,53a9.19,9.19,0,0,1,.16,3c0,2.28,0,4.56,0,6.84,0,2,.15,4,.1,6A3.58,3.58,0,0,0,260.44,72"/>
        <path class="cls-1" d="M62.68,166.06c.81,1.05,1.93,1.05,3.12,1q6.24-.06,12.48,0c1.19,0,2.31,0,3.12-1"/>
        <path class="cls-1" d="M17.8,113,11,116.44"/>
        <path class="cls-1" d="M1,71.2a5,5,0,0,0,2.18-.31c1.09-.52,2.33,0,3.45.12,5.11.74,10.24.5,15.37.55"/>
        <path class="cls-1" d="M193.24,118.72c0,.4-.14.88.13,1.19.75.83.59,1.81.59,2.77,0,3.64,0,7.28,0,10.92a4.63,4.63,0,0,1-1.46,3.72"/>
        <path class="cls-1" d="M290.08,77.32l-6.36,3.36"/>
        <path class="cls-1" d="M263.56,85.36c-2,.16-3.92.33-5.88.47-.52,0-.69.4-1,.72-2.46,3-5,5.88-7.4,8.92a3.82,3.82,0,0,1-3.39,1.77"/>
        <path class="cls-1" d="M289.24,100.24a37.2,37.2,0,0,0-.47-5.16,2.33,2.33,0,0,1,.56-2c2.51-2.86,5-5.75,7.31-8.76a4,4,0,0,1,3.52-1.8c1.44,0,2.87-.39,4.32-.33"/>
        <path class="cls-1" d="M314,90.16c.2,1.84.41,3.68.6,5.52a1.93,1.93,0,0,1-.47,1.57q-4.17,4.89-8.27,9.84a1.57,1.57,0,0,1-1.1.71l-5.88.48"/>
        <path class="cls-1" d="M278.8,112.84c-2,1.29-4.18,2.19-6.24,3.36"/>
        <path class="cls-1" d="M220.36,88.24a4.11,4.11,0,0,0,2.39-1.57,13,13,0,0,0,1.67-2,4.09,4.09,0,0,1,4-2.13c1.38.06,2.71-.42,4.08-.26"/>
        <path class="cls-1" d="M242,90.16c.2,1.84.41,3.68.6,5.52a1.93,1.93,0,0,1-.47,1.57q-4.17,4.89-8.27,9.84a1.57,1.57,0,0,1-1.1.71l-5.88.48"/>
        <path class="cls-1" d="M206.8,112.84c-2,1.29-4.18,2.19-6.24,3.36"/>
        <path class="cls-1" d="M362.08,77.32l-6.36,3.36"/>
        <path class="cls-1" d="M335.56,85.36c-2,.16-3.92.33-5.88.47-.52,0-.69.4-1,.72-2.46,3-5,5.88-7.4,8.92a3.82,3.82,0,0,1-3.39,1.77"/>
        <path class="cls-1" d="M133.84,10.6C132,10,130.18,9.5,128.33,9a1.47,1.47,0,0,0-1.32.18,68.81,68.81,0,0,0-16.33,14.39,1.35,1.35,0,0,0-.27,1.2c.31,1.91.51,3.84.75,5.76"/>
        <path class="cls-1" d="M102.64,46a27.89,27.89,0,0,1-3.24,1.38"/>
        <path class="cls-1" d="M170.32,74.5c.89.17,1.12.77,1.22,1.62a59.3,59.3,0,0,1,0,14.4,1.62,1.62,0,0,1-1.1,1.56"/>
        <path class="cls-1" d="M311.8,73.24l-.6-6.48c0-.27,0-.54.24-.72,2.43-1.65,3.87-4.21,5.75-6.37,2.33-2.68,4.56-5.43,6.86-8.14a4.06,4.06,0,0,0,.73-1.32c.39-1.19,2.51-2.1,3.71-1.71.29.1.36.32.46.51,1.14,2.19,2.25,4.39,3.37,6.59"/>
        <path class="cls-1" d="M333.82,72.16c-.71,1.61,0,3.2.1,4.8A6.71,6.71,0,0,0,334,78"/>
        <path class="cls-1" d="M268.6,32.56a44,44,0,0,0-8.88-4.07,35.71,35.71,0,0,0-8.4-1.45"/>
        <path class="cls-1" d="M63.88,49.6a3.8,3.8,0,0,1-1.09,2.27c-3.78,4.54-7.6,9-11.38,13.58a5.81,5.81,0,0,1-1.21,1.07c-1.87-.94-1.86-.94-1.68-3.12A49.66,49.66,0,0,1,49,58.11a10.51,10.51,0,0,1,1.85-4.29,1.85,1.85,0,0,0,.34-1.22c0-1.88-.08-3.76.12-5.64"/>
        <path class="cls-1" d="M118.48,110.92a2.38,2.38,0,0,1-1.94-1.91,81.4,81.4,0,0,1-3.09-13.69c-.1-.77-.41-1.27-1.21-1.38"/>
        <path class="cls-1" d="M346.24,6.28A55.88,55.88,0,0,1,361.82,16.5a3.05,3.05,0,0,0,3.14.94"/>
        <path class="cls-1" d="M17.44,17.56a4,4,0,0,1-1.29,3.5A55.67,55.67,0,0,0,6.79,35.21a3.33,3.33,0,0,1-2.55,2"/>
        <path class="cls-1" d="M83.8,6.58a2.94,2.94,0,0,1,2.88.3,59.79,59.79,0,0,1,13.9,9.38,3.65,3.65,0,0,0,3.26,1.18"/>
        <path class="cls-1" d="M197.56,75a86.44,86.44,0,0,1,0,16.56"/>
        <path class="cls-1" d="M269.32,167q-8.28.15-16.56,0"/>
        <path class="cls-1" d="M231.28,38.2c-2.12-.22-4.24-.11-6.36-.12"/>
        <path class="cls-1" d="M303.28,38.2c-2.12-.22-4.24-.11-6.36-.12"/>
        <path class="cls-1" d="M29.68,49.24c.27-4.48,3.29-7.49,5.75-10.8A1.38,1.38,0,0,1,36.76,38l5.64.12"/>
        <path class="cls-1" d="M129.28,121.6c1.43,0,2.76.65,4.2.6"/>
        <path class="cls-1" d="M133.36,44.44a49.15,49.15,0,0,0-6.36,1.2"/>
        <path class="cls-1" d="M116.32,54.76a2.71,2.71,0,0,1,.27,2.89,68.74,68.74,0,0,0-3.12,13.43,1.67,1.67,0,0,1-1.11,1.56"/>
        <path class="cls-1" d="M363,17.68,362.92,24"/>
        <path class="cls-1" d="M143.8,115.36c.33-1.69.61-3.38,1-5a2.21,2.21,0,0,0-.16-1.82,48.86,48.86,0,0,1-4.93-13.42c-.13-.6-.32-.84-.87-.89"/>
        <path class="cls-1" d="M99,47.68c-1.22.56-2.55,1-3.14,2.39-.08.2-.25.36-.22.61a11.21,11.21,0,0,1-.85,4.2C94,57.88,93.59,61,92.6,64c-.65,1.91-.32,3.81-.76,5.67"/>
        <path class="cls-1" d="M143.8,51.28c.36,1.92.66,3.85,1.13,5.75a1.17,1.17,0,0,1-.07.84,45.67,45.67,0,0,0-5.1,13.82c-.14.63-.45.67-.88.77"/>
        <path class="cls-1" d="M180.16,7.36l1.8,6.36"/>
        <path class="cls-1" d="M329.32,139.6H314.2"/>
        <path class="cls-1" d="M134,156c-2.07.48-4.1,1.13-6.12,1.8"/>
        <path class="cls-1" d="M347.2,144H332.32"/>
        <path class="cls-1" d="M239.2,66.52c.28,2.28.29,4.58.72,6.84"/>
        <path class="cls-1" d="M50.2,66.64l.6,6.72"/>
        <path class="cls-1" d="M60.52,81.28a32.76,32.76,0,0,1,4-.24"/>
        <path class="cls-1" d="M68.08,49.24l3.24,6.24"/>
        <path class="cls-1" d="M72.88,72.28c-.6,1-.29,2-.2,3a11.44,11.44,0,0,0,.78,3.85c.15.34.42.35.63.45a4.15,4.15,0,0,1,1.43.74"/>
        <path class="cls-1" d="M337,63.52c3.07-.38,6.18-.47,9.24-.94a3.22,3.22,0,0,1,2.78.79c4.31,3.7,8.71,7.3,13.05,11a1.39,1.39,0,0,0,1.21.46,1.37,1.37,0,0,1,1.18.51,1.13,1.13,0,0,0,1,.34"/>
        <path class="cls-1" d="M221.68,28.6v1c0,1.48,0,3,0,4.44,0,2-1.89,2.85-2.8,4.3-1.18,1.87-2.4,3.71-3.4,5.68a2,2,0,0,1-1.24,1.12"/>
        <path class="cls-1" d="M293.68,28.6v1c0,1.48,0,3,0,4.44,0,2-1.89,2.85-2.8,4.3-1.18,1.87-2.4,3.71-3.4,5.68a2,2,0,0,1-1.24,1.12"/>
        <path class="cls-1" d="M255.76,80.68l-6.48.6"/>
        <path class="cls-1" d="M327.76,80.68l-6.48.6"/>
        <path class="cls-1" d="M121.12,128.56l6.36.84"/>
        <path class="cls-1" d="M127.36,37.24l-6.36.84"/>
        <path class="cls-1" d="M354,32.8h-5.16a2.52,2.52,0,0,1-1.95-.68,37,37,0,0,0-8.25-5.57c-.67-.34-1.28-.54-1.92,0"/>
        <path class="cls-1" d="M53,90.28a56.51,56.51,0,0,1,.55,6.38c-2.65,3.2-5.36,6.64-8.28,9.9a3.16,3.16,0,0,0-.67,3.16"/>
        <path class="cls-1" d="M43.36,82.12l-6.24.6"/>
        <path class="cls-1" d="M170.08,110.44l-6.36,1.44"/>
        <path class="cls-1" d="M163.84,54.76l6.24,1.44"/>
        <path class="cls-1" d="M175.72,24.4c-2,.65-4.06,1-6,1.8"/>
        <path class="cls-1" d="M75.76,112.84c0-.28.11-.63,0-.83-.49-.76-.1-1.25.37-1.82,2.34-2.78,4.57-5.66,7-8.36,1.21-1.34,2-2.65,1.53-4.47-.34-1.34-.08-2.75-.48-4.08"/>
        <path class="cls-1" d="M74.56,85.24l-5.76.6a4.21,4.21,0,0,0-.48.12"/>
        <path class="cls-1" d="M300,67.18,306.16,70"/>
        <path class="cls-1" d="M228,67.18,234.16,70"/>
        <path class="cls-1" d="M192,112.12c.76.9.3,1.82-.08,2.63a68.49,68.49,0,0,1-6,10.91,3.31,3.31,0,0,0-.71,2.66c.28,1.67.42,3.36.62,5"/>
        <path class="cls-1" d="M181.84,153a26.73,26.73,0,0,1-1,3.72"/>
        <path class="cls-1" d="M169.72,140.44c2,.82,4.1,1.13,6.12,1.8"/>
        <path class="cls-1" d="M219.16,74.56a52.18,52.18,0,0,1,.36,7c0,1.4,0,2.8,0,4.2a2.22,2.22,0,0,0,.13,1.07c1.17,2-.07,3.45-1.11,4.92a12.78,12.78,0,0,1-1.44,1.68,1.32,1.32,0,0,0-.34,1.21c.18,1.92.39,3.84.59,5.76"/>
        <path class="cls-1" d="M138.16,139l1.92,6.12"/>
        <path class="cls-1" d="M234.88,24.16l-4.32-1.68"/>
        <path class="cls-1" d="M212.8,19.72l-4.08-.12"/>
        <path class="cls-1" d="M140.08,21.64c-.56,1.72-1.2,3.42-1.64,5.17a1.9,1.9,0,0,1-.88,1.31,49.88,49.88,0,0,0-9.38,8.14c-.9.93-.52,1.91-.58,2.9"/>
        <path class="cls-1" d="M306.88,24.16l-4.32-1.68"/>
        <path class="cls-1" d="M284.8,19.72l-4.08-.12"/>
        <path class="cls-1" d="M38.14,7.6l-1.26,3.48"/>
        <path class="cls-1" d="M23.92,19.72a29.23,29.23,0,0,0-4.08-.12"/>
        <path class="cls-1" d="M170.08,138.52c-.05,1.58-1,2.36-2.39,2.91a32.82,32.82,0,0,1-10.45,2.47c-.6,0-.66.43-.9.74"/>
        <path class="cls-1" d="M39.16,67.24l5.64,2.64"/>
        <path class="cls-1" d="M74.32,20.32q1.14,2.58,2.27,5.16a3.06,3.06,0,0,1,.13.6"/>
        <path class="cls-1" d="M332.68,166.06c.81,1.05,1.93,1.06,3.12,1,3.36-.06,6.72-.05,10.08-.07"/>
        <path class="cls-1" d="M273.28,93.4l.48,5.64a1.69,1.69,0,0,1-.46,1.34c-2.48,2.88-4.85,5.86-7.36,8.72a4.35,4.35,0,0,0-1.3,3.74"/>
        <path class="cls-1" d="M345.28,93.4l.48,5.64a1.69,1.69,0,0,1-.46,1.34c-2.48,2.88-4.85,5.86-7.36,8.72a4.35,4.35,0,0,0-1.3,3.74"/>
        <path class="cls-1" d="M227.56,6.76l-1.8,4.32"/>
        <path class="cls-1" d="M237,112.72a34.83,34.83,0,0,1,4.2-.36"/>
        <path class="cls-1" d="M258.16,111.4l4.08-.36"/>
        <path class="cls-1" d="M312,51.4a5.3,5.3,0,0,1-.93,3.62,10,10,0,0,0-1.46,5.5c0,1-.1,2.07-.06,3.12a2.45,2.45,0,0,0,1.49,2.52"/>
        <path class="cls-1" d="M299.56,6.76l-1.8,4.32"/>
        <path class="cls-1" d="M99.52,119.14a31.71,31.71,0,0,0,3.24,1.5"/>
        <path class="cls-1" d="M111.16,136.24c0,1.34-.56,2.61-.48,4"/>
        <path class="cls-1" d="M309,112.72a34.83,34.83,0,0,1,4.2-.36"/>
        <path class="cls-1" d="M330.16,111.4l4.08-.36"/>
        <path class="cls-1" d="M156.7,22.36c.15.36.46.35.78.36a34.08,34.08,0,0,1,10.92,2.75,2.67,2.67,0,0,1,1.68,2.65"/>
        <path class="cls-1" d="M27.76,94l.6,6.36"/>
        <path class="cls-1" d="M180.52,117.28l.84,3.72"/>
        <path class="cls-1" d="M181.36,45.64l-.84,3.84"/>
        <path class="cls-1" d="M270.52,116a4.08,4.08,0,0,0,2.39,3.87c1.79,1,3.19,2.56,4.8,3.82,1.12.87,2.16,1.84,3.26,2.74a3.1,3.1,0,0,0,1.31.82c1.56.18,1.61,1.4,1.65,2.43.09,2.8,0,5.6.06,8.4,0,.74-.83,1.4-.15,2.16"/>
        <path class="cls-1" d="M343.6,7.24,340,8.8"/>
        <path class="cls-1" d="M271.6,7.24,268,8.8"/>
        <path class="cls-1" d="M32.8,28.6l-.12,3.84"/>
        <path class="cls-1" d="M320.32,22.6a39,39,0,0,0-11.16,2.17c-.84.32-1.39-.2-2-.49"/>
        <path class="cls-1" d="M248.32,22.6a39,39,0,0,0-11.16,2.17c-.84.32-1.39-.2-2-.49"/>
        <path class="cls-1" d="M320.2,99.4l.36,4.2"/>
        <path class="cls-1" d="M59.2,22.6a43.82,43.82,0,0,0-8.28,1.32l-1.32.36c-1.24.28-2.34.73-2.64,2.16"/>
        <path class="cls-1" d="M108.4,142.36a3.46,3.46,0,0,1,3.13,1.55,56.77,56.77,0,0,0,4.07,4.57c.32.36.67.7,1,1.08a1.76,1.76,0,0,1,.26,2.17,3,3,0,0,0-.26,1.55c0,3.08,0,6.16,0,9.24"/>
        <path class="cls-1" d="M96.28,119v-1.32c-2.74.69-5.52.24-8.28.35-1.08.05-2.16,0-3.24,0"/>
        <path class="cls-1" d="M360,41.68l-1.32,3.48"/>
        <path class="cls-1" d="M55.12,116.56A4.41,4.41,0,0,1,51.4,118c-2.52-.16-5,0-7.57-.15a26.63,26.63,0,0,0-4.17.16,21.76,21.76,0,0,1-.08-2.54c0-.78.61-1.53.42-2.4"/>
        <path class="cls-1" d="M244,116.56a4.63,4.63,0,0,1-3.72,1.46c-3.84-.06-7.68,0-11.7,0,.37-1.15-.58-2.37.41-3.49.39-.43-.16-1,0-1.43"/>
        <path class="cls-1" d="M91.72,65.92c-1.61-.33-2.63-1.59-3.81-2.56a2.63,2.63,0,0,0-2.19-.71c-3.11.33-6.24.51-9.36.75a4.21,4.21,0,0,0-.48.12"/>
        <path class="cls-1" d="M36.88,81.16a2.62,2.62,0,0,1-.7,2.66c-2.53,2.91-5,5.86-7.43,8.88A2.94,2.94,0,0,1,25.84,94"/>
        <path class="cls-1" d="M114.4,50.56a20.56,20.56,0,0,1,1.26,3.12"/>
        <path class="cls-1" d="M210.88,71.56c-3.48,0-7,.26-10.43-.07a66.08,66.08,0,0,0-10.33-.29"/>
        <path class="cls-1" d="M106.72,25.72a14.52,14.52,0,0,0-3.36,0"/>
        <path class="cls-1" d="M96.52,37.36l.36,6.6"/>
        <path class="cls-1" d="M68.08,84.28a2.52,2.52,0,0,1-.7,2.66c-2.54,2.91-5.06,5.84-7.42,8.89A3,3,0,0,1,57,97.12"/>
        <path class="cls-1" d="M312.16,47.08,312,50.92"/>
        <path class="cls-1" d="M127.72,127.48a2.58,2.58,0,0,0,.59,3,65.44,65.44,0,0,0,8.41,7.55,2.74,2.74,0,0,0,3.12.48"/>
        <path class="cls-1" d="M240.16,47.08,240,50.92"/>
        <path class="cls-1" d="M268.24,38.92l1.56,3.72"/>
        <path class="cls-1" d="M7.12,38.92l1.68,3.6"/>
        <path class="cls-1" d="M196.24,38.92l1.56,3.72"/>
        <path class="cls-1" d="M128.08,159.4a2.81,2.81,0,0,0-1.67-2.43,52.9,52.9,0,0,1-7.21-5.25,2.89,2.89,0,0,0-1.92-.84"/>
        <path class="cls-1" d="M83.56,38.2a67.81,67.81,0,0,1-.6,9.12"/>
        <path class="cls-1" d="M248.2,99.4c.2,2.44.37,4.88.63,7.32,0,.4,0,.8.09,1.2"/>
        <path class="cls-1" d="M283.54,139.6h-9.9"/>
        <path class="cls-1" d="M93.76,50.08a10.79,10.79,0,0,0-2.92.77c-.8.42-1.9,0-2.84-.29"/>
        <path class="cls-1" d="M77.2,48.52l-4.32.24"/>
        <path class="cls-1" d="M343,48.4l-9,.36"/>
        <path class="cls-1" d="M32.68,32.92c.38,1.47-.31,2.43-1.28,3.52a32.57,32.57,0,0,0-4.8,7.3,2.28,2.28,0,0,1-1.84,1.48"/>
        <path class="cls-1" d="M75.28,26.68a2.92,2.92,0,0,1,3.13.22,41.36,41.36,0,0,1,7.65,5.32,1.8,1.8,0,0,0,1.34.47q4.32-.06,8.64.23"/>
        <path class="cls-1" d="M59.2,99.64,60,108"/>
        <path class="cls-1" d="M94.36,138.88a2.48,2.48,0,0,0-2,.49c-.35.35-.73.22-1.09.22-2.16,0-4.32,0-6.48,0"/>
        <path class="cls-1" d="M278.44,17.8A3.57,3.57,0,0,1,277.28,21a35.88,35.88,0,0,0-4.73,5.94c-.48.7-.86,1.55-1.68,1.91-.43.19-.23.52-.32.75A4.74,4.74,0,0,1,269,32.21c-.32.21-.32.58-.38.95a16.64,16.64,0,0,1-1.31,3.12c-.15.41-.62.3-.95.42"/>
        <path class="cls-1" d="M224.8,36a4,4,0,0,1-1.16,3.4,34.47,34.47,0,0,0-4.18,6.41c-.65,1.18-.45,2.36-.78,3.51"/>
        <path class="cls-1" d="M296.8,36a4,4,0,0,1-1.16,3.4,34.47,34.47,0,0,0-4.18,6.41c-.65,1.18-.45,2.36-.78,3.51"/>
        <path class="cls-1" d="M206.44,17.8A3.52,3.52,0,0,1,205.29,21c-1.42,1.33-2.47,3.05-3.79,4.49a31.17,31.17,0,0,0-3.31,5.08c-1,1.68-1.8,3.5-2.67,5.26-.25.52-.55.93-1.2.9"/>
        <path class="cls-1" d="M274.24,6.28a43.62,43.62,0,0,1,7.54,4.1,5.17,5.17,0,0,0,3.74.82"/>
        <path class="cls-1" d="M345.28,50.2c.32,2.64.37,5.3.83,7.92a3.46,3.46,0,0,1,0,.72"/>
        <path class="cls-1" d="M84.28,50.2c.19,2.88.7,5.74.72,8.64"/>
        <path class="cls-1" d="M283.24,118.72a3.13,3.13,0,0,0,.22,1.33c.85,1.6.68,5.65-.22,7.31"/>
        <path class="cls-1" d="M36.64,144H28"/>
        <path class="cls-1" d="M225.76,144h-8.64"/>
        <path class="cls-1" d="M101.92,17.56l-.12,8.28"/>
        <path class="cls-1" d="M156.34,48.16a1.49,1.49,0,0,0,.78.84c2.67,1.06,4.53,3.07,6.26,5.26.68.86.11,1.62.1,2.42"/>
        <path class="cls-1" d="M56.56,112c-2.32.16-4.64.29-7,.51-.4,0-.8,0-1.2.09"/>
        <path class="cls-1" d="M163.48,110c.59,1.41,0,2.45-.95,3.49a14.61,14.61,0,0,1-5.42,4.16c-.53.22-.56.7-.89,1"/>
        <path class="cls-1" d="M101.2,138.28a70.93,70.93,0,0,0,6.48,3.36"/>
        <path class="cls-1" d="M185.2,37.72c-.48,1.62.34,2.85,1.19,4.08.6.86,1.08,1.79,1.7,2.63,1,1.41,1,3.09,1.31,4.69.06.36.08.72.12,1.08"/>
        <path class="cls-1" d="M101.8,133l-.48,4.08a2.12,2.12,0,0,1-2.27,2,10.56,10.56,0,0,0-4.09.31"/>
        <path class="cls-1" d="M215.56,134.44a10.54,10.54,0,0,0-.74,3.24c0,.74.75,1.26.5,2"/>
        <path class="cls-1" d="M305.56,134.44a10.54,10.54,0,0,0-.74,3.24c0,.74.75,1.26.5,2"/>
        <path class="cls-1" d="M23.68,45.88a26.16,26.16,0,0,0-4.92,2.28"/>
        <path class="cls-1" d="M26.68,134.44c-.54,1.58-1.19,3.15-.24,4.8"/>
        <path class="cls-1" d="M261.52,73.24,262,78"/>
        <path class="cls-1" d="M356.2,144a5.94,5.94,0,0,1-.24,4.44"/>
        <path class="cls-1" d="M95.32,144a5.94,5.94,0,0,1-.24,4.44"/>
        <path class="cls-1" d="M286.48,73.24l3.48,1.2,3.48,1.2"/>
        <path class="cls-1" d="M29.08,50.08c.34,1.42.69,2.85-.24,4.2"/>
        <path class="cls-1" d="M209.44,50.08c1.19.48,2.37.93,3.61.13a.35.35,0,0,1,.47.11"/>
        <path class="cls-1" d="M218.2,50c0,.08-.14.19-.11.24A4.11,4.11,0,0,1,218,54"/>
        <path class="cls-1" d="M290.2,50c0,.08-.14.19-.11.24A4.11,4.11,0,0,1,290,54"/>
        <path class="cls-1" d="M281.44,50.08c1.19.48,2.37.93,3.61.13a.35.35,0,0,1,.47.11"/>
        <path class="cls-1" d="M20.56,50.08a4.1,4.1,0,0,0,3.6.12"/>
        <path class="cls-1" d="M95.8,143.44c0-1.32,0-1.32-2-1.32"/>
        <path class="cls-1" d="M236.56,112.72c-1.88-.08-3,.84-3.35,2.76a5.9,5.9,0,0,0-.37,2.28"/>
        <path class="cls-1" d="M45.52,110.92c.06.32-.08.64.11,1a1.07,1.07,0,0,1-.24,1.42c-1.32,1.17-1.31,2.79-1.55,4.33"/>
        <path class="cls-1" d="M195.28,112l-2.76,1.2"/>
        <path class="cls-1" d="M260,74.68a2,2,0,0,0-.6,1.2c-.07.5-.25.8-.84.86-.87.09-1.15.77-1.19,1.54,0,.4,0,.82-.37,1.08-1.2.8-1.13,2-1.08,3.24"/>
        <path class="cls-1" d="M356.68,143.44c0-1.32,0-1.32-1.8-1.32"/>
        <path class="cls-1" d="M332,74.68a2,2,0,0,0-.6,1.2c-.07.5-.25.8-.84.86-.87.09-1.15.77-1.19,1.54,0,.4,0,.82-.37,1.08-1.2.8-1.13,2-1.08,3.24"/>
        <path class="cls-1" d="M264.76,23.56l1.08,2.52"/>
        <path class="cls-1" d="M214.84,140.32c-.09,1.51,1.06,1,1.8,1.08"/>
        <path class="cls-1" d="M304.84,140.32c-.09,1.51,1.06,1,1.8,1.08"/>
        <path class="cls-1" d="M336.76,23.56l1.08,2.52"/>
        <path class="cls-1" d="M362.68,74.92c-.12.76.61,1.65-.36,2.28"/>
        <path class="cls-1" d="M290.68,74.92c-.12.76.61,1.65-.36,2.28"/>
        <path class="cls-1" d="M48,66a6.78,6.78,0,0,0-1.2,2.4"/>
        <path class="cls-1" d="M309.64,65.44c-1.27.6-1.35,1.91-1.8,3"/>
        <path class="cls-1" d="M237.52,65.56c-1.23.57-1.21,1.87-1.68,2.88"/>
        <path class="cls-1" d="M45.16,23.92,47.44,25"/>
        <path class="cls-1" d="M263,78.52c-.63.43-.45.77.12,1.09.35.19.84,0,1.08.47"/>
        <path class="cls-1" d="M335,78.52c-.51.6-.49.73.12,1.08.34.21.84,0,1.08.48"/>
        <path class="cls-1" d="M71.08,74.44c-.57.56-.43,1.46-1,2"/>
        <path class="cls-1" d="M347.68,60.52c0,.69.4,1.33.24,2"/>
        <path class="cls-1" d="M255.28,45.4c0,.57.1,1.12-.46,1.58s-.39,1-.38,1.54"/>
        <path class="cls-1" d="M327.28,45.4c0,.57.1,1.12-.46,1.58s-.39,1-.38,1.54"/>
        <path class="cls-1" d="M306.64,110.92v2"/>
        <path class="cls-1" d="M234.64,110.92v2"/>
        <path class="cls-1" d="M297.88,113.2l1.92,1"/>
        <path class="cls-1" d="M225.88,113.2l1.92,1"/>
        <path class="cls-1" d="M355.84,47c.66.07,1.23.43,1.91.55s1.15,1,1.09,1.85"/>
        <path class="cls-1" d="M216.64,93.88l-1.92.24"/>
        <path class="cls-1" d="M288.64,93.88l-1.92.24"/>
        <path class="cls-1" d="M378.28,37.48l-.72,1.92"/>
        <path class="cls-1" d="M270.64,117.88a6.88,6.88,0,0,0-1.92.12"/>
        <path class="cls-1" d="M70.24,78.76a5.21,5.21,0,0,1-1.92.24"/>
        <path class="cls-1" d="M35.8,36A6.88,6.88,0,0,0,35.92,38"/>
        <path class="cls-1" d="M110.56,140.68l-.24,1.92"/>
        <path class="cls-1" d="M86.8,60.52v1.92"/>
        <path class="cls-1" d="M221.8,35h1.8"/>
        <path class="cls-1" d="M312.28,53.32h1.8"/>
        <path class="cls-1" d="M240.28,53.32h1.8"/>
        <path class="cls-1" d="M293.8,35h1.8"/>
        <path class="cls-1" d="M83.56,35.92v1.8"/>
        <path class="cls-1" d="M32.92,34.84h1.8"/>
        <path class="cls-1" d="M72.88,78a2.5,2.5,0,0,0-1.56,1.44"/>
        <path class="cls-1" d="M147,56.92a4.68,4.68,0,0,1-1.8.48"/>
        <path class="cls-1" d="M344.68,35.92h1.8"/>
        <path class="cls-1" d="M85,99.64h1.8"/>
        <path class="cls-1" d="M86.68,32.8v1.8"/>
        <path class="cls-1" d="M184.84,127a4.78,4.78,0,0,0-1.8.24"/>
        <path class="cls-1" d="M182,43c.61.09,1.16.46,1.8.36"/>
        <path class="cls-1" d="M44.2,107.68l-1.8.24"/>
        <path class="cls-1" d="M275.68,99.52l-1.8.24"/>
        <path class="cls-1" d="M320,97.12a4.1,4.1,0,0,0,.24,1.8"/>
        <path class="cls-1" d="M248,97.12a4.1,4.1,0,0,0,.24,1.8"/>
        <path class="cls-1" d="M59,97.12l.12,1.8"/>
        <path class="cls-1" d="M53.8,96.52h1.8"/>
        <path class="cls-1" d="M316.48,96.4c-.63-.11-1.19.22-1.8.24"/>
        <path class="cls-1" d="M244.48,96.4c-.63-.11-1.19.22-1.8.24"/>
        <path class="cls-1" d="M75.4,110.92a5.74,5.74,0,0,0-1.8.12"/>
        <path class="cls-1" d="M66.88,80.8,67,82.6"/>
        <path class="cls-1" d="M184.84,39.64a4.78,4.78,0,0,1-1.8-.24"/>
        <path class="cls-1" d="M225.88,80.92l.12,1.8"/>
        <path class="cls-1" d="M297.88,80.92l.12,1.8"/>
        <path class="cls-1" d="M127,121l1.8.36"/>
        <path class="cls-1" d="M17.56,19.6h1.8"/>
        <path class="cls-1" d="M180.52,157.48a3.41,3.41,0,0,1-.36,1.8"/>
        <path class="cls-1" d="M44.2,114.64l-1.8.12"/>
        <path class="cls-1" d="M110.2,24l-1.8.12"/>
        <path class="cls-1" d="M257.08,84a4.08,4.08,0,0,0,.24,1.8"/>
        <path class="cls-1" d="M329.08,84a4.08,4.08,0,0,0,.24,1.8"/>
        <path class="cls-1" d="M47.68,112.72a5.74,5.74,0,0,1-1.8.12"/>
        <path class="cls-1" d="M84.52,4.36c-.07.69.44,1.19.6,1.8"/>
        <path class="cls-1" d="M347.68,99.52l-1.8.24"/>
        <path class="cls-1" d="M334.6,78.52c-1.11-.64-1.11-.64-2.16.72"/>
        <path class="cls-1" d="M183.76,123.28l-1.68.24"/>
        <path class="cls-1" d="M262.6,78.52c-1.11-.64-1.11-.64-2.16.72"/>
        <path class="cls-1" d="M257.44,78.88h1.68"/>
        <path class="cls-1" d="M329.44,78.88h1.68"/>
        <path class="cls-1" d="M138.4,27.64a4.06,4.06,0,0,0,1.68.36"/>
        <path class="cls-1" d="M6.16,36.64c.26.5.66.94.6,1.56"/>
        <path class="cls-1" d="M230.56,114.28a3.47,3.47,0,0,1-1.32.12"/>
        <path class="cls-1" d="M286,45.28l-1.32.48"/>
        <path class="cls-1" d="M39.4,115.12l-1.32.12"/>
        <path class="cls-1" d="M214,45.28l-1.32.48"/>
        <path class="cls-1" d="M302.56,114.28a3.47,3.47,0,0,1-1.32.12"/>
        <path class="cls-1" d="M187.48,70.24a3.21,3.21,0,0,0,1.32.36"/>
        <path class="cls-1" d="M98,118.48l1.2.48"/>
        <path class="cls-1" d="M83.44,6.88l-1.2.48"/>
        <path class="cls-1" d="M191.2,96.16l-.36.24"/>
        <path class="cls-1" d="M93.4,95.08l-.24.36"/>
        <path class="cls-1" d="M138.16,93.52l-.36-.24"/>
      </g>
    </g>
  </g>
</svg>
