<svg xmlns="http://www.w3.org/2000/svg" viewBox="0 0 363.24 150.92">
  <defs>
    <style>
      .cls-1 {
        fill: none;
        stroke: #000;
        stroke-linecap: round;
        stroke-linejoin: round;
        stroke-width: 2px;
      }
    </style>
  </defs>
  <g id="Layer_2" data-name="Layer 2">
    <g id="Layer_5" data-name="Layer 5">
      <g>
        <path class="cls-1" d="M323.2,142.53c-.1,2.6,2,3.35,3.73,4.3a25.37,25.37,0,0,0,9,2.81,25.93,25.93,0,0,0,15-2.56,7.59,7.59,0,0,0,2.43-1.77,12.84,12.84,0,0,1,3.19-2.84c1.88-1.05,2.7-3,3.14-5.1a13.54,13.54,0,0,0-1.3-10.08,4.83,4.83,0,0,0-2.06-2,7.59,7.59,0,0,1-2.52-2.29c-1.56-1.89-3.81-2.65-6-3.48a23.2,23.2,0,0,0-9.6-1.53A26.07,26.07,0,0,0,324,122.83c-1,.7-.61,1.58-.7,2.42"/>
        <path class="cls-1" d="M20.44,117.33c-1.17,1-2.71.92-4.09,1.3A21.61,21.61,0,0,0,11,121c-1.31.77-1.59,2.44-2.76,3.36-.14.11-.12.37-.37.47C5,125.92,4,128.45,3.43,131.14a13.39,13.39,0,0,0,.44,7.2,6.91,6.91,0,0,0,3.61,4.55,3.42,3.42,0,0,1,1.64,1.7c.82,1.88,2.44,2.69,4.12,3.46,7.22,3.29,13.92,2.15,20-2.7,1-.84,2-.62,2.93-.76a3.89,3.89,0,0,1,3.16,1A18.14,18.14,0,0,0,53,149.81a16.72,16.72,0,0,0,9.7-4.06,5.06,5.06,0,0,1,3.5-1.19,4.46,4.46,0,0,1,3.16,1.05,18.24,18.24,0,0,0,13.52,4.21,18.65,18.65,0,0,0,8.64-3.08c1-.68,1.37-1.9,2.13-2.79a3.39,3.39,0,0,1,1.22-1.07,6.14,6.14,0,0,0,3.35-3.95c1.25-3.93,1.36-7.8-.8-11.53a5.44,5.44,0,0,0-2.2-2.23,4.14,4.14,0,0,1-2-2,7.19,7.19,0,0,0-3.48-3.12A17.76,17.76,0,0,0,81.52,118a18,18,0,0,0-12.21,4.31,4.35,4.35,0,0,1-3,1.09,5.14,5.14,0,0,1-3.64-1.31,18.1,18.1,0,0,0-9.43-3.93,19.58,19.58,0,0,0-7.7.74,3.51,3.51,0,0,1-1.8,0,2.51,2.51,0,0,0-3.21,1.66A5.89,5.89,0,0,1,38,123.26c-.61.38-1.64,0-2.48.08a2.62,2.62,0,0,1-2.42-1c-1.87-2.18-4.47-3-7.18-3.36a8.77,8.77,0,0,1-3.34-.76c-.71-.43-1.81-.36-2.15-1.19-.88-2.12-2.59-3.9-2.67-6.35a1.22,1.22,0,0,1,0-.47c.81-1.63.2-3.23-.17-4.8a4.83,4.83,0,0,1,.21-2.27C20.07,94,25.44,87.66,34.47,84.55a8.08,8.08,0,0,0,2.59-.82"/>
        <path class="cls-1" d="M350.62,26.37a.9.9,0,0,0,.77.88,14.23,14.23,0,0,1,10.45,11,14.45,14.45,0,0,1-1,9.47,3.16,3.16,0,0,1-1.32,1.56,3.52,3.52,0,0,0-1.82,2.28c-.34,1.25-1.49,1.83-2.51,2.39-5.28,2.89-10.46,2.4-15.45-.73a7.22,7.22,0,0,1-1.87-2.34,31.1,31.1,0,0,0-3.19-3.52c-3.86-4.14-7.85-8.15-11.89-12.11-2.43-2.37-5-4.59-7.4-7-.91-.91-1.83-.56-2.79-.57"/>
        <path class="cls-1" d="M12.7,26.49c-.22.29-.29.62-.77.75A14,14,0,0,0,3,34.05a14.8,14.8,0,0,0-.7,13.67,3.46,3.46,0,0,0,1.53,1.71,3.29,3.29,0,0,1,1.59,2c.52,1.69,2.07,2.34,3.47,3a14.07,14.07,0,0,0,14.39-1.17A4.71,4.71,0,0,0,25.26,51c.48-1.2,1.65-1.86,2.51-2.76,6.55-6.89,13.15-13.73,20.28-20,.83-.73.68-1.63.71-2.53"/>
        <path class="cls-1" d="M311.68,27.81a2.45,2.45,0,0,0-2.78.46c-6,5.35-11.6,11.2-17.27,16.93a47.67,47.67,0,0,1-4.17,4.24c-.83.64-1.15,1.74-1.75,2.57a8.88,8.88,0,0,1-4,2.69c-4.91,2.07-9.52,1.27-13.9-1.47a2.58,2.58,0,0,1-1.39-2c-.05-.74-.81-1.26-1.4-1.66-1.7-1.14-2.5-2.92-3.47-4.58-.2-.34,0-.57.12-.85a9.8,9.8,0,0,0,.47-3.48,13.22,13.22,0,0,1,2.69-7.88,13.4,13.4,0,0,1,7.51-5.35,2.14,2.14,0,0,1,1.69.09"/>
        <path class="cls-1" d="M239.68,27.81a2.45,2.45,0,0,0-2.78.46c-6.05,5.35-11.6,11.2-17.27,16.93a45.1,45.1,0,0,1-4.17,4.24,8,8,0,0,0-1.73,2.48c-.76,1.3-2.17,1.87-3.45,2.52a12.75,12.75,0,0,1-6.84,1.34,10,10,0,0,0-2.39,0,.87.87,0,0,1-1-.28,3.6,3.6,0,0,0-2-1.13,6.17,6.17,0,0,1-2.64-1.51,2.57,2.57,0,0,1-1-1.67c-.09-.75-.82-1.25-1.42-1.66a5,5,0,0,1-1.57-1.81c-1.48-2.67-1.36-5.45-.81-8.3.36-1.84.75-3.67,1.06-5.52a1.45,1.45,0,0,1,.74-1.19,8.48,8.48,0,0,0,2.15-1.94,13.71,13.71,0,0,1,6-3.48,1.84,1.84,0,0,1,1.44.19"/>
        <path class="cls-1" d="M53.44,25.65A3.85,3.85,0,0,0,55,28.92c6.58,5.86,12.71,12.17,18.75,18.57a19.1,19.1,0,0,0,1.81,1.79,5.47,5.47,0,0,1,1.69,2.17A5.62,5.62,0,0,0,80,54a13.93,13.93,0,0,0,7.79,1.85,5.34,5.34,0,0,1,2.88.21"/>
        <path class="cls-1" d="M320.8,144.57a5.17,5.17,0,0,0-3.51,1,24.37,24.37,0,0,1-11,4,26.79,26.79,0,0,1-14.52-2.34,7.78,7.78,0,0,1-3.7-3c-.65-1.09-1.74-1.44-2.69-2a3.28,3.28,0,0,1-1.09-1.1c-2.44-3.61-2.44-7.51-1.52-11.53.32-1.4,1.3-2.52,1.8-3.84,0-.08.23-.09.35-.13a7.83,7.83,0,0,0,3.94-3.13,5.53,5.53,0,0,1,2.18-1.67,16,16,0,0,1,6.72-1.93,20.94,20.94,0,0,0,6.12-1.5,1.4,1.4,0,0,1,1.34.17c1.16.68,2.54.68,3.82,1a21.16,21.16,0,0,1,8.38,3.74,3.74,3.74,0,0,0,3.38.81"/>
        <path class="cls-1" d="M120.16,50.85a3.58,3.58,0,0,0,0,3.13,29.24,29.24,0,0,1,1.54,12.47,29.57,29.57,0,0,1-4.91,14.14,3.35,3.35,0,0,0-.45,3.14"/>
        <path class="cls-1" d="M172.72,51.87a2,2,0,0,0-1.56,1.62,54.71,54.71,0,0,0-1.48,7.2,30.07,30.07,0,0,0,2.91,16.57c.67,1.42,1.57,2.69,2.29,4.08.43.84,1.3.43,1.92.71"/>
        <path class="cls-1" d="M118.72,134.43a32.92,32.92,0,0,0,1.9,5,15.75,15.75,0,0,0,12.14,8,14.12,14.12,0,0,0,10.44-2.67c1-.74,2.17-.23,3.24-.31a3.88,3.88,0,0,1,2.43.87,13.6,13.6,0,0,0,8,2.3A16,16,0,0,0,172,136.29a17.94,17.94,0,0,0,.37-1.8"/>
        <path class="cls-1" d="M160.12,117c-2.19.3-4.41.4-6.61.67-1.37.17-2.79.23-4.19.28-2,.07-4.08.06-6.12,0-2.89-.09-5.77-.34-8.64-.66-1.15-.13-2.32-.26-3.48-.29"/>
        <path class="cls-1" d="M172.36,16.41c-1.28-6.95-5.6-11.09-12.25-12.79A13.73,13.73,0,0,0,148.5,5.76a3.21,3.21,0,0,1-1.94.59,7.76,7.76,0,0,0-2,.09,2.07,2.07,0,0,1-1.67-.6,13.27,13.27,0,0,0-9.13-2.59c-5.71.5-10.22,3.06-13.11,8.23a35.47,35.47,0,0,0-1.89,5"/>
        <path class="cls-1" d="M191.92,105a6.42,6.42,0,0,1-.85,2.16c-.88,1.38-.23,2.73,0,4.08a17.46,17.46,0,0,1-13.57,20.4c-.69.16-1.49-.3-2.1.36"/>
        <path class="cls-1" d="M284.56,125.73a9.65,9.65,0,0,1-3.12-3.59,4,4,0,0,0-1.94-1.65A18.84,18.84,0,0,0,269.32,118a18.48,18.48,0,0,0-11,4.32,4.81,4.81,0,0,1-3.38,1,5.1,5.1,0,0,1-3.49-1.38,18.58,18.58,0,0,0-9.22-3.77,17.5,17.5,0,0,0-7.32.66,5.46,5.46,0,0,1-3.13-.14"/>
        <path class="cls-1" d="M284.44,142.17a12,12,0,0,0-3.05,3.7c-.51,1-1.72,1.42-2.72,1.93a18.1,18.1,0,0,1-10.42,2,17.79,17.79,0,0,1-10.19-4.42,3.39,3.39,0,0,0-2.3-.84,5.78,5.78,0,0,0-4.35,1.42,17.5,17.5,0,0,1-13,3.85A18.17,18.17,0,0,1,228,145.41a5.25,5.25,0,0,0-5.88,0,18.29,18.29,0,0,1-13.8,4.41,18.54,18.54,0,0,1-8.5-3,4.44,4.44,0,0,1-1.4-1.73,5.33,5.33,0,0,0-2.31-2.37,6.93,6.93,0,0,1-3.48-5,14.3,14.3,0,0,1,.92-10,4.79,4.79,0,0,1,2.2-2.45c1.5-.57,2.1-1.78,2.86-2.94a6.17,6.17,0,0,1,2.38-1.94,17.94,17.94,0,0,1,6.85-2.3,5.64,5.64,0,0,0,1.68-.81"/>
        <path class="cls-1" d="M200.56,56c-.45,1.14,0,2.27.16,3.36a17.45,17.45,0,0,1-3.53,13.31,1.93,1.93,0,0,0-.47,1.45,3,3,0,0,1,0,.6,6.48,6.48,0,0,0,1.42,4.94,14.6,14.6,0,0,1,2.56,6.94A18.06,18.06,0,0,1,198.64,98a17.74,17.74,0,0,1-6.12,6.61c-.77.51-1.37-.1-2-.25"/>
        <path class="cls-1" d="M60.76,57.57A11.22,11.22,0,0,0,53.21,59,25,25,0,0,0,41.33,72.7a26.18,26.18,0,0,0-1.45,7.79"/>
        <path class="cls-1" d="M88.06,24.57A2,2,0,0,1,87.64,23c.47-6.57-4.86-12.59-10.19-14.19a13.73,13.73,0,0,0-9.6.28c-.69.3-1.24-.08-1.8-.26a5.52,5.52,0,0,1-3.18-2A13.74,13.74,0,0,0,53,1.1,14.14,14.14,0,0,0,39.7,6.5a7.67,7.67,0,0,1-3.17,2.24c-1.27.59-2.38.13-3.62-.2A14.1,14.1,0,0,0,20.82,10.8a14.13,14.13,0,0,0-6,9,7.57,7.57,0,0,0-.26,3.95c.17.47-.29.54-.32.84"/>
        <path class="cls-1" d="M298.24,83.91a20.29,20.29,0,0,0-9.09,3.7,24.69,24.69,0,0,0-9.52,12.68c-.81,2.49-1.31,5-.48,7.57a1.37,1.37,0,0,1,.11.83c-1.08,2.8.25,5,1.72,7.19a14,14,0,0,0,2.62,2.65,7.36,7.36,0,0,0,4,1.45,2.48,2.48,0,0,1,2.16,1.31"/>
        <path class="cls-1" d="M226.24,83.91a20.29,20.29,0,0,0-9.09,3.7,24.69,24.69,0,0,0-9.52,12.68c-.81,2.49-1.31,5-.48,7.57a1.3,1.3,0,0,1,.11.83c-1,2.3,0,4.28,1,6.23.35.69.79,1.37,1.21,2,.61,1,1.88,1.07,2.84,1.58a4.46,4.46,0,0,0,1.8.37,12.75,12.75,0,0,1,5.53,1.66,1.39,1.39,0,0,0,1.81-.08,4.31,4.31,0,0,1,2.5-.58c1.17-.09,2.32-.27,3.48-.4a4.49,4.49,0,0,1,1.32,0,2.59,2.59,0,0,0,3.14-1.69,5.77,5.77,0,0,1,1.52-1.95,25,25,0,0,0,8.4-13.78A10.2,10.2,0,0,0,242.2,99a2.87,2.87,0,0,1,.66-2.16"/>
        <path class="cls-1" d="M100.72,46.53c-1.06-.72-1.94-.38-2.89.35-2.41,1.85-4.5,3.9-5.27,7-.14.55-.62.82-1,1.2s-.82.66-.8,1c.13,1.88-.54,3.67-.51,5.52a18.5,18.5,0,0,0,3.63,11,2.49,2.49,0,0,1,.56,1.7c0,.48,0,1,0,1.44a4.57,4.57,0,0,1-.92,3.16,16.39,16.39,0,0,0-3.07,8.36c-.62,7.3,2,13,8,17.21,1,.68,1.47.12,2.19,0"/>
        <path class="cls-1" d="M227.56,7.89c-.48.2-1,.38-1.44.61a4.6,4.6,0,0,1-3.73.27c-4.89-1.63-9.32-.43-13.3,2.62a14.63,14.63,0,0,0-5.51,9.47,17.13,17.13,0,0,0,0,2.27c0,.41.15.84-.17,1.2"/>
        <path class="cls-1" d="M316.6,93.75c1.12.43,2.12-.12,3.12-.43A24.68,24.68,0,0,0,336.4,74.49a6.67,6.67,0,0,0,0-2.52,9.7,9.7,0,0,1-.18-3.73,6.78,6.78,0,0,0-1.3-5.37,13.84,13.84,0,0,0-8.38-6,5.51,5.51,0,0,0-4.32.44,3.06,3.06,0,0,1-2.26.22,6.38,6.38,0,0,0-3.84.65A24.82,24.82,0,0,0,301.63,75a16,16,0,0,0-.63,5.51"/>
        <path class="cls-1" d="M244.6,93.75c1.12.43,2.12-.12,3.12-.43A24.68,24.68,0,0,0,264.4,74.49a6.67,6.67,0,0,0,0-2.52,9.7,9.7,0,0,1-.18-3.73,6.78,6.78,0,0,0-1.3-5.37,13.84,13.84,0,0,0-8.38-6,5.51,5.51,0,0,0-4.32.44,3.06,3.06,0,0,1-2.26.22,6.38,6.38,0,0,0-3.84.65A24.82,24.82,0,0,0,229.63,75a16,16,0,0,0-.63,5.51"/>
        <path class="cls-1" d="M116.32,84.21a4.85,4.85,0,0,0,1.52,3.17A31.81,31.81,0,0,1,127,104.13a49.65,49.65,0,0,1,.94,9.72"/>
        <path class="cls-1" d="M60.76,59.25c0-2,.48-2.41,2.52-2.54a10.44,10.44,0,0,1,7.19,2.56,12.25,12.25,0,0,1,4.83,6.94A3,3,0,0,1,75.36,68c-.68,1.34-.19,2.64.11,3.85a6.21,6.21,0,0,1-.1,3C72.92,84.68,66.88,91.1,57,93.8c-.63.17-1.15.33-1.38,1"/>
        <path class="cls-1" d="M174.88,84.21a3.63,3.63,0,0,1-1.17,2.92A31.71,31.71,0,0,0,164,105.69a65.75,65.75,0,0,0-.71,8.16"/>
        <path class="cls-1" d="M348.94,24.57c-.48-1.2-.18-2.48-.36-3.72a15,15,0,0,0-14.7-12.8,9.32,9.32,0,0,0-3.72.57,4.22,4.22,0,0,1-3.48.12,5.67,5.67,0,0,1-2.91-1.91,12.75,12.75,0,0,0-8.62-5.49,14.42,14.42,0,0,0-15,5.82,1.42,1.42,0,0,0-.23,1.7,4.91,4.91,0,0,1,.25,1"/>
        <path class="cls-1" d="M275.38,24.33a1.32,1.32,0,0,0,.17-.48,18.2,18.2,0,0,1,.48-5,2.63,2.63,0,0,0-.79-2.8c-1.28-1.26-2.08-3-3.5-4.18a15.29,15.29,0,0,0-9.86-3.78,9.32,9.32,0,0,0-3.72.57,4.22,4.22,0,0,1-3.48.12,5.67,5.67,0,0,1-2.91-1.91,12.75,12.75,0,0,0-8.62-5.49,14.42,14.42,0,0,0-15,5.82,1.42,1.42,0,0,0-.23,1.7,4.91,4.91,0,0,1,.25,1"/>
        <path class="cls-1" d="M148,25.65a3.75,3.75,0,0,0,1.41,3.52c2.78,2.68,4.93,5.93,7.45,8.86A48.87,48.87,0,0,0,168.4,47.5a2.92,2.92,0,0,0,3.36.11"/>
        <path class="cls-1" d="M143.32,25.65A4.12,4.12,0,0,1,142,28.93c-2.53,2.53-4.59,5.49-6.89,8.24A41.62,41.62,0,0,1,122,47.84c-1,.51-1,1.49-1.31,2.29"/>
        <path class="cls-1" d="M99.28,105a19.31,19.31,0,0,0,1,2.39c.8,1.42,0,2.75-.16,4.09a17.34,17.34,0,0,0,1.09,9.73,17,17,0,0,0,12.24,10.34c.79.19,1.7-.32,2.35.45"/>
        <path class="cls-1" d="M53.74,96.81c-.83.91-.47,2.11-.59,3.13a24.28,24.28,0,0,1-6,13.18,32.77,32.77,0,0,1-3.12,3,4,4,0,0,0-1.43,2.53"/>
        <path class="cls-1" d="M299.56,7.89c-.48.2-1,.38-1.44.61a4.6,4.6,0,0,1-3.73.27c-4.89-1.63-9.31-.41-13.3,2.62a12.21,12.21,0,0,0-3.28,3.68,4.28,4.28,0,0,1-1.65,1.7"/>
        <path class="cls-1" d="M314.86,96.81a3.09,3.09,0,0,0-.67,1.92A22.26,22.26,0,0,1,309.88,111a21.34,21.34,0,0,1-4.08,4.56,3.52,3.52,0,0,0-1.08,1.68"/>
        <path class="cls-1" d="M115.72,19.05a16.65,16.65,0,0,0-10.21,4.43,18.14,18.14,0,0,0-4.66,7,6.18,6.18,0,0,1-1.1,2.26c-.46.49-.19,1-.11,1.45a10.23,10.23,0,0,1,.24,2.64,9.15,9.15,0,0,0,.53,4.07,3.33,3.33,0,0,1-.21,2.75c-.35.76-.57,1.55-.92,2.3"/>
        <path class="cls-1" d="M191.8,33.09a5.6,5.6,0,0,1-1.22-2.15c-2.19-6-6.28-10-12.58-11.52-.82-.19-1.68-.25-2.52-.37"/>
        <path class="cls-1" d="M240.64,27.69a3.38,3.38,0,0,1,3.27,1c5.14,4.62,10,9.56,14.84,14.44a4,4,0,0,0,2.53,1.43"/>
        <path class="cls-1" d="M89.5,26.37a1.81,1.81,0,0,0,1.25,1,12.47,12.47,0,0,1,5.9,3.44,10.44,10.44,0,0,0,2.63,2.28"/>
        <path class="cls-1" d="M40.72,119.73a7.23,7.23,0,0,0-3.37-.06c-1.56.37-3.24.19-4.79.78"/>
        <path class="cls-1" d="M221,121.05c.37.86,1.23,1.25,1.81,1.92a.88.88,0,0,0,.71.25c.76,0,1.52.08,2.28.11a3.65,3.65,0,0,0,3.35-2.16,12.17,12.17,0,0,0,.61-1.32"/>
        <path class="cls-1" d="M253.12,123.33v1.92"/>
        <path class="cls-1" d="M32.44,118.53c-.16.76.37,1.62-.36,2.28"/>
        <path class="cls-1" d="M227.2,123.33v1.92"/>
        <path class="cls-1" d="M223.12,123.33v1.92"/>
        <path class="cls-1" d="M38.2,142.77v1.92"/>
        <path class="cls-1" d="M68.2,142.77v1.92"/>
        <path class="cls-1" d="M257.2,123.33v1.92"/>
        <path class="cls-1" d="M318.88,142.53v1.92"/>
        <path class="cls-1" d="M323.32,144.45a5.46,5.46,0,0,1-1.8.12"/>
        <path class="cls-1" d="M170.08,48.33l.48,1.8"/>
        <path class="cls-1" d="M96.4,73.29H94.6"/>
        <path class="cls-1" d="M196.6,73.29l-1.8.12"/>
        <path class="cls-1" d="M48.76,27.57l1.8.12"/>
        <path class="cls-1" d="M309.76,25.65v1.8"/>
        <path class="cls-1" d="M96.4,77.49l-1.8.12"/>
        <path class="cls-1" d="M196.6,77.49h-1.8"/>
        <path class="cls-1" d="M64.12,142.77v1.8"/>
        <path class="cls-1" d="M116,81.81l-1.8.12"/>
        <path class="cls-1" d="M227.08,142.77v1.8"/>
        <path class="cls-1" d="M237.76,25.65v1.8"/>
        <path class="cls-1" d="M147.88,27.69h-1.8"/>
        <path class="cls-1" d="M221.44,118.53v1.8"/>
        <path class="cls-1" d="M116.44,86.13a5.46,5.46,0,0,1-1.8.12"/>
        <path class="cls-1" d="M174.76,86.25h1.8"/>
        <path class="cls-1" d="M143.32,27.69h1.8"/>
        <path class="cls-1" d="M323.32,123.33l-1.8-.12"/>
        <path class="cls-1" d="M295.84,9.33l.6,1.68"/>
        <path class="cls-1" d="M119.44,47.61l1.68.6"/>
        <path class="cls-1" d="M252.64,8.13l-.48,1.68"/>
        <path class="cls-1" d="M117.76,51.57l1.68.72"/>
        <path class="cls-1" d="M324.64,8.13l-.48,1.68"/>
        <path class="cls-1" d="M257.08,142.77v1.68"/>
        <path class="cls-1" d="M34.12,142.77v1.68"/>
        <path class="cls-1" d="M328.36,9.33,327.88,11"/>
        <path class="cls-1" d="M34.84,9.33A5.22,5.22,0,0,1,35.32,11"/>
        <path class="cls-1" d="M223.84,9.33l.6,1.68"/>
        <path class="cls-1" d="M256.36,9.33,255.88,11"/>
        <path class="cls-1" d="M20.08,108.21c-.61-.1-1.09.36-1.68.36"/>
        <path class="cls-1" d="M74.8,69.33a3.45,3.45,0,0,1-1.68.24"/>
        <path class="cls-1" d="M147.64,6.45V8.13"/>
        <path class="cls-1" d="M143.56,6.45V8.13"/>
        <path class="cls-1" d="M190.36,108.81c-.54-.1-1-.56-1.56-.48"/>
        <path class="cls-1" d="M321.76,57.69c.27.51,0,1.05.12,1.56"/>
        <path class="cls-1" d="M67.36,9.45,67,11"/>
        <path class="cls-1" d="M249.76,57.69c.27.51,0,1.05.12,1.56"/>
      </g>
    </g>
  </g>
</svg>
