<svg xmlns="http://www.w3.org/2000/svg" viewBox="0 0 367.88 157.37">
  <defs>
    <style>
      .cls-1 {
        fill: none;
        stroke: #000;
        stroke-linecap: round;
        stroke-linejoin: round;
        stroke-width: 2px;
      }
    </style>
  </defs>
  <g id="Layer_2" data-name="Layer 2">
    <g id="Layer_5" data-name="Layer 5">
      <g>
        <path class="cls-1" d="M55.24,142.12c-2.2,0-4.4,0-6.6,0a6,6,0,0,1-3.6-1.22c-.25-.18-.53-.61-.71-.57-1.65.4-2.6-.92-3.85-1.46a4.71,4.71,0,0,0-1.32-.36A4.6,4.6,0,0,1,37,137.8c-1-.62-1.84-1.4-3.12-1.09-.38.1-.49-.3-.72-.47a5.94,5.94,0,0,0-3.36-1.34A5.36,5.36,0,0,1,27,133.72c-.25-.18-.53-.61-.71-.57-1.65.4-2.59-.92-3.85-1.46a4.64,4.64,0,0,0-1.92-.38c-2.2,0-4.4,0-6.6,0"/>
        <path class="cls-1" d="M100.12,142.12c-2.12,0-4.24,0-6.36,0a6,6,0,0,1-3.6-1.22c-.25-.18-.53-.61-.71-.57-1.65.4-2.59-.92-3.85-1.46a4.06,4.06,0,0,0-1.44-.35,4.7,4.7,0,0,1-3.09-1.26,2.14,2.14,0,0,0-1.71-.56,1.65,1.65,0,0,1-1.34-.46,5.19,5.19,0,0,0-3.1-1.35,5.83,5.83,0,0,1-2.76-1.19c-.25-.18-.53-.61-.71-.57-1.65.4-2.59-.92-3.85-1.46a4.64,4.64,0,0,0-1.92-.38c-2.28,0-4.56,0-6.84,0"/>
        <path class="cls-1" d="M244.12,142.12c-2.12,0-4.24,0-6.36,0a6,6,0,0,1-3.6-1.22c-.25-.18-.53-.61-.71-.57-1.65.4-2.59-.92-3.85-1.46a4.06,4.06,0,0,0-1.44-.35,4.7,4.7,0,0,1-3.09-1.26,2.14,2.14,0,0,0-1.71-.56,1.65,1.65,0,0,1-1.34-.46,5.19,5.19,0,0,0-3.1-1.35,5.83,5.83,0,0,1-2.76-1.19c-.25-.18-.53-.61-.71-.57-1.65.4-2.59-.92-3.85-1.46a4.64,4.64,0,0,0-1.92-.38c-2.28,0-4.56,0-6.84,0"/>
        <path class="cls-1" d="M289.24,142.12c-2.2,0-4.4,0-6.6,0a6,6,0,0,1-3.6-1.22c-.25-.18-.53-.61-.71-.57-1.65.4-2.6-.92-3.85-1.46a4.71,4.71,0,0,0-1.32-.36,4.6,4.6,0,0,1-2.16-.73c-.95-.62-1.84-1.4-3.12-1.09-.38.1-.49-.3-.72-.47a5.94,5.94,0,0,0-3.36-1.34,5.36,5.36,0,0,1-2.76-1.18c-.25-.18-.53-.61-.71-.57-1.65.4-2.59-.92-3.85-1.46a4.64,4.64,0,0,0-1.92-.38c-2.2,0-4.4,0-6.6,0"/>
        <path class="cls-1" d="M249.76,115a5.57,5.57,0,0,0,4.68,1.92,5.38,5.38,0,0,1,3.48,1.2c.25.18.53.61.71.57,1.65-.4,2.59.92,3.85,1.46a4.06,4.06,0,0,0,1.44.35,4.7,4.7,0,0,1,3.09,1.26,2.14,2.14,0,0,0,1.71.56,1.65,1.65,0,0,1,1.34.46,5.25,5.25,0,0,0,3.1,1.35,5.24,5.24,0,0,1,2.64,1.13c.24.18.53.55.71.51,1.7-.4,2.79.82,4.09,1.46a6.59,6.59,0,0,0,2.88.49c1.92,0,3.84,0,5.76,0"/>
        <path class="cls-1" d="M60.88,115a5.56,5.56,0,0,0,4.68,1.92,5.38,5.38,0,0,1,3.48,1.2c.25.18.53.61.71.57,1.65-.4,2.6.92,3.85,1.46a4.71,4.71,0,0,0,1.32.36,4.6,4.6,0,0,1,2.16.73c1,.62,1.84,1.4,3.12,1.09.38-.1.49.3.72.47a5.94,5.94,0,0,0,3.36,1.34,4.83,4.83,0,0,1,2.64,1.12c.24.18.53.55.71.51,1.7-.4,2.79.82,4.09,1.46a6.59,6.59,0,0,0,2.88.49c1.84,0,3.68,0,5.52,0"/>
        <path class="cls-1" d="M351.4,154.06a6.18,6.18,0,0,0-3-1.16,7.44,7.44,0,0,1-3.71-2,6.49,6.49,0,0,0-3.73-1.58,6.22,6.22,0,0,1-3.58-1.91,6.56,6.56,0,0,0-4.7-1.66h-3.84"/>
        <path class="cls-1" d="M315.4,154.06a6.18,6.18,0,0,0-3-1.16,7.44,7.44,0,0,1-3.71-2,6.49,6.49,0,0,0-3.73-1.58,6.22,6.22,0,0,1-3.58-1.91,6.56,6.56,0,0,0-4.7-1.66h-3.84"/>
        <path class="cls-1" d="M325.24,142.12c-1.52,0-3-.06-4.56,0a5.49,5.49,0,0,1-4.29-1.73,5.86,5.86,0,0,0-3.87-1.9c-1.55-.13-2.69-1.13-3.83-2a6.71,6.71,0,0,0-3.73-1.59,5.08,5.08,0,0,1-3.24-1.76,5.48,5.48,0,0,0-4.32-1.81c-1.52.05-3,0-4.56,0"/>
        <path class="cls-1" d="M361.24,142.12c-1.52,0-3-.06-4.56,0a5.49,5.49,0,0,1-4.29-1.73,5.86,5.86,0,0,0-3.87-1.9c-1.55-.13-2.69-1.13-3.83-2a6.71,6.71,0,0,0-3.73-1.59,5.08,5.08,0,0,1-3.24-1.76,5.48,5.48,0,0,0-4.32-1.81c-1.52.05-3,0-4.56,0"/>
        <path class="cls-1" d="M361.24,127.72c-1.68-.06-3.36,0-5-.09a5.2,5.2,0,0,1-3.11-1.25,8.5,8.5,0,0,0-4.93-2.38c-1.38-.11-2.35-1-3.34-1.83a7.11,7.11,0,0,0-3.74-1.68,7.06,7.06,0,0,1-3.59-2,6.06,6.06,0,0,0-4.45-1.55c-1.4.07-2.8,0-4.2,0"/>
        <path class="cls-1" d="M231.76,154.84a5.85,5.85,0,0,0-4.08-2,5.09,5.09,0,0,1-2.64-1.17c-.25-.18-.53-.61-.71-.57-1.65.4-2.6-.92-3.85-1.46a4.71,4.71,0,0,0-1.32-.36,4.46,4.46,0,0,1-2.16-.73,3.88,3.88,0,0,0-3.12-1c-.35.08-.52-.16-.72-.36a6.12,6.12,0,0,0-4.56-1.56h-5.76"/>
        <path class="cls-1" d="M87.76,154.84a5.85,5.85,0,0,0-4.08-2A5.09,5.09,0,0,1,81,151.72c-.25-.18-.53-.61-.71-.57-1.65.4-2.6-.92-3.85-1.46a4.71,4.71,0,0,0-1.32-.36A4.46,4.46,0,0,1,73,148.6a3.88,3.88,0,0,0-3.12-1c-.35.08-.52-.16-.72-.36a6.12,6.12,0,0,0-4.56-1.56H58.84"/>
        <path class="cls-1" d="M276.64,154.84a6,6,0,0,0-3.84-1.94,5.28,5.28,0,0,1-2.76-1.3c-.2-.16-.44-.49-.59-.45-1.64.41-2.59-.92-3.85-1.46a4.28,4.28,0,0,0-1.44-.35,5.61,5.61,0,0,1-3-1.16c-.24-.17-.53-.55-.71-.51-1.7.4-2.79-.82-4.09-1.46a6.59,6.59,0,0,0-2.88-.49H248"/>
        <path class="cls-1" d="M42.64,154.84a6,6,0,0,0-3.84-1.94A5.28,5.28,0,0,1,36,151.6c-.2-.16-.44-.49-.59-.45-1.64.41-2.59-.92-3.85-1.46a4.28,4.28,0,0,0-1.44-.35,5.61,5.61,0,0,1-3-1.16c-.24-.17-.53-.55-.71-.51-1.7.4-2.79-.82-4.09-1.46a6.59,6.59,0,0,0-2.88-.49H14"/>
        <path class="cls-1" d="M116.86,62.32a3.08,3.08,0,0,1,.71,2.89c-.46,1.77-.38,3.67-1.47,5.28a3.34,3.34,0,0,1-1,1.05A3.83,3.83,0,0,0,113,74.68a5.6,5.6,0,0,1-1.82,3.48A5.13,5.13,0,0,0,109.35,82a4.61,4.61,0,0,1-.83,2.28c-.25.44-.75.73-.72,1.32"/>
        <path class="cls-1" d="M292.84,116.92c1.4,0,2.8.06,4.2,0a6.06,6.06,0,0,1,4.08,1.22"/>
        <path class="cls-1" d="M309.88,123a5.89,5.89,0,0,0,3.12,1.16,6.24,6.24,0,0,1,3.7,1.93,6.65,6.65,0,0,0,4.7,1.65h3.84"/>
        <path class="cls-1" d="M131.38,65.8c-.12.55.63.76.45,1.45-.45,1.73-.29,3.63-1.48,5.14-.14.18-.27.39-.59.38s-1-.19-1.31.24a4.27,4.27,0,0,0-1.08,2.39,5,5,0,0,1-.48,1.69c-.38.86-.81,1.55-1.89,1.13a6.11,6.11,0,0,0-1.29,3.42,7.32,7.32,0,0,1-.8,2.28.63.63,0,0,1-.35.35c-2,.38-1.84,2-1.87,3.37a13.81,13.81,0,0,0,.67,4.2"/>
        <path class="cls-1" d="M39.28,123a24.86,24.86,0,0,1,2.5,2.18,2.15,2.15,0,0,0,2.51.5,2.43,2.43,0,0,0,1.36-2.32c0-1.6,0-3.2,0-4.8"/>
        <path class="cls-1" d="M228.16,123a32,32,0,0,1,2.86,2.3,2.14,2.14,0,0,0,2.39.37,2.2,2.2,0,0,0,1.23-2.07c0-1.68,0-3.36,0-5"/>
        <path class="cls-1" d="M205.84,49.72c-.46,1.57-1.25,3.05-.88,4.81a2.54,2.54,0,0,1-.31,1.56,2.5,2.5,0,0,0-.25,2.15c.18.46-.2.73-.36,1.08a7.63,7.63,0,0,0-.73,3.12,6.3,6.3,0,0,1-.69,2.77,20.62,20.62,0,0,0-1.75,4.56,16.17,16.17,0,0,0,.08,4.55c.08.72,0,1.44.09,2.16"/>
        <path class="cls-1" d="M4.48,32.32c.44,1.12.83,2.26,1.33,3.35a3.63,3.63,0,0,1,0,2.91,7,7,0,0,1-2.31,3.84c-1.12.82-1.27,2.2-1.44,3.46a41.86,41.86,0,0,0-.74,7.32c0,.32,0,.63-.36.78"/>
        <path class="cls-1" d="M58.84,5.32c-.68,0-1.36,0-2,0a2.82,2.82,0,0,1-2.3-.71,3.7,3.7,0,0,0-2.62-.85,5.25,5.25,0,0,1-3-.74,2.71,2.71,0,0,0-2.29-.35,9.48,9.48,0,0,0-1.79.38,2.5,2.5,0,0,1-2.17-.14,4.77,4.77,0,0,0-3.6,0A47.63,47.63,0,0,0,32.1,5.84a2.71,2.71,0,0,1-2.91.22,2.63,2.63,0,0,0-1-.14"/>
        <path class="cls-1" d="M247.72,5.32c-.64,0-1.28,0-1.92,0a3.22,3.22,0,0,1-2.42-.71,4.26,4.26,0,0,0-2.74-.85,3.48,3.48,0,0,1-2-.46,3.7,3.7,0,0,0-3.73-.48,5.38,5.38,0,0,1-3.85,0c-1.52-.55-2.93,0-4.32.59a36.64,36.64,0,0,0-5.4,2.39,3,3,0,0,1-3,.38,3.21,3.21,0,0,0-.95-.13"/>
        <path class="cls-1" d="M162.76,11.14a4,4,0,0,1-3.61.35,34,34,0,0,0-5.15-.76,5.59,5.59,0,0,1-2.88-1.33,2.49,2.49,0,0,0-3.66.6"/>
        <path class="cls-1" d="M319.72,5.32c-.64,0-1.28,0-1.92,0a3.22,3.22,0,0,1-2.42-.71,4.26,4.26,0,0,0-2.74-.85,3.48,3.48,0,0,1-2-.46,3.7,3.7,0,0,0-3.73-.48,5.38,5.38,0,0,1-3.85,0c-1.52-.55-2.93,0-4.32.59a36.64,36.64,0,0,0-5.4,2.39,3,3,0,0,1-3,.38,3.21,3.21,0,0,0-.95-.13"/>
        <path class="cls-1" d="M216.52,113.8c0,.88,0,1.76,0,2.64a2.24,2.24,0,0,1-1.24,2.21,2.1,2.1,0,0,1-2.29-.49,4.82,4.82,0,0,0-3.56-1.26c-2.2.06-4.4,0-6.6,0"/>
        <path class="cls-1" d="M165.52,155.38c-1.49-1.08-2.89,0-4.32.18-3.15.45-6.27,1.27-9.48.48"/>
        <path class="cls-1" d="M27.52,113.68c0,.88,0,1.76,0,2.64A2.26,2.26,0,0,1,25,118.74a1.54,1.54,0,0,1-1-.49,5.63,5.63,0,0,0-3.83-1.35c-2.08.07-4.16,0-6.24,0"/>
        <path class="cls-1" d="M166.9,1c.35,1.42,1.39,2,2.69,2.43a39.72,39.72,0,0,1,6,2.84,4.71,4.71,0,0,1,2.46,2.67c.45,1.64,1.94,2.05,3,2.92.41.34,1.39,0,2.11-.07,1-.09,2-.23,3-.35"/>
        <path class="cls-1" d="M345.52,8.8a3.45,3.45,0,0,1,3.62.58c2.09,1.62,4.29,3.11,6.22,4.94a3.56,3.56,0,0,1,1.2,2.28,4.21,4.21,0,0,0,1.69,3.1,3.53,3.53,0,0,1,1.43,3,5.46,5.46,0,0,0,.82,2.65,4.29,4.29,0,0,1,.49,2.39,4.7,4.7,0,0,0,2.77,4.67c1,.39,2.08.73,3.12,1.09"/>
        <path class="cls-1" d="M273.52,8.8a3.45,3.45,0,0,1,3.62.58c2.09,1.62,4.28,3.12,6.22,4.94a3.19,3.19,0,0,1,1.17,2,5.29,5.29,0,0,0,2.2,3.83,2.33,2.33,0,0,1,.86,1.93,6.73,6.73,0,0,0,.9,3.26,3.84,3.84,0,0,1,.39,3"/>
        <path class="cls-1" d="M294.76,34.12c2-.21,3.51-1.53,4.88-2.81a3.2,3.2,0,0,1,3.63-.63c.36.13.74.17,1.1.31a3.56,3.56,0,0,0,3.26-.17,6,6,0,0,1,4.77-.54"/>
        <path class="cls-1" d="M85.84,5.92c.19,1.94,1.37,3,3,4a51.11,51.11,0,0,1,5,3.79,3.55,3.55,0,0,1,1.51,2.17c.17,1.86,1.3,3,2.42,4.33a2.65,2.65,0,0,0,1.83,1.07c1.2.12,2.4.31,3.6.47"/>
        <path class="cls-1" d="M96.64,77.92c0,.38.07.77-.24,1.08a7.11,7.11,0,0,0-1.69,3.36,2.79,2.79,0,0,1-.36,1c-1.33,2-1.47,4.4-2.16,6.61-.39,1.27.11,2.48.17,3.72s.56,2.31.64,3.48a1.2,1.2,0,0,0,1.12,1.26"/>
        <path class="cls-1" d="M362.92,42.76a8,8,0,0,0-.53,5.53,47.78,47.78,0,0,1,.65,5.63"/>
        <path class="cls-1" d="M19.12,44.08c-2.39,1.4-2.87,3.76-3.12,6.24a14.69,14.69,0,0,0-.23,3.24c.06.58-.53.48-.73.78"/>
        <path class="cls-1" d="M68.2,10.36a6.78,6.78,0,0,0,4,3c1.51.52,3,1.17,4.45,1.79a2.42,2.42,0,0,1,1.71,2c.13.94.61,1.83.78,2.77A1.81,1.81,0,0,0,80,21.3c1.25.84,2.45,1.76,3.63,2.71a6.25,6.25,0,0,1,2.48,4.23,1.42,1.42,0,0,0,1.58,1.47c1.33.07,2.64.37,4,.57"/>
        <path class="cls-1" d="M211.84,80.08c-.18,2.44,0,4.91-.59,7.32a4.39,4.39,0,0,1-1.69,2.52"/>
        <path class="cls-1" d="M44.56,125.8a6,6,0,0,0,4.8,1.92h5.88"/>
        <path class="cls-1" d="M160.6,139.72a1.77,1.77,0,0,1-1.8,1.59c-1.29.11-2.55.49-3.84.68a5.73,5.73,0,0,1-4.31-1.2c-.41-.3-.76-.68-1.33-.59"/>
        <path class="cls-1" d="M185.68,20.92a6.17,6.17,0,0,0,1.2,4,3.75,3.75,0,0,1,.72,2.28c0,.81-.15,1.67.6,2.28.25.2.15.5.1.72a4.68,4.68,0,0,0,.62,3.48c.48.84.91,1.71,1.45,2.51a6,6,0,0,0,3.83,2.53"/>
        <path class="cls-1" d="M329.2,10.36c1.39,2.32,3.84,2.94,6.12,3.84a9.69,9.69,0,0,1,1.91.86,3.24,3.24,0,0,0,3.73.22"/>
        <path class="cls-1" d="M257.2,10.36c1.39,2.32,3.84,2.94,6.12,3.84a9.69,9.69,0,0,1,1.91.86,3.24,3.24,0,0,0,3.73.22"/>
        <path class="cls-1" d="M233.68,125.8a6,6,0,0,0,4.8,1.92h5.64"/>
        <path class="cls-1" d="M40.36,30.16c1.44.4,2.9.74,4.31,1.23.55.19.83-.13,1.21-.27,1.55-.6,3-1.39,4.8-1,.42.1.88.12,1,.72.23,1.55,1.51,1.51,2.63,1.67.35.05.72,0,1.08,0,1.21.09,1.67.48,1.66,1.68a1.43,1.43,0,0,0,1.1,1.55,8.38,8.38,0,0,1,2.64,1.09"/>
        <path class="cls-1" d="M313.18,29.32c-1,1.44-.57,2.49,1.13,3,1.19.37,2.53-.06,3.61.83a6.61,6.61,0,0,1,.25,1.55.77.77,0,0,0,.59.84c.52.21,1,.42,1.56.6,1.57.51,1.79.68,1.52,2.27a1.52,1.52,0,0,0,1,1.81,3.62,3.62,0,0,0,3.72,0"/>
        <path class="cls-1" d="M241.18,29.32c-1,1.44-.57,2.49,1.13,3,1.19.37,2.53-.06,3.61.83a6.61,6.61,0,0,1,.25,1.55.77.77,0,0,0,.59.84c.52.21,1,.42,1.56.6,1.57.51,1.79.68,1.52,2.27a1.52,1.52,0,0,0,1,1.81,3.62,3.62,0,0,0,3.72,0"/>
        <path class="cls-1" d="M57.16,19.72c-1.12-.39-1.9-1.45-3.24-1.47a16.93,16.93,0,0,1-4.23-1.06,24.63,24.63,0,0,0-4.17-.83c-1.47-.15-2.75.55-4.07,1a4.37,4.37,0,0,0-1.32.59c-1.73,1.4-3.5.88-5.29.22a3,3,0,0,0-3.26.45C30.07,19.83,28.49,21,27,22.23a5.36,5.36,0,0,1-3.83,1.09"/>
        <path class="cls-1" d="M148,9a6,6,0,0,0-4.08-1.21,4.65,4.65,0,0,1-2.63-.61A2.32,2.32,0,0,0,139,7.13a4,4,0,0,1-3.14.25,5.63,5.63,0,0,0-3,.08,3.68,3.68,0,0,1-1.91.1c-1.6-.57-2.75.27-4,1-.37.22-.69.58-1.2.49-2.44-.4-4.26.85-6,2.28a19.34,19.34,0,0,0-2.49,2.18A4.17,4.17,0,0,1,113.2,15"/>
        <path class="cls-1" d="M184,137.2a6.07,6.07,0,0,0-3.86,1.18,3.13,3.13,0,0,1-2,.71A4.5,4.5,0,0,0,175,140c-.39.31-1.24.1-1.88,0a4,4,0,0,0-2.39.5A33.61,33.61,0,0,1,165.5,143a2.44,2.44,0,0,0-1.6,1.62"/>
        <path class="cls-1" d="M132.88,150.4a6.69,6.69,0,0,0,1.78-.62,4.65,4.65,0,0,1,4.83-.37,2.68,2.68,0,0,1,1.25.87,5.46,5.46,0,0,0,2.94,2,5.16,5.16,0,0,1,2.88,2.16"/>
        <path class="cls-1" d="M248.08,5.56a6.63,6.63,0,0,0,3.23,1.85A4.52,4.52,0,0,1,254,9.15a2.34,2.34,0,0,0,1.05.66,4.14,4.14,0,0,0,4.23-.76,8.5,8.5,0,0,1,1.31-.67"/>
        <path class="cls-1" d="M320.08,5.56a6.63,6.63,0,0,0,3.23,1.85A4.52,4.52,0,0,1,326,9.15a2.34,2.34,0,0,0,1,.66,4.14,4.14,0,0,0,4.23-.76,8.5,8.5,0,0,1,1.31-.67"/>
        <path class="cls-1" d="M318.28,19.72c-1.08-.27-1.81-1.2-3-1.36-1.58-.21-3.24-.31-4.57-1.4-1.55.42-2.86-.64-4.32-.7a9.09,9.09,0,0,0-4.65,1.47c-1.94,1-3.77,1.49-5.79.43s-3.29.26-4.53,1.35a5.66,5.66,0,0,1-3.75,1.65"/>
        <path class="cls-1" d="M246.28,19.72c-1.08-.27-1.81-1.2-3-1.36-1.58-.21-3.24-.31-4.57-1.4-1.55.42-2.86-.64-4.32-.7a9.09,9.09,0,0,0-4.65,1.47c-1.94,1-3.75,1.46-5.8.44a3.1,3.1,0,0,0-3.6.58c-1.44,1.2-3,2.3-4.42,3.5a5.3,5.3,0,0,1-2.29,1.07c-3.06.73-3.38,1.61-3,4.08.15.92.32,1.84.48,2.76"/>
        <path class="cls-1" d="M97.72,46a6.19,6.19,0,0,0-2.41,3.6c-.4,1.57-.9,3.11-1.29,4.68-.1.42-.27.93.16,1.32"/>
        <path class="cls-1" d="M101.92,107.26c1,.46,2.09.9,3.12,1.39a.92.92,0,0,1,.49,1.31,6.53,6.53,0,0,0,0,4.32,3.92,3.92,0,0,1,0,2c-.17.81-.58,1.67.22,2.41.06,0,0,.24,0,.35-.58,1.65-.11,3.23.37,4.8a3.79,3.79,0,0,1,.11,1.2c0,1.16-.17,2.34.83,3.25a.88.88,0,0,1,.26.83c-.5,2.1.64,3.64,1.8,5.15a15.92,15.92,0,0,0,2.42,2.85,4.19,4.19,0,0,1,1.53,4.12"/>
        <path class="cls-1" d="M108.16,85.78c-.75-.4-.75.35-1,.67a6.14,6.14,0,0,0-.62,4.67c.25,1.11.43,2.24.59,3.36a3,3,0,0,1-.16,1"/>
        <path class="cls-1" d="M197.44,80.08c-.08,1.72-.05,3.45-.27,5.16a4.75,4.75,0,0,1-2,3.48"/>
        <path class="cls-1" d="M104.74,98.56c-.43.39-.26.9-.16,1.32.31,1.25.65,2.5,1.07,3.72a7.39,7.39,0,0,1-.25,5.16"/>
        <path class="cls-1" d="M59.2,5.56C60.29,7,62.07,7.18,63.53,7.94a2.28,2.28,0,0,1,.94.62c.8,1.24,2.14,1.25,3.36,1.6.51.15.7-.18,1-.31A22.85,22.85,0,0,1,72,8.26"/>
        <path class="cls-1" d="M162,17.08c1.56-1.22,2.9,0,4.18.52,2.22.92,4.28,2.15,4.95,4.76.1.39.36.56.83.49,1.52-.2,3.06-.16,4.56-.49"/>
        <path class="cls-1" d="M338.32,21.28A3.31,3.31,0,0,1,342,22a45.92,45.92,0,0,1,3.81,3.16A4.23,4.23,0,0,1,347,28c0,1.09.43,1.52,1.55,1.68l4.2.6"/>
        <path class="cls-1" d="M266.32,21.28A3.31,3.31,0,0,1,270,22a45.92,45.92,0,0,1,3.81,3.16A4.23,4.23,0,0,1,275,28c0,1.09.43,1.52,1.55,1.68l4.2.6"/>
        <path class="cls-1" d="M100.6,69.88a1.25,1.25,0,0,1-.45,1.11,4.62,4.62,0,0,0-1.6,3.33,5.05,5.05,0,0,1-1.79,3.36"/>
        <path class="cls-1" d="M251,107.44a13.12,13.12,0,0,0,0,2.51c.36,1.9-.75,3.24-1.59,4.69-.16.27-.45.24-.72.24a33.55,33.55,0,0,0-7.2.83,4.71,4.71,0,0,0-2.39,1,7.35,7.35,0,0,1-4.69,1.73,6.58,6.58,0,0,0-4.92,2.58l-1.2,1.44"/>
        <path class="cls-1" d="M103.3,60c.82,1,0,2.09,0,3.12s-.34,1.9-.45,2.88a4.46,4.46,0,0,1-1.78,3.24"/>
        <path class="cls-1" d="M197.38,102.28c.42.76.81,1.54,1.27,2.28a1.08,1.08,0,0,1-.38,1.66,6.56,6.56,0,0,0-3.12,4.22c-.11.45-.33.87-.47,1.32a4.53,4.53,0,0,1-3.84,3.46c-2,.31-2.91,1.65-3.59,3.26-1.2,2.87-3.5,4.23-6.37,4.93a5.32,5.32,0,0,0-2.52,1.43,4.49,4.49,0,0,1-4,1.35,4.64,4.64,0,0,0-3,.81c-1.48.89-2.93,1.5-4.69.63a3.6,3.6,0,0,0-3.09.38,22.34,22.34,0,0,1-2.31,1.12,2.31,2.31,0,0,0-1.67,2"/>
        <path class="cls-1" d="M120.88,133.72a4.33,4.33,0,0,1,4.1,1.54,19.54,19.54,0,0,0,2.38,1.94,7.51,7.51,0,0,1,2.85,3.85c.08.28.15.49.39.58a4,4,0,0,1,2.19,2.4,3.23,3.23,0,0,0,1.41,1.45,6.75,6.75,0,0,1,2.88,3.12"/>
        <path class="cls-1" d="M136.48,16.24c-.44,1.32-.91,2.63-1.31,4-.16.54-.48.83-1,.7-2.44-.65-4.18.66-5.87,2.07-.92.76-1.67,1.85-2.79,2.21a7.64,7.64,0,0,1-2.74,0,3.81,3.81,0,0,0-3.76,2c-.59.88-1.35,1.68-2,2.53A5.37,5.37,0,0,1,113.2,32"/>
        <path class="cls-1" d="M61.84,107.44a19.32,19.32,0,0,0,0,3.23c.28,1.6-.78,2.62-1.37,3.84-.21.44-.74.35-1.18.37a24.08,24.08,0,0,0-4.43.29c-2,.46-4.06.46-5.69,2.07-1,1-2.6,1-3.93,1.17A6.87,6.87,0,0,0,41,120.52c-.53.56-1,1.12-1.56,1.68"/>
        <path class="cls-1" d="M114.4,118.72c1.32.36,2.63.76,4,1.06.5.11.7.33.59.74-.57,2.1.57,3.63,1.7,5.16a6.8,6.8,0,0,0,1.33,1.54,3.63,3.63,0,0,1,1.29,3.74,25.47,25.47,0,0,0-.11,2.76"/>
        <path class="cls-1" d="M106.72,37a5.55,5.55,0,0,0,2-1.55A6.93,6.93,0,0,1,112.11,33a1.22,1.22,0,0,0,.87-1.66c-.32-1.43-.5-2.88-.74-4.32"/>
        <path class="cls-1" d="M193.6,32.32A15.58,15.58,0,0,0,195,36a1.53,1.53,0,0,1-.13,1.79,2.29,2.29,0,0,0-.6,1.69A3,3,0,0,1,193,42l-.48.36a3.36,3.36,0,0,0-1.37,3.85,65.27,65.27,0,0,1,.76,6.71c.06.59-.54.95-.62,1.56a25,25,0,0,0-.09,3.12,5.35,5.35,0,0,1-1,3.24"/>
        <path class="cls-1" d="M208.3,88.72c.26.4.53.79.78,1.2a1.37,1.37,0,0,1-.24,1.92,6.15,6.15,0,0,0-2,3.12,4.45,4.45,0,0,1-1.19,1.94c-.55.58-1.44,1-1.35,2a.21.21,0,0,1-.1.26c-1.55,1.09-2.34,2.79-3.39,4.29A4.92,4.92,0,0,1,199,105"/>
        <path class="cls-1" d="M265.48,57.28a3.74,3.74,0,0,1-1.54,3.87,14.82,14.82,0,0,0-2.29,2.26A5.42,5.42,0,0,1,258,65c-1.21.15-2.61.08-3.57.85-2,1.64-4.44,2-6.87,2.48a4.79,4.79,0,0,0-2.15,1,5.87,5.87,0,0,1-3.73,1.31"/>
        <path class="cls-1" d="M337.48,57.28a3.74,3.74,0,0,1-1.54,3.87,14.82,14.82,0,0,0-2.29,2.26A5.42,5.42,0,0,1,330,65c-1.21.15-2.61.08-3.57.85-2,1.64-4.44,2-6.87,2.48a4.79,4.79,0,0,0-2.15,1,5.87,5.87,0,0,1-3.73,1.31"/>
        <path class="cls-1" d="M275.56,67.36c0,.52,0,1,0,1.56a1.52,1.52,0,0,1-.48,1.33c-1.24,1.16-2.4,2.4-3.61,3.59A4.17,4.17,0,0,1,269,75c-1.06.12-2,.57-3.12.63a3.37,3.37,0,0,0-2,.84c-1.44,1.36-3.31,1.46-5.07,1.88a7,7,0,0,0-3.24,1.33A4.85,4.85,0,0,1,253,80.79c-3,.4-5.7,1.39-7.57,4-.19.27-.54.44-.7.73-.81,1.46-2.22,1.34-3.48,1.15-1.77-.27-3.2-.06-4.35,1.46-.64.85-1.52,1.52-2.25,2.31a5,5,0,0,1-2.89,1.43c-1,.16-1.92.33-2.88.48a3.44,3.44,0,0,0-2,.85c-1.4,1.43-3.24,1.64-5,1.9a6.46,6.46,0,0,0-3.74,1.55,4.69,4.69,0,0,1-3.34,1"/>
        <path class="cls-1" d="M347.56,67.36c0,.52,0,1,0,1.56a1.52,1.52,0,0,1-.48,1.33c-1.24,1.16-2.4,2.4-3.61,3.59A4.17,4.17,0,0,1,341,75c-1.06.12-2,.57-3.12.63a3.37,3.37,0,0,0-2,.84c-1.44,1.36-3.31,1.46-5.07,1.88a7,7,0,0,0-3.24,1.33A4.85,4.85,0,0,1,325,80.79c-2.94.41-5.6,1.32-7.45,3.85-.23.31-.63.52-.82.85-.82,1.45-2.22,1.34-3.48,1.15-1.77-.27-3.2-.06-4.35,1.46-.64.85-1.52,1.52-2.25,2.31a5,5,0,0,1-2.89,1.43c-1,.16-1.92.33-2.88.48a3.44,3.44,0,0,0-2,.85c-1.4,1.43-3.24,1.64-5.05,1.9a6.46,6.46,0,0,0-3.74,1.55,4.69,4.69,0,0,1-3.34,1"/>
        <path class="cls-1" d="M118.6,96.28c.4,1.64.9,3.26,1.17,4.93a4.36,4.36,0,0,1-.77,3.25,4.17,4.17,0,0,0-.4,3.46,6.21,6.21,0,0,1-.12,4.08"/>
        <path class="cls-1" d="M362.56,32.08a4.91,4.91,0,0,0-.22,3.47,6.35,6.35,0,0,1,.1,3.61,3.51,3.51,0,0,0,1.8,4.08c.41.25.8.52,1.2.78"/>
        <path class="cls-1" d="M277.36,85.84a5.1,5.1,0,0,0-3.73,1.31c-1.27,1.19-3,1.17-4.55,1.43A6.06,6.06,0,0,0,265.59,90c-1.23,1.2-2.9,1.19-4.43,1.42a6.23,6.23,0,0,0-4.09,1.94A19.71,19.71,0,0,0,255,95.58c-1,1.53-2.38,1.45-3.76,1.26-1.64-.22-3-.11-4.1,1.35a26,26,0,0,1-2,2,6.73,6.73,0,0,1-3.59,1.86c-2,.47-4,.71-5.69,2.17-1.05.91-2.68.79-4,1.12a7.35,7.35,0,0,0-3.37,1.44,4.54,4.54,0,0,1-2.27,1c-1.08.19-2.17.36-3.24.61a4.67,4.67,0,0,0-2.4,1.31,37.64,37.64,0,0,0-2.73,2.78,3.05,3.05,0,0,1-3,1.18c-.24,0-.48,0-.72,0"/>
        <path class="cls-1" d="M349.36,85.84a5.1,5.1,0,0,0-3.73,1.31c-1.27,1.19-3,1.17-4.55,1.43A6.06,6.06,0,0,0,337.59,90c-1.23,1.2-2.9,1.19-4.43,1.42a6.23,6.23,0,0,0-4.09,1.94A19.71,19.71,0,0,0,327,95.58c-1,1.53-2.38,1.45-3.76,1.26-1.64-.22-3-.11-4.1,1.35a26,26,0,0,1-2,2,6.73,6.73,0,0,1-3.59,1.86c-1.95.47-4,.71-5.69,2.17-1.05.91-2.68.79-4,1.12a7.35,7.35,0,0,0-3.37,1.44,4.54,4.54,0,0,1-2.27,1c-1.08.19-2.17.36-3.24.61a4.5,4.5,0,0,0-2.28,1.19,24.7,24.7,0,0,1-2.42,2.38,4,4,0,0,0-1.66,4.1"/>
        <path class="cls-1" d="M347.8,29.8A6.19,6.19,0,0,0,348.85,34a2.72,2.72,0,0,1,.4,1.66,24.1,24.1,0,0,1-.23,4,6.23,6.23,0,0,0,.32,2.51,4.81,4.81,0,0,1-.66,3.86,6,6,0,0,0-.49,4.89c.24,1,.21,2,.45,3"/>
        <path class="cls-1" d="M76.36,57.28c0,.52,0,1,0,1.56a1.49,1.49,0,0,1-.48,1.33c-1.27,1.16-2.5,2.38-3.73,3.59A3.54,3.54,0,0,1,70,64.81c-1.07.1-2.06.5-3.12.64a4.4,4.4,0,0,0-2.64,1.19A4.05,4.05,0,0,1,62,67.72c-1.08.21-2.17.37-3.24.61a3.53,3.53,0,0,0-1.65.62c-1.61,1.54-3.69,1.74-5.68,2.09a6.06,6.06,0,0,0-3.59,1.84A23.34,23.34,0,0,0,46,74.69a3.92,3.92,0,0,1-4.1,1.67"/>
        <path class="cls-1" d="M92.68,86.44a13.74,13.74,0,0,0-5.4-.6A4.59,4.59,0,0,0,84.64,87a4.05,4.05,0,0,1-2.28,1.08c-1.08.21-2.17.35-3.24.62a4.62,4.62,0,0,0-2.4,1.18A4,4,0,0,1,74.44,91c-1.08.21-2.16.38-3.24.61A6.45,6.45,0,0,0,68,93.52c-.88.88-1.81,1.71-2.62,2.66a1.83,1.83,0,0,1-1.58.59c-1.36,0-2.72.07-4.08.11"/>
        <path class="cls-1" d="M69.76,104.56c0,.48,0,1,0,1.44a2,2,0,0,1-.71,1.82,34.22,34.22,0,0,0-2.77,2.75,5.87,5.87,0,0,1-4.45,1.91"/>
        <path class="cls-1" d="M49.36,84.16c0,.48,0,1,0,1.44a2,2,0,0,1-.72,1.82c-1.13,1-2.18,2-3.25,3.1a4.81,4.81,0,0,1-2.88,1.32c-1.05.15-2.05.5-3.12.64a3.36,3.36,0,0,0-2,1,4.1,4.1,0,0,1-2.51,1.18c-1.09.16-2.12.56-3.24.65a2.56,2.56,0,0,0-1.68.69c-1.41,1.47-3.31,1.66-5.16,1.9a5.78,5.78,0,0,0-3.85,1.81A13.33,13.33,0,0,1,19,101.66a3.92,3.92,0,0,0-1.67,4.1"/>
        <path class="cls-1" d="M86.56,67.36c0,.48,0,1,0,1.44a2,2,0,0,1-.72,1.82c-1.13,1-2.18,2-3.25,3.1A4.81,4.81,0,0,1,79.72,75c-1,.15-2,.5-3.12.64a3.36,3.36,0,0,0-2,1A4.1,4.1,0,0,1,72,77.9c-1.09.16-2.13.55-3.24.65a3.34,3.34,0,0,0-2.16,1,4,4,0,0,1-2.41,1.16,26.07,26.07,0,0,1-3,.63A5,5,0,0,0,58,83.09,39.13,39.13,0,0,0,55.14,86a1.84,1.84,0,0,1-1.58.59c-1.36,0-2.72.07-4.08.11"/>
        <path class="cls-1" d="M183,80.08c-.08,1.44-.07,2.89-.27,4.32a4.19,4.19,0,0,1-1.29,2.52c-.13.11-.25.35-.36.34-1.86-.16-2,1.45-2.63,2.54-.33.58-.5,1.25-.87,1.79s-.82,1.07-1.66.86c-.67-.16-1,.41-1.32.83-.83,1-1.15,2.35-2.16,3.25a1,1,0,0,1-1,.34c-1.06-.41-1.61.2-2.17,1a21.07,21.07,0,0,0-1.65,3.5c-.32.66.23,1.29.48,1.9a2.77,2.77,0,0,1,.1.61"/>
        <path class="cls-1" d="M59.56,94.48c0,.52,0,1,0,1.56a1.49,1.49,0,0,1-.48,1.33c-1.27,1.16-2.5,2.38-3.73,3.59A3.54,3.54,0,0,1,53.2,102c-1.07.1-2.06.5-3.12.64a4.4,4.4,0,0,0-2.64,1.19,4.05,4.05,0,0,1-2.28,1.08c-1.08.21-2.17.35-3.24.62a4.62,4.62,0,0,0-2.4,1.18,4,4,0,0,1-2.28,1.08c-1.08.21-2.17.35-3.24.62a4.77,4.77,0,0,0-2.4,1.18,24.68,24.68,0,0,0-2.38,2.3,4,4,0,0,1-4.1,1.66"/>
        <path class="cls-1" d="M86.8,29.8a6.21,6.21,0,0,0,1,4c.78,1.19.44,2.53.37,3.83"/>
        <path class="cls-1" d="M275.8,29.8A6.19,6.19,0,0,0,276.85,34a2.72,2.72,0,0,1,.4,1.66,24,24,0,0,1-.22,4,3.48,3.48,0,0,0,.11,1.78A5.68,5.68,0,0,1,276.8,46l2.48.86"/>
        <path class="cls-1" d="M258.76,104.56c0,.48,0,1,0,1.44a1.73,1.73,0,0,1-.58,1.58,43.73,43.73,0,0,0-3.13,3.11,5.32,5.32,0,0,1-4.09,1.67"/>
        <path class="cls-1" d="M318.64,20a6.88,6.88,0,0,0,3.12,1.81,5,5,0,0,1,3.17,2.61A5.25,5.25,0,0,0,328,26.81a31.31,31.31,0,0,1,3.23,1.33c1,.49,1.7-.21,2.53-.38"/>
        <path class="cls-1" d="M285.76,77.92a3.36,3.36,0,0,1-1.42,3.5,16.37,16.37,0,0,0-2.06,2,5.2,5.2,0,0,1-3.6,1.81c-.83,0-1.31.42-1.23,1.43.11,1.31,0,2.64,0,4"/>
        <path class="cls-1" d="M357.76,77.92a3.36,3.36,0,0,1-1.42,3.5,16.37,16.37,0,0,0-2.06,2,5.2,5.2,0,0,1-3.6,1.81c-.83,0-1.31.42-1.23,1.43.11,1.31,0,2.64,0,4"/>
        <path class="cls-1" d="M286.6,92.8c0,1.36,0,2.72,0,4.08,0,.7-.08,1.16-1,1.22a6,6,0,0,0-4.21,2.25,9.83,9.83,0,0,1-1.68,1.67,3.32,3.32,0,0,0-1.43,3.5"/>
        <path class="cls-1" d="M246.64,20a6.88,6.88,0,0,0,3.12,1.81,5,5,0,0,1,3.17,2.61A5.25,5.25,0,0,0,256,26.81a31.31,31.31,0,0,1,3.23,1.33c1,.49,1.7-.21,2.53-.38"/>
        <path class="cls-1" d="M313,71.08a5.29,5.29,0,0,0-4.09,1.79A13.33,13.33,0,0,1,307,74.78a3.92,3.92,0,0,0-1.67,4.1"/>
        <path class="cls-1" d="M241,71.08a5.29,5.29,0,0,0-4.09,1.79A13.33,13.33,0,0,1,235,74.78a3.92,3.92,0,0,0-1.67,4.1"/>
        <path class="cls-1" d="M330.76,104.56c0,.48,0,1,0,1.44a1.73,1.73,0,0,1-.58,1.58,43.73,43.73,0,0,0-3.13,3.11,4.94,4.94,0,0,1-3.49,1.64c-.9,0-1.11.43-1.09,1.23,0,1.4,0,2.8,0,4.2"/>
        <path class="cls-1" d="M83.44,36.76a36.8,36.8,0,0,1,4.89,1,8.34,8.34,0,0,0,.1,4.67,4.59,4.59,0,0,1-.55,3.35"/>
        <path class="cls-1" d="M150.22,22.6c-.1.4-.38.21-.53.11a5.09,5.09,0,0,0-3.25-.71,6.11,6.11,0,0,1-3.23-.74,5.49,5.49,0,0,0-4.58-.49,5.83,5.83,0,0,1-3.47-.21"/>
        <path class="cls-1" d="M57.52,20a5.89,5.89,0,0,0,3,1.69,5.88,5.88,0,0,1,3.36,2.27"/>
        <path class="cls-1" d="M150,23c0,1.23,1,1.64,1.81,1.87a31,31,0,0,0,4.79.86c.62.08,1.12-.48,1.68-.75"/>
        <path class="cls-1" d="M322.36,112.84a5.8,5.8,0,0,0-3.73,1.31,4,4,0,0,1-2,.95,12.39,12.39,0,0,0-7.44,4"/>
        <path class="cls-1" d="M181.12,12A8.19,8.19,0,0,0,183,15.89a4.4,4.4,0,0,1,1.07,2.51A2.93,2.93,0,0,0,187.36,21a25.19,25.19,0,0,1,3.36.09"/>
        <path class="cls-1" d="M192.88,132.64a5.94,5.94,0,0,0-3.74,1.78,3.14,3.14,0,0,1-2.26,1.09,3.49,3.49,0,0,0-2.53,1.44.85.85,0,0,0-.23.73,29.72,29.72,0,0,1-.24,4.32"/>
        <path class="cls-1" d="M171.76,23.08a6.32,6.32,0,0,0,1.66,3.5,4.64,4.64,0,0,1,1.24,3.94,5.29,5.29,0,0,0,1,3.36,4.23,4.23,0,0,1,.55,4.23c-.48,1.15.14,2.53.77,3.69a5.43,5.43,0,0,0,.74,1.17c1.45,1.53,1.21,3.18.43,4.82a4.08,4.08,0,0,0,0,4.12,5.41,5.41,0,0,1,.67,4.66c-.1.26-.09.57-.38.71-1.25.61-1.22,1.84-1.15,2.88a7.33,7.33,0,0,1-.41,3.48"/>
        <path class="cls-1" d="M202.36,24.16c.28,1.44.57,2.88.83,4.32a1,1,0,0,1-.09.85c-.83,1.36-1.46,2.85-3.13,3.5a3.39,3.39,0,0,0-1.45,1.41A6.75,6.75,0,0,1,195.4,37"/>
        <path class="cls-1" d="M68.08,21.64a28.92,28.92,0,0,0-4.27,2.42A6.53,6.53,0,0,0,67,26.79a9.77,9.77,0,0,1,1.67.63,4.49,4.49,0,0,0,4.45.34"/>
        <path class="cls-1" d="M214.6,92.8c0,1.36,0,2.72,0,4.08,0,.7-.08,1.16-1,1.22a5.84,5.84,0,0,0-4.09,2.13,4.24,4.24,0,0,1-2.75,1.45"/>
        <path class="cls-1" d="M23.32,18.4l-.12,4.2A3.61,3.61,0,0,1,21,25.36a7.73,7.73,0,0,0-3.73,2.15A3.64,3.64,0,0,1,15.4,28.6c-1.71.41-2,2-2.74,3.25-.25.38.11.85.26,1.17.46,1,.74,2.11,1.16,3.14"/>
        <path class="cls-1" d="M240.4,30.28a5.84,5.84,0,0,0-4.76.54,3.22,3.22,0,0,1-3.14.25c-2.45-1.23-4.37-.63-6.15,1.24a5.83,5.83,0,0,1-4.19,1.81"/>
        <path class="cls-1" d="M194.44,89.68A7.32,7.32,0,0,0,192.39,93a4.29,4.29,0,0,1-2.15,2.52"/>
        <path class="cls-1" d="M40.72,27.76c-.18,1.38-.42,2.61-1.89,3.41-1.24.68-2.16,1.91-3.52,2.46A3.15,3.15,0,0,1,33,34"/>
        <path class="cls-1" d="M126.16,44.32c-.28-1.12-.54-2.25-.85-3.36-.2-.7-.59-.93-1.32-.5a7.74,7.74,0,0,0-2,1.56,6.09,6.09,0,0,1-3.46,2.42"/>
        <path class="cls-1" d="M138.16,129.88a5.81,5.81,0,0,0,2.65,3,5,5,0,0,1,2.12,2.31,5,5,0,0,0,3.16,2.85,6.34,6.34,0,0,1,2.63,1.7"/>
        <path class="cls-1" d="M130.48,50.68A4.74,4.74,0,0,0,129,52.11a9,9,0,0,1-2.53,2.75c-1-.54-1.75,0-2.36.75-1.34,1.58-1.64,3.57-2,5.51,0,.14.11.32.17.48"/>
        <path class="cls-1" d="M238.72,43.24c-1.38-.49-2.65-.74-3.75.7-.59.76-1.41.38-2.14-.09-1.39-.91-1.4-.89-2.63.23a6,6,0,0,0-.71.61,1.4,1.4,0,0,1-2,.33c-1-.67-1.6-.22-2.18.5s-.92,1.32-1.45,1.91a1.63,1.63,0,0,1-1.31.63,2.78,2.78,0,0,0-3,2.62c-.18,1.08-.32,2.16-.48,3.24"/>
        <path class="cls-1" d="M201.28,121.36a3,3,0,0,0-1.2,2.16,11.94,11.94,0,0,1-1.79,4.57,5.55,5.55,0,0,1-3.85,2.63"/>
        <path class="cls-1" d="M131,33.28a4.14,4.14,0,0,1-1.16,3.51c-1.35,1.5-2.53,3.12-4.6,3.69"/>
        <path class="cls-1" d="M131.2,123.64a4.75,4.75,0,0,1,4.12,1.52c1.27,1.16,2.68,2.13,3.2,3.88"/>
        <path class="cls-1" d="M180.4,108a9.06,9.06,0,0,1-2.41.89,4.37,4.37,0,0,0-3.51,2.93,5.88,5.88,0,0,1-1.66,2c-.69.59-1.46,1.36-2.52.41-.53-.48-1.16-.1-1.65.23-1.07.7-1.93,1.73-3.25,2"/>
        <path class="cls-1" d="M98.56,45.64c.32.56.66,1.11,1,1.68a4.85,4.85,0,0,1,.61,3.84c0,.17.07.4.11.6"/>
        <path class="cls-1" d="M177.64,64.36c-1.16-.84-2.1-.58-2.52.72a9.19,9.19,0,0,0-.26,2.16c-.09,1.24,0,2.49-1.76,2.94-1.07.28-1,1.62-1.07,2.58,0,1.24.13,2.48.21,3.72"/>
        <path class="cls-1" d="M48,40.24c-.38,1.4-.59,2.89-2,3.73a1.44,1.44,0,0,1-1.82,0c-1.66-1.17-1.73-1.13-3.21.34-.83.81-1.65,1.33-2.77.59-.79-.52-1.31-.11-1.8.48-.64.76-1.29,1.51-1.91,2.28a1,1,0,0,1-1,.36c-1.65-.17-2,.06-2.64,1.68a10.78,10.78,0,0,0-.72,4.2"/>
        <path class="cls-1" d="M130.48,112.72a4.85,4.85,0,0,0,1.34,3.7,5.55,5.55,0,0,1,1.76,4.58c-.09.88-.06,1.76-.1,2.64"/>
        <path class="cls-1" d="M69.76,33.88c.56-.16,1.11-.34,1.68-.47.27-.06.65-.13.83,0,1.67,1.3,3.64,2.37,4,4.78"/>
        <path class="cls-1" d="M331.72,28.48c.36,1.28.7,2.57,1.09,3.84a2.6,2.6,0,0,0,1,1.6,8.26,8.26,0,0,1,3,2.85c.3.58.78,1.38.11,1.88-1.42,1-.61,2.08-.21,3.15.07.21.27.39.34.6.23.66.75,1.55.2,2-.74.58-1.32,1.9-2.72,1.16a5.14,5.14,0,0,0-1.55-.26"/>
        <path class="cls-1" d="M259.72,28.48c.36,1.28.7,2.57,1.09,3.84a2.6,2.6,0,0,0,1,1.6,8.47,8.47,0,0,1,3,2.84c.43.79.68,1.6-.23,2.28s-.26,1.85-.32,2.76a8.38,8.38,0,0,0,.44,2.16"/>
        <path class="cls-1" d="M306.88,113.2c0,1.8.08,3.6-.12,5.4"/>
        <path class="cls-1" d="M135.76,106.24c-1-.32-2-.68-3-.95a1.7,1.7,0,0,0-2,1.79,16.65,16.65,0,0,0,.73,2.88c.23,1.09.28,2.09-1.06,2.63l-3.74-1"/>
        <path class="cls-1" d="M106,126.88a15.3,15.3,0,0,1-1.57-.35,2.93,2.93,0,0,0-3.71.71"/>
        <path class="cls-1" d="M158.62,29a2.47,2.47,0,0,0,1.73,1.83,6.05,6.05,0,0,1,2.53,1.65c.63.69,1,1.43.24,2.28-.18.22-.32.48-.48.71.44,1.62,2.19,2.41,2.5,4.14a2.51,2.51,0,0,1-.22.43c-1.37,1.6-1.39,1.62-.22,3.35a4.21,4.21,0,0,1,.67,1.34,1.25,1.25,0,0,1-.42,1.46c-1.24,1-1.29,1.5-.49,2.84.4.68.78,1.38,1.21,2,.61.92,1.77.92,2.73,1.22"/>
        <path class="cls-1" d="M147,32.8c-.26.53-.55.91-1.26.87a3.78,3.78,0,0,0-1.44.34,1.83,1.83,0,0,1-2.3-.59c-.9-1.09-1.71-1.14-3-.38-.37.23-.7.52-1.08.71A3.54,3.54,0,0,0,136,37.84"/>
        <path class="cls-1" d="M88.84,80.56c.17,3.37-.2,6.72-.24,10.08"/>
        <path class="cls-1" d="M234.88,113.2v5"/>
        <path class="cls-1" d="M52.48,65.68v5"/>
        <path class="cls-1" d="M208.84,51.1c-2.46-1.43-5.33-2.18-7.32-4.38"/>
        <path class="cls-1" d="M104.8,37.84a43.19,43.19,0,0,1,1.92,5"/>
        <path class="cls-1" d="M314.8,110.32v5"/>
        <path class="cls-1" d="M321.52,62.8v5"/>
        <path class="cls-1" d="M249.52,62.8v5"/>
        <path class="cls-1" d="M242.8,110.32v5"/>
        <path class="cls-1" d="M294.52,89.92v4.92"/>
        <path class="cls-1" d="M212.32,18.4l-.12,4.92"/>
        <path class="cls-1" d="M222.52,89.92v4.92"/>
        <path class="cls-1" d="M52.24,71.08V76"/>
        <path class="cls-1" d="M261.88,86.32v4.92"/>
        <path class="cls-1" d="M33.52,89.92v4.92"/>
        <path class="cls-1" d="M269.8,83.44v4.92"/>
        <path class="cls-1" d="M242.56,115.72v4.92"/>
        <path class="cls-1" d="M70.72,73.12V78"/>
        <path class="cls-1" d="M341.8,83.44v4.92"/>
        <path class="cls-1" d="M53.92,110.32v4.92"/>
        <path class="cls-1" d="M321.28,68.2v4.92"/>
        <path class="cls-1" d="M249.28,68.2v4.92"/>
        <path class="cls-1" d="M25.48,92.8v4.92"/>
        <path class="cls-1" d="M62.8,76v4.92"/>
        <path class="cls-1" d="M257.2,65.32v4.92"/>
        <path class="cls-1" d="M329.2,65.32v4.92"/>
        <path class="cls-1" d="M251.68,76v4.92"/>
        <path class="cls-1" d="M241.6,65.68a25.09,25.09,0,0,0,0,3.36c.17,1.24-.67,2.25-.54,3.48a31.06,31.06,0,0,1,0,3.48"/>
        <path class="cls-1" d="M313.6,65.68a25.09,25.09,0,0,0,0,3.36c.17,1.24-.67,2.25-.54,3.48a31.06,31.06,0,0,1,0,3.48"/>
        <path class="cls-1" d="M323.68,76v4.92"/>
        <path class="cls-1" d="M46,113.2v4.92"/>
        <path class="cls-1" d="M333.88,86.32v4.92"/>
        <path class="cls-1" d="M25.24,98.08v4.8"/>
        <path class="cls-1" d="M323,107.44v4.8"/>
        <path class="cls-1" d="M73,86.32v4.8"/>
        <path class="cls-1" d="M184.24,19.48l-4.8.12"/>
        <path class="cls-1" d="M72.64,91.6v4.8"/>
        <path class="cls-1" d="M304.72,100.24V105"/>
        <path class="cls-1" d="M261.64,91.6v4.8"/>
        <path class="cls-1" d="M232.72,100.24V105"/>
        <path class="cls-1" d="M43.36,105.52v4.8"/>
        <path class="cls-1" d="M222.28,95.2V100"/>
        <path class="cls-1" d="M131.08,35.32a40.44,40.44,0,0,1,4.8.12"/>
        <path class="cls-1" d="M178.48,10.12l-4.8,1.08"/>
        <path class="cls-1" d="M78.64,70.24V75"/>
        <path class="cls-1" d="M314.44,115.84a42.74,42.74,0,0,1,.12,4.8"/>
        <path class="cls-1" d="M333.64,91.6v4.8"/>
        <path class="cls-1" d="M294.28,95.2V100"/>
        <path class="cls-1" d="M68.08,65.44v4.8"/>
        <path class="cls-1" d="M43.72,100.24V105"/>
        <path class="cls-1" d="M214.12,32.8l.84,4.8"/>
        <path class="cls-1" d="M174.88,30.28l4.8.12"/>
        <path class="cls-1" d="M296.68,103.12v4.8"/>
        <path class="cls-1" d="M35.44,108.4v4.8"/>
        <path class="cls-1" d="M296.32,108.4v4.8"/>
        <path class="cls-1" d="M60.52,63v4.8"/>
        <path class="cls-1" d="M185.32,131c0,1.61.4,3.19.24,4.8"/>
        <path class="cls-1" d="M41.44,87v4.8"/>
        <path class="cls-1" d="M230.44,87v4.8"/>
        <path class="cls-1" d="M80.92,83.44v4.8"/>
        <path class="cls-1" d="M341.56,88.72v4.8"/>
        <path class="cls-1" d="M302.44,87v4.8"/>
        <path class="cls-1" d="M230.2,92.32v4.8"/>
        <path class="cls-1" d="M13.48,24.16a30.14,30.14,0,0,0,.84,4.8"/>
        <path class="cls-1" d="M269.56,88.72v4.8"/>
        <path class="cls-1" d="M224.68,103.12v4.8"/>
        <path class="cls-1" d="M267.76,70.24V75"/>
        <path class="cls-1" d="M339.76,70.24V75"/>
        <path class="cls-1" d="M35.8,103.12v4.8"/>
        <path class="cls-1" d="M312.4,102.64v4.8"/>
        <path class="cls-1" d="M240.4,102.64v4.8"/>
        <path class="cls-1" d="M302.2,92.32v4.8"/>
        <path class="cls-1" d="M51.28,102.64v4.8"/>
        <path class="cls-1" d="M224.32,108.4v4.8"/>
        <path class="cls-1" d="M364.48,21.88a24.25,24.25,0,0,0-4.8-.6"/>
        <path class="cls-1" d="M193.36,125.92c.32,1.48.63,3,1,4.44a1.23,1.23,0,0,1-.5,1.17c-.84.75-.67,1.59-.63,2.55,0,1.13.36,2.23.29,3.36"/>
        <path class="cls-1" d="M80.56,88.72v4.8"/>
        <path class="cls-1" d="M60.16,68.32v4.8"/>
        <path class="cls-1" d="M182,123.28c.46,1.57.23,3.22.6,4.8"/>
        <path class="cls-1" d="M70.72,28.48a23.27,23.27,0,0,1,1.2,4.8"/>
        <path class="cls-1" d="M259.72,73.36V78"/>
        <path class="cls-1" d="M331.72,73.36V78"/>
        <path class="cls-1" d="M41.08,92.44v4.68"/>
        <path class="cls-1" d="M331.36,78.52V83.2"/>
        <path class="cls-1" d="M93,39.52l-4.68-1.68"/>
        <path class="cls-1" d="M33,29.2a38.5,38.5,0,0,0-.12,4.68"/>
        <path class="cls-1" d="M78.28,75.64v4.68"/>
        <path class="cls-1" d="M267.4,75.64v4.68"/>
        <path class="cls-1" d="M286.12,98.2v4.68"/>
        <path class="cls-1" d="M70.36,78.52V83.2"/>
        <path class="cls-1" d="M214.12,98.2v4.68"/>
        <path class="cls-1" d="M323.32,81.4v4.68"/>
        <path class="cls-1" d="M95.56,18l-4.68.12"/>
        <path class="cls-1" d="M278,80.56v4.68"/>
        <path class="cls-1" d="M51.64,97.36V102"/>
        <path class="cls-1" d="M259.36,78.52V83.2"/>
        <path class="cls-1" d="M284.68,18.16l-4.68.12"/>
        <path class="cls-1" d="M350,80.56v4.68"/>
        <path class="cls-1" d="M86,28.84a40.63,40.63,0,0,0-4.68.12"/>
        <path class="cls-1" d="M240.76,97.36V102"/>
        <path class="cls-1" d="M126,9.16c0,1.6-.57,3.11-.72,4.68"/>
        <path class="cls-1" d="M360.76,29.08l-4.68-.84"/>
        <path class="cls-1" d="M288.76,29.08l-4.68-.84"/>
        <path class="cls-1" d="M274.84,28.72l-4.68.24"/>
        <path class="cls-1" d="M356.68,18.16l-4.68.12"/>
        <path class="cls-1" d="M346.84,28.72l-4.68.24"/>
        <path class="cls-1" d="M339.4,75.64v4.68"/>
        <path class="cls-1" d="M222,29.2l-.12,4.68"/>
        <path class="cls-1" d="M193.12,30.52l-4.68-.84"/>
        <path class="cls-1" d="M53.56,115.72v4.68"/>
        <path class="cls-1" d="M33.16,95.32V100"/>
        <path class="cls-1" d="M312.76,97.36V102"/>
        <path class="cls-1" d="M176.8,134.32l-.36,4.68"/>
        <path class="cls-1" d="M21.4,25.48l.6,4.68"/>
        <path class="cls-1" d="M68.44,60.16v4.68"/>
        <path class="cls-1" d="M251.32,81.4v4.68"/>
        <path class="cls-1" d="M119.08,120.16a35.27,35.27,0,0,0,4.68.72"/>
        <path class="cls-1" d="M182.8,28.12l4.68.48"/>
        <path class="cls-1" d="M62.44,81.4v4.68"/>
        <path class="cls-1" d="M130.12,141.4a24,24,0,0,1-4.68,1"/>
        <path class="cls-1" d="M174.28,121.6a38.08,38.08,0,0,1,.24,9.36"/>
        <path class="cls-1" d="M25.12,33,26,37.6"/>
        <path class="cls-1" d="M174.76,140.32c-.09,1.57-.81,3-1,4.56"/>
        <path class="cls-1" d="M232.36,105.52v4.56"/>
        <path class="cls-1" d="M304.36,105.52v4.56"/>
        <path class="cls-1" d="M112,129.4c-1.55,0-3-.57-4.56-.6"/>
        <path class="cls-1" d="M281.92,39.4c-1.6-.23-3-1.18-4.56-1.44"/>
        <path class="cls-1" d="M353.92,39.4c-1.6-.23-3-1.18-4.56-1.44"/>
        <path class="cls-1" d="M174.64,30.4l-4.56.12"/>
        <path class="cls-1" d="M134.44,21l-.84,4.56"/>
        <path class="cls-1" d="M117,39.76l1.32,4.56"/>
        <path class="cls-1" d="M118.36,112a23.37,23.37,0,0,1-3.24-1.21c-.4-.13-.75-.41-1.2-.35"/>
        <path class="cls-1" d="M329.44,60.4v4.44"/>
        <path class="cls-1" d="M257.44,60.4v4.44"/>
        <path class="cls-1" d="M25.84,38l1.44,4.44"/>
        <path class="cls-1" d="M110.68,45c.2,1.62,1.2,2.93,1.68,4.44"/>
        <path class="cls-1" d="M349,37.6l-4.44-.84"/>
        <path class="cls-1" d="M277,37.6l-4.44-.84"/>
        <path class="cls-1" d="M137.2,7.84c-.45,1.47-1.39,2.75-1.56,4.32"/>
        <path class="cls-1" d="M167.44,128.08c0,1.5-.8,2.83-.84,4.32"/>
        <path class="cls-1" d="M176.08,38a22.37,22.37,0,0,0-4.32-.36"/>
        <path class="cls-1" d="M83.44,44.08l4.32,1.8"/>
        <path class="cls-1" d="M112.48,33l1.2,4.32"/>
        <path class="cls-1" d="M33.16,34.24l.48,4.32"/>
        <path class="cls-1" d="M167.44,123.28l-.36,4.32"/>
        <path class="cls-1" d="M118.72,111.88,123,113.2"/>
        <path class="cls-1" d="M293.8,34.24c.7,1.35.59,2.89,1,4.32"/>
        <path class="cls-1" d="M201.64,32.08l1.44,4.32"/>
        <path class="cls-1" d="M141.76,127.9l-2.4.9c-.15,0-.33-.05-.48.12-1.35,1.54-3.33,1.22-5,1.68"/>
        <path class="cls-1" d="M144.34,18.64a24.4,24.4,0,0,0-2.94,6.72"/>
        <path class="cls-1" d="M110.08,120.16c-1.42-.31-2.74-1-4.2-1.2"/>
        <path class="cls-1" d="M171.16,22.6,167,23.68"/>
        <path class="cls-1" d="M181.36,118.48l.84,4.2"/>
        <path class="cls-1" d="M272.56,44.2a33.74,33.74,0,0,1,4.2,1.68"/>
        <path class="cls-1" d="M304.72,3.52a20.74,20.74,0,0,0-2,4.08"/>
        <path class="cls-1" d="M344.56,44.2a22.31,22.31,0,0,1,4.08,1.68"/>
        <path class="cls-1" d="M232.72,3.52a20.74,20.74,0,0,0-2,4.08"/>
        <path class="cls-1" d="M123.76,50.56l1.56,4.08"/>
        <path class="cls-1" d="M362.08,40,358,38.32"/>
        <path class="cls-1" d="M136.24,141a39.5,39.5,0,0,0-4.08,1.44"/>
        <path class="cls-1" d="M290.08,40,286,38.32"/>
        <path class="cls-1" d="M109.84,111.28a23.35,23.35,0,0,1-4.08-1.68"/>
        <path class="cls-1" d="M101.2,116.14l4,1.62"/>
        <path class="cls-1" d="M198.64,106.12a22.6,22.6,0,0,1,1.92,4"/>
        <path class="cls-1" d="M43.72,3.4l-2,4"/>
        <path class="cls-1" d="M176.68,37.48l4,.84"/>
        <path class="cls-1" d="M310.72,43.24c-1.38-.49-2.65-.74-3.75.7-.59.76-1.41.38-2.14-.09-1.39-.91-1.4-.89-2.63.23a6,6,0,0,0-.71.61,1.41,1.41,0,0,1-2,.33c-.88-.58-1.44-.31-2.06.37a14.75,14.75,0,0,1-2.51,2.29"/>
        <path class="cls-1" d="M171.16,114.88l.36,3.84"/>
        <path class="cls-1" d="M130.6,3.4a30.52,30.52,0,0,0-1.32,3.84"/>
        <path class="cls-1" d="M143,135.52l-3.72,1.56"/>
        <path class="cls-1" d="M309.16,17.32l-2,3.72"/>
        <path class="cls-1" d="M191.56,52.24a9.41,9.41,0,0,1-3.72-1.2"/>
        <path class="cls-1" d="M237.16,17.32l-2,3.72"/>
        <path class="cls-1" d="M169.12,110.32l.72,3.72"/>
        <path class="cls-1" d="M119,104.32c-1.37-.3-2.46-1.21-3.72-1.74"/>
        <path class="cls-1" d="M131.68,111.64l3.6.72"/>
        <path class="cls-1" d="M185.2,101.32l1.74,3.6"/>
        <path class="cls-1" d="M214.84,38l1.2,3.6"/>
        <path class="cls-1" d="M335.68,45.88c.08.48.13,1,.25,1.44.49,2,.54,2.06-1.23,3.09a1.35,1.35,0,0,0-.78,1.7c.21.66-.33,1.54.56,2"/>
        <path class="cls-1" d="M262.24,53.92c-.27-1.57-.4-3.14,1-4.3a.8.8,0,0,0,.33-.86,4.92,4.92,0,0,1,1.19-4.68,18.05,18.05,0,0,1,3.74,1.2"/>
        <path class="cls-1" d="M127.12,104.68l3.6,1.44"/>
        <path class="cls-1" d="M265.36,38.32l3.6.36"/>
        <path class="cls-1" d="M337.36,38.32l3.6.36"/>
        <path class="cls-1" d="M142.48,29l-1.2,3.6"/>
        <path class="cls-1" d="M172,97a13.79,13.79,0,0,1,1.56,3.48"/>
        <path class="cls-1" d="M119.44,104.2a26.8,26.8,0,0,0,3.48,1.38"/>
        <path class="cls-1" d="M167.2,33.4l-3.48.36"/>
        <path class="cls-1" d="M183,97.72c.39,1.26,1.43,2.19,1.74,3.48"/>
        <path class="cls-1" d="M336,39.64l-3.48.12"/>
        <path class="cls-1" d="M264,39.64l-3.48.12"/>
        <path class="cls-1" d="M297.76,41.2l.6,3.36"/>
        <path class="cls-1" d="M225.76,41.2l.6,3.36"/>
        <path class="cls-1" d="M131.92,99.76a16.8,16.8,0,0,0-3.36-1.56"/>
        <path class="cls-1" d="M112.36,50,114,53.32"/>
        <path class="cls-1" d="M220,44.56l1.32,3.36"/>
        <path class="cls-1" d="M36.76,41.2l.6,3.36"/>
        <path class="cls-1" d="M165.64,45.52l3.24.6"/>
        <path class="cls-1" d="M190.36,95.68a21.58,21.58,0,0,1,1.92,3.24"/>
        <path class="cls-1" d="M163.84,47.08l-3.12-.24"/>
        <path class="cls-1" d="M142.72,34.24,142,37.36"/>
        <path class="cls-1" d="M231.64,40v3"/>
        <path class="cls-1" d="M303.64,40v3"/>
        <path class="cls-1" d="M74.68,45.76a16,16,0,0,0-3-.48"/>
        <path class="cls-1" d="M39.64,45.52l.84,2.88"/>
        <path class="cls-1" d="M126.52,55a21.75,21.75,0,0,1,1.38,2.88"/>
        <path class="cls-1" d="M228.52,45.52l1.08,2.88"/>
        <path class="cls-1" d="M300.52,45.52l1.08,2.88"/>
        <path class="cls-1" d="M141.28,113.56a4,4,0,0,1,4,1.16,1.35,1.35,0,0,1,.43,1.48c-.15.48-.29,1-.49,1.44a.89.89,0,0,0,.37,1.2,6.94,6.94,0,0,1,.72.6c.29.31.94.28,1,.84,0,.84-.06,1.68-.13,2.52,0,.09-.22.16-.34.24a7.47,7.47,0,0,1-2.16,1"/>
        <path class="cls-1" d="M155.14,117.64c.42-1,.6-2.17,2-2.42a1.51,1.51,0,0,1,1.21.13c1.51,1,1.8,1.7,1.31,3.37-.11.39-.16.8-.24,1.2"/>
        <path class="cls-1" d="M340.48,45.28,337.6,44.2"/>
        <path class="cls-1" d="M145,118.24a10.48,10.48,0,0,1-2.76.6"/>
        <path class="cls-1" d="M162.52,35.56l-2.76.6"/>
        <path class="cls-1" d="M158.08,112.24l-.24,2.76"/>
        <path class="cls-1" d="M163.72,41.44H161"/>
        <path class="cls-1" d="M191,44l-2.64-.84"/>
        <path class="cls-1" d="M45.16,44.56a10.19,10.19,0,0,0,.24,2.64"/>
        <path class="cls-1" d="M234,44.56l.36,2.64"/>
        <path class="cls-1" d="M306,44.56l.36,2.64"/>
        <path class="cls-1" d="M339.64,18.16l.6,2.64"/>
        <path class="cls-1" d="M267.64,18.16l.6,2.64"/>
        <path class="cls-1" d="M120.64,22.72a10.63,10.63,0,0,0,.12,2.52"/>
        <path class="cls-1" d="M200.8,119.92c.65,1.66,1.38,2,3.12,1.68"/>
        <path class="cls-1" d="M288.4,113.68H286"/>
        <path class="cls-1" d="M347.68,69.76h2.4"/>
        <path class="cls-1" d="M305.2,76.48h-2.4"/>
        <path class="cls-1" d="M233.2,76.48h-2.4"/>
        <path class="cls-1" d="M44.32,76.48v2.4"/>
        <path class="cls-1" d="M17.2,103.36H14.8"/>
        <path class="cls-1" d="M76.48,59.68h2.4"/>
        <path class="cls-1" d="M33.52,15.28,33,17.68"/>
        <path class="cls-1" d="M222.64,15.28c-.06.83-.61,1.55-.6,2.4"/>
        <path class="cls-1" d="M294.64,15.28c-.06.83-.61,1.55-.6,2.4"/>
        <path class="cls-1" d="M309,40.24c-.06.82-.65,1.53-.48,2.4"/>
        <path class="cls-1" d="M330.88,107h2.4"/>
        <path class="cls-1" d="M64.72,96.88v2.4"/>
        <path class="cls-1" d="M262,51l-2.4-1"/>
        <path class="cls-1" d="M238.48,84.16v2.4"/>
        <path class="cls-1" d="M181.36,46a9.78,9.78,0,0,1-2.4-.84"/>
        <path class="cls-1" d="M310.48,84.16v2.4"/>
        <path class="cls-1" d="M263.44,45.76l-2.4-.48"/>
        <path class="cls-1" d="M275.68,69.76h2.4"/>
        <path class="cls-1" d="M237,40.24c-.06.82-.65,1.53-.48,2.4"/>
        <path class="cls-1" d="M143.68,111v2.4"/>
        <path class="cls-1" d="M301.84,27.76c-.06.83-.61,1.55-.6,2.4"/>
        <path class="cls-1" d="M258.88,107h2.4"/>
        <path class="cls-1" d="M229.84,27.76c-.06.83-.61,1.55-.6,2.4"/>
        <path class="cls-1" d="M103.84,53.44c-.08.56-.2,1.12-.23,1.68,0,.39-.34.22-.49.36"/>
        <path class="cls-1" d="M143.68,45.52h-2.4"/>
        <path class="cls-1" d="M86.68,69.88H89"/>
        <path class="cls-1" d="M166,51.64l-.72,2.28"/>
        <path class="cls-1" d="M325.6,97v2.28"/>
        <path class="cls-1" d="M123.4,128.68h2.28"/>
        <path class="cls-1" d="M54.52,86.68V89"/>
        <path class="cls-1" d="M294,29.2a5.59,5.59,0,0,1-.48,2.28"/>
        <path class="cls-1" d="M253.6,97v2.28"/>
        <path class="cls-1" d="M285.88,80h2.28"/>
        <path class="cls-1" d="M69.88,107.08h2.28"/>
        <path class="cls-1" d="M188,113.68l.72,2.28"/>
        <path class="cls-1" d="M357.88,80h2.28"/>
        <path class="cls-1" d="M80.32,15.28l-2.28.6"/>
        <path class="cls-1" d="M115.6,15.16v2.28"/>
        <path class="cls-1" d="M278.2,103.48h-2.28"/>
        <path class="cls-1" d="M148.12,36.28a4.92,4.92,0,0,0-1,2.28"/>
        <path class="cls-1" d="M219.64,6.64l-.48,2.16"/>
        <path class="cls-1" d="M291.64,6.64l-.48,2.16"/>
        <path class="cls-1" d="M86.32,8.32c-.65.46-1.47.29-2.16.6"/>
        <path class="cls-1" d="M167.44,101.68a8.2,8.2,0,0,1-2.16.72"/>
        <path class="cls-1" d="M227,19.12a10.82,10.82,0,0,0-.6,2.16"/>
        <path class="cls-1" d="M299,19.12a10.82,10.82,0,0,0-.6,2.16"/>
        <path class="cls-1" d="M79.12,20.8,77,21.4"/>
        <path class="cls-1" d="M125.8,25.36v2.16"/>
        <path class="cls-1" d="M234.16,31.6c-.11.75-.61,1.38-.6,2.16"/>
        <path class="cls-1" d="M306.16,31.6c-.11.75-.61,1.38-.6,2.16"/>
        <path class="cls-1" d="M63.52,41c.11.75.61,1.38.6,2.16"/>
        <path class="cls-1" d="M252.52,41c0,.75.62,1.37.48,2.16"/>
        <path class="cls-1" d="M324.52,41c0,.75.62,1.37.48,2.16"/>
        <path class="cls-1" d="M193.48,114.4a13.68,13.68,0,0,1,.72,2.16"/>
        <path class="cls-1" d="M333.76,51c-.58-.63-1.46-.59-2.16-1"/>
        <path class="cls-1" d="M337.6,59.56h2.16"/>
        <path class="cls-1" d="M265.6,59.56h2.16"/>
        <path class="cls-1" d="M162.52,14.32c0,.8.69,1.31.84,2"/>
        <path class="cls-1" d="M45.16,31.6l-.6,1.92"/>
        <path class="cls-1" d="M199.6,126.16a2.07,2.07,0,0,0,1.92,0"/>
        <path class="cls-1" d="M37.84,19.12A7.41,7.41,0,0,1,37.36,21"/>
        <path class="cls-1" d="M339,16a7.41,7.41,0,0,0,.48,1.92"/>
        <path class="cls-1" d="M267,16a7.41,7.41,0,0,0,.48,1.92"/>
        <path class="cls-1" d="M30.64,6.64a7.41,7.41,0,0,1-.48,1.92"/>
        <path class="cls-1" d="M177.16,50l-1.8-.6"/>
        <path class="cls-1" d="M98.44,38.92a7.19,7.19,0,0,0-1.8-.6"/>
        <path class="cls-1" d="M120.64,62c-.52,0-.64.6-1.08.72"/>
        <path class="cls-1" d="M266.56,32.8c-.95,0-1.23.84-1.8,1.32"/>
        <path class="cls-1" d="M162.4,142.36c-.2-.39-.67-.25-1-.48"/>
        <path class="cls-1" d="M157.84,128.44c.2.39.67.25,1,.48"/>
      </g>
    </g>
  </g>
</svg>
