<svg xmlns="http://www.w3.org/2000/svg" viewBox="0 0 432.32 163.69">
  <defs>
    <style>
      .cls-1 {
        fill: none;
        stroke: #000;
        stroke-linecap: round;
        stroke-linejoin: round;
        stroke-width: 1.4px;
      }
    </style>
  </defs>
  <g id="Layer_2" data-name="Layer 2">
    <g id="Layer_5" data-name="Layer 5">
      <g>
        <path class="cls-1" d="M83.69,25.23A44.25,44.25,0,0,0,69.91,14.32c-1.63-.85-3.32-1.37-4.65-2.93-.8-1-2.78-1-4.25-1.26-2-.41-4-.69-6-1"/>
        <path class="cls-1" d="M283.78,3.05a47.94,47.94,0,0,0-17.3-1.61,37.43,37.43,0,0,0-11.08,2.3c-.84.32-1.47-.15-2.2-.27"/>
        <path class="cls-1" d="M393.82,3.05a43.5,43.5,0,0,0-10.75-1.68,49.71,49.71,0,0,0-17.8,2.38c-1.16.39-1.81-.44-2.7-.7"/>
        <path class="cls-1" d="M64.2,3.05A41.21,41.21,0,0,0,53.62,1.37a48.63,48.63,0,0,0-17.8,2.39c-.83.28-1.34-.31-2-.29"/>
        <path class="cls-1" d="M321.75,54.8a55.59,55.59,0,0,1-3.87,16.8A51.18,51.18,0,0,1,312.82,81a3,3,0,0,0-.65,2.87"/>
        <path class="cls-1" d="M431.62,54.8a46.36,46.36,0,0,1-3.91,17.45A49.53,49.53,0,0,1,423,80.89,2.82,2.82,0,0,1,420,82.35"/>
        <path class="cls-1" d="M422.55,44.55c.21,3.13.34,6.26.36,9.41,0,5.11-1.42,9.87-3.08,14.6-.09.28-.32.51-.31.85,0,3.83-2.46,6.43-4.51,9.26-.66.91-1.7,1.79-1,3.17"/>
        <path class="cls-1" d="M93.1,44.88a18.75,18.75,0,0,0,.28,5,16.64,16.64,0,0,1,.17,4.21A47.23,47.23,0,0,1,92,63.54a36.05,36.05,0,0,1-1.54,4.53,3.9,3.9,0,0,0-.33,3.36"/>
        <path class="cls-1" d="M154.42.7c-.77,1.72-2.48,1.08-3.71,1.28a47.74,47.74,0,0,0-16.45,5.95c-1.53.89-2.92,2-4.41,3a4.14,4.14,0,0,0-2,3.43"/>
        <path class="cls-1" d="M312.51,44.88c-.39,1.26.12,2.49.25,3.69a36.93,36.93,0,0,1,0,7.58A39.28,39.28,0,0,1,311,64.88a33.65,33.65,0,0,1-1.37,3.84,3.3,3.3,0,0,0-.14,2.71"/>
        <path class="cls-1" d="M18,11.62a3.66,3.66,0,0,1-1.49,3.54A48.79,48.79,0,0,0,2.6,37.34C2.25,38.5,1.42,38.66.7,39.17"/>
        <path class="cls-1" d="M349.13,14a2.13,2.13,0,0,0-2.51.52A50.8,50.8,0,0,0,335,30.09a47.73,47.73,0,0,0-2.81,7.07,2.23,2.23,0,0,1-1.71,1.76"/>
        <path class="cls-1" d="M192.22,152.07a4.37,4.37,0,0,0-2.91.94,45.53,45.53,0,0,1-18.93,8.8,28.87,28.87,0,0,1-5.54.84"/>
        <path class="cls-1" d="M185.5,18.17c-1.2.56-2-.3-2.84-.86a39.69,39.69,0,0,0-13.12-6,35.15,35.15,0,0,0-9.41-1.19"/>
        <path class="cls-1" d="M127,138.29a3.16,3.16,0,0,0,1.15,3.05,38.42,38.42,0,0,1,2.88,2.83,5.54,5.54,0,0,0,3.52,2c1.08.09,1.84,1,2.67,1.53a42.16,42.16,0,0,0,21.53,6.51"/>
        <path class="cls-1" d="M172,1.71c0,.91.57,1.28,1.42,1.53a46,46,0,0,1,21.3,13,4.5,4.5,0,0,0,3.57,1.64"/>
        <path class="cls-1" d="M239.6,14a3.71,3.71,0,0,1-2.12-.32c-7.35,6.6-12.83,14.49-15.54,24.17-.08.27-.17.72-.66.68"/>
        <path class="cls-1" d="M105.2,66.47c-.88.08-1.18.5-1.21,1.43-.16,4.48-.5,9-.61,13.44-.09,3,.37,6,.3,9.07"/>
        <path class="cls-1" d="M122.67,144.34a6.49,6.49,0,0,1-.21,2.25c6.09,6.67,13.25,11.69,22,14.25a3.13,3.13,0,0,0,2.86-.12"/>
        <path class="cls-1" d="M214.9,73.61c.21,2.91.32,5.82.37,8.74.08,3.76-.47,7.49-.42,11.25,0,1.4-.62,2.79,0,4.2"/>
        <path class="cls-1" d="M40.52,163H16.32"/>
        <path class="cls-1" d="M81.51,163H57.32"/>
        <path class="cls-1" d="M259.92,163H235.73"/>
        <path class="cls-1" d="M300.92,163h-24.2"/>
        <path class="cls-1" d="M105,107.3c1.17.62.77,1.88.94,2.78a90.68,90.68,0,0,0,6,19.62,5.77,5.77,0,0,1,.1,3.55"/>
        <path class="cls-1" d="M411.12,163H386.93"/>
        <path class="cls-1" d="M81.84,9.6A2.79,2.79,0,0,0,83,12.47,48.63,48.63,0,0,1,95.1,26.25a44.87,44.87,0,0,1,3.88,8A1.73,1.73,0,0,1,99,36"/>
        <path class="cls-1" d="M409.28,12c2.14-1,3.52.5,4.85,1.7A53.4,53.4,0,0,1,426.4,29.43c.76,1.53,1.37,3.13,2,4.71.22.53.35,1.1,1,1.25"/>
        <path class="cls-1" d="M301.25,9.6a3.37,3.37,0,0,0,1.35,3,49.13,49.13,0,0,1,13.61,16.62c.88,1.7,1.58,3.47,2.32,5.23a1.54,1.54,0,0,1-.14,1.5"/>
        <path class="cls-1" d="M212.21,114.1c-.62.17-.56.71-.68,1.17a80.38,80.38,0,0,1-8.6,21.82c-.65,1.12.43,1.93,0,2.88"/>
        <path class="cls-1" d="M369.8,163H345.94"/>
        <path class="cls-1" d="M204,32.45c2.86.28,3.08,2.86,3.81,4.73A82.94,82.94,0,0,1,212.89,56a4,4,0,0,0,.33.84"/>
        <path class="cls-1" d="M115.61,24.39c.84,1.82-.15,3.2-1,4.72a77.58,77.58,0,0,0-7.54,20.32c-.17.76-.59.79-1,1"/>
        <path class="cls-1" d="M201,64.79c.33.26.94.23.84.93a16,16,0,0,0,.32,3.52c.49,5.82.33,11.65.35,17.48"/>
        <path class="cls-1" d="M418.85,44.38c-.62,1.29-.11,2.63.07,3.85.76,5.06-.07,9.93-1.25,14.8a6.56,6.56,0,0,1-.5,1.34,4.13,4.13,0,0,0,.17,4"/>
        <path class="cls-1" d="M116.12,77.64c0,2.75,0,5.49,0,8.24,0,4.1.57,8.17.69,12.26a3.94,3.94,0,0,0,.32,1"/>
        <path class="cls-1" d="M52.11,13.38c-1.29.87-2.83.53-4.21.67a36.33,36.33,0,0,0-15.27,4.81,3.5,3.5,0,0,1-3.71.32"/>
        <path class="cls-1" d="M89.07,45.56a38.12,38.12,0,0,1-2,20.49,1,1,0,0,0,0,.34"/>
        <path class="cls-1" d="M289,27.75a2.81,2.81,0,0,0,1.34,2.36,29.66,29.66,0,0,1,8.74,13.43c0,.07.16.11.16.17a2.65,2.65,0,0,0,.69,2.17c.66.62,1.44-.23,2.17,0"/>
        <path class="cls-1" d="M271,13.8c-6.77.3-13.32,1.48-19.14,5.23-1.19.77-2.35.36-3.54.32"/>
        <path class="cls-1" d="M200,41.19a55.11,55.11,0,0,1,2.65,7.9c.18.61.25,1.31.73,1.65,1.45,1,1.45,2.64,1.79,4.07.49,2.09.71,4.24,1,6.37"/>
        <path class="cls-1" d="M69.41,27.75a5.37,5.37,0,0,0,1.48,2.38,29.06,29.06,0,0,1,9,14.41c.45,1.72.84,1.83,2.5,1.18"/>
        <path class="cls-1" d="M190.71,28.76c-.69,1.7.29,2.83,1.11,4.23a62.13,62.13,0,0,1,6.27,14.75c.35,1.29.75,2.45,2.19,2.86"/>
        <path class="cls-1" d="M380.88,13.8c-6.86.28-13.41,1.69-19.31,5.39-1.07.68-2,.2-3,0"/>
        <path class="cls-1" d="M201.12,102.51a72.42,72.42,0,0,1-2.05,10.74,51.24,51.24,0,0,1-2.69,8.39,2.69,2.69,0,0,0,.21,2.88"/>
        <path class="cls-1" d="M124.35,40.85A2.8,2.8,0,0,0,122.13,43a81.71,81.71,0,0,0-4.33,17c-.09.63-.47,1.19-.34,1.85"/>
        <path class="cls-1" d="M59.16,138.12a2.53,2.53,0,0,0,2.19.68q8.15,0,16.29,0c.56,0,1.15-.2,1.68.15"/>
        <path class="cls-1" d="M388.44,138.12a2.53,2.53,0,0,0,2.19.68c5.93,0,11.87,0,17.81,0"/>
        <path class="cls-1" d="M278.57,138.12a2.53,2.53,0,0,0,2.19.68c5.93,0,11.87,0,17.8,0"/>
        <path class="cls-1" d="M399.2,27.92a3.35,3.35,0,0,0,1.51,2.51c4,3.39,6.45,7.85,8.35,12.63.19.47.21,1.11.39,1.65.51,1.51.78,1.61,2.35,1"/>
        <path class="cls-1" d="M138.63,142.32c-.42,2.4,1.53,2.85,3,3.7a33.26,33.26,0,0,0,11.76,3.91,16.15,16.15,0,0,0,3.53.26c.75-.05,1,.33,1.26.87"/>
        <path class="cls-1" d="M373.32,37.49c-1.65-.74-2.93-.12-4.21,1-4.07,3.52-5.76,8.06-6.06,13.29a37.45,37.45,0,0,0-.31,4.37"/>
        <path class="cls-1" d="M42.36,34.8c0,1.68-1.17,2.64-2.35,3.53a15.5,15.5,0,0,0-6.24,11.42c-.22,2.13-.51,4.25-.65,6.39"/>
        <path class="cls-1" d="M190,78c.2,4.88-.14,9.75-.42,14.61-.09,1.6.06,3.31-.59,4.88"/>
        <path class="cls-1" d="M261.94,34.8a7.06,7.06,0,0,1-2.65,3.59,15.85,15.85,0,0,0-6.13,12c-.1,1.89-.4,3.81-.63,5.71"/>
        <path class="cls-1" d="M118,113.6a3.77,3.77,0,0,1,2.6,3,58.61,58.61,0,0,0,7.21,16.11c.75,1.15.23,1.93.11,2.89"/>
        <path class="cls-1" d="M182.31,86.72c-.49,3.68-.39,7.4-.94,11.09-.36,2.35-.74,4.7-1.05,7-.1.74-.41,1-1,1"/>
        <path class="cls-1" d="M129.56,66.89a37.08,37.08,0,0,0-.62,6.39c-.18,2.68-.2,5.37-.37,8.06-.09,1.5.09,3,.15,4.54"/>
        <path class="cls-1" d="M284.79,11.45a5.36,5.36,0,0,0,2.86,2.18,40.62,40.62,0,0,1,15.45,11.6"/>
        <path class="cls-1" d="M58.66,155.26H39.84"/>
        <path class="cls-1" d="M418.52,130.06H399.7"/>
        <path class="cls-1" d="M278.07,155.26H259.25"/>
        <path class="cls-1" d="M388.28,155.26H369.46"/>
        <path class="cls-1" d="M137.87,57.65a2.44,2.44,0,0,1,.39,2.52c-.71,3.33-1,6.7-1.38,10.07-.3,2.42,0,4.85-.44,7.24"/>
        <path class="cls-1" d="M161.14,13.8c2.08.62,4.27.52,6.4.95a36.93,36.93,0,0,1,11,4.33,3.66,3.66,0,0,0,2.9.6"/>
        <path class="cls-1" d="M88.9,130.06H70.42"/>
        <path class="cls-1" d="M308.31,130.06H289.83"/>
        <path class="cls-1" d="M349,28.42c.72,2.29-.93,3.79-1.84,5.55-2.2,4.28-4,8.7-4.19,13.6,0,1,.21,2-.35,2.86"/>
        <path class="cls-1" d="M19.35,28.42a3.81,3.81,0,0,1-.65,3.71,39.1,39.1,0,0,0-5.37,14.1c-.29,1.37.57,2.86-.37,4.2"/>
        <path class="cls-1" d="M395.33,12.29c1.21,1.11,2.81,1.45,4.22,2.16a41.85,41.85,0,0,1,13.76,11"/>
        <path class="cls-1" d="M136.61,92.43c.68,1.68.37,3.48.6,5.22a99.12,99.12,0,0,0,2.39,12.43c.18.68.55.74,1,.83"/>
        <path class="cls-1" d="M178.78,53.62A58.67,58.67,0,0,1,181,63.53c.43,2.79.62,5.61,1,8.4"/>
        <path class="cls-1" d="M241.28,30.27a3.42,3.42,0,0,0-3.36,2,42.16,42.16,0,0,0-5.18,14.45c-.2,1.2.51,2.53-.37,3.69"/>
        <path class="cls-1" d="M159,22.71a25.06,25.06,0,0,0-9.58,1.69,22.07,22.07,0,0,0-5.9,3.15,2.85,2.85,0,0,1-2.67.7"/>
        <path class="cls-1" d="M177.6,136.11c-1.09-.36-1.9.29-2.68.85-3.52,2.56-7.57,3.74-11.77,4.5a17.89,17.89,0,0,1-3,0"/>
        <path class="cls-1" d="M380.21,77.14a3,3,0,0,1-.81,3.22c-4.77,5.09-9.4,10.31-14.17,15.4a3,3,0,0,0-.81,3.22"/>
        <path class="cls-1" d="M206.33,82.52a10.9,10.9,0,0,1,.08,4.85c-.46,1.86,1.09,3.11.83,4.9-.35,2.49-.43,5-.74,7.55"/>
        <path class="cls-1" d="M50.76,77.14a4.56,4.56,0,0,1-1.46,3.91c-5,5.17-9.75,10.52-14.63,15.85A7.84,7.84,0,0,1,35,99"/>
        <path class="cls-1" d="M279.24,78.48a9.24,9.24,0,0,0,.38,2c-5.11,5.59-10.25,11.16-15.3,16.79-.88,1-2,.43-2.88.82"/>
        <path class="cls-1" d="M407.93,77.14a4.33,4.33,0,0,1-1.31,3.73c-4.45,4.68-8.7,9.56-13.18,14.2-1.19,1.23-1.7,2.33-1.3,3.91"/>
        <path class="cls-1" d="M410.12,93.27a2.51,2.51,0,0,1-.63,3.06c-4.75,5-9.3,10.08-14,15a4.2,4.2,0,0,0-1,3.39"/>
        <path class="cls-1" d="M80.84,93.27a4,4,0,0,1-1.33,3.55c-4.69,5-9.26,10.11-14,15.05-1,1-.24,2-.46,2.9"/>
        <path class="cls-1" d="M286.13,10.86a3.8,3.8,0,0,1-2.87,0,72,72,0,0,0-8.38-1.73c-.11,0-.27,0-.33,0-2.1,1.74-4.59.74-6.9,1"/>
        <path class="cls-1" d="M62.19,80.67c-1.89-.41-2.95.83-4,2-4.26,4.65-8.55,9.27-12.74,14A3.75,3.75,0,0,1,42,98.14"/>
        <path class="cls-1" d="M297.72,77.14a4.76,4.76,0,0,1-1.63,4.24c-4.48,4.66-8.73,9.53-13.19,14.2a3.3,3.3,0,0,0-1,2.73"/>
        <path class="cls-1" d="M302.43,95.28a3.84,3.84,0,0,0-3.55,1.5c-4.27,4.74-8.53,9.5-13,14.08a4.44,4.44,0,0,0-1.46,3.91"/>
        <path class="cls-1" d="M272.52,79.16A4.39,4.39,0,0,0,269,80.8c-4.45,5-9.08,9.74-13.54,14.68A3.68,3.68,0,0,1,252,96.8"/>
        <path class="cls-1" d="M78.32,77.14a4.73,4.73,0,0,1-1.65,4.24c-4.51,4.67-8.87,9.5-13.32,14.23a3.18,3.18,0,0,0-.83,2.7"/>
        <path class="cls-1" d="M389.45,78.48a4.72,4.72,0,0,1-1.64,4.24c-4.52,4.67-8.87,9.5-13.33,14.23a3.21,3.21,0,0,0-.82,2.7"/>
        <path class="cls-1" d="M285.63,17.25c2.3.2,4,1.67,5.86,2.79a35.4,35.4,0,0,1,10.05,9.42,4.09,4.09,0,0,0,2.57,1.65"/>
        <path class="cls-1" d="M66.22,17.25c2.3.2,4,1.67,5.86,2.79a39.93,39.93,0,0,1,10.1,9.39,3,3,0,0,1,.34,3.36"/>
        <path class="cls-1" d="M129.89,100.91a100,100,0,0,0,2.69,11.85,38.62,38.62,0,0,0,1.21,3.68,3.18,3.18,0,0,1,0,3"/>
        <path class="cls-1" d="M394.83,17.67a4.08,4.08,0,0,1,3.22.27,44.7,44.7,0,0,1,13.59,11.31,3.22,3.22,0,0,1,.49,3.54"/>
        <path class="cls-1" d="M184.83,44.88a4.73,4.73,0,0,0,.27,3.55,63.52,63.52,0,0,1,3.26,13.25c.07.63.46,1.19.33,1.85"/>
        <path class="cls-1" d="M199.61,124.18a5.85,5.85,0,0,0-.59,3.71c.22,1.22-.89,2.37-1.48,3.48s-1.33,2.25-2,3.37c-.48.78-1,1.69-2.14,1.91-.72.14-1.21.89-1.67,1.48a39.57,39.57,0,0,1-13.12,11.25"/>
        <path class="cls-1" d="M140,15a25.77,25.77,0,0,0-7.19,4.91,38.7,38.7,0,0,0-6.08,6.51c-.21.29-.39.71-.68.82-3.55,1.4-4.13,5.1-6,7.8a3.82,3.82,0,0,1-2.09,1.8"/>
        <path class="cls-1" d="M146.86,14.64a2.83,2.83,0,0,1-1.84,2,33.07,33.07,0,0,0-14.1,10.76c-.81,1.06-2.06.28-2.88,1"/>
        <path class="cls-1" d="M188,134.26c.7,1.62-.09,2.72-1.16,3.88a38.88,38.88,0,0,1-13.12,9.56,2.39,2.39,0,0,1-2.52-.08"/>
        <path class="cls-1" d="M300.08,142.66c-3.08.57-6.16-.14-9.24,0s-6.16,0-9.24,0"/>
        <path class="cls-1" d="M80.67,142.66c-3.08.57-6.16-.14-9.24,0s-6.16,0-9.24,0"/>
        <path class="cls-1" d="M410,142.66c-3,.49-6.05-.12-9.07,0s-6.05,0-9.08,0"/>
        <path class="cls-1" d="M50.93,109.06c-3.19,3.53-6.37,7.07-9.58,10.58-1.16,1.27-2.9,1.47-4.36,2.19"/>
        <path class="cls-1" d="M36.65,150.56a3.58,3.58,0,0,0,2.86,1c4,0,8.06,0,12.09,0"/>
        <path class="cls-1" d="M256.06,150.56a3.58,3.58,0,0,0,2.86,1c4,0,8.06,0,12.09,0"/>
        <path class="cls-1" d="M140.14,37.83c-1.46,0-2.06,1-2.73,2.16a55.88,55.88,0,0,0-5,12c-.24.85-.62,1.37-1.53,1.42"/>
        <path class="cls-1" d="M380.55,107a3.89,3.89,0,0,1-1.34,3.54c-2.77,2.94-5.51,5.92-8.23,8.9-1.19,1.31-2.87,1.66-4.38,2.35"/>
        <path class="cls-1" d="M187.18,111.16c-.74.19-.83.81-1,1.42a54,54,0,0,1-5.7,13.11c-.58.9.07,1.68.17,2.52"/>
        <path class="cls-1" d="M366.6,150.89a2.53,2.53,0,0,0,2.19.68h12.43"/>
        <path class="cls-1" d="M270.51,107.38a3.05,3.05,0,0,1-1,2.86c-2.84,2.87-5.57,5.86-8.22,8.91-1.23,1.42-2.93,1.85-4.55,2.51"/>
        <path class="cls-1" d="M399,52.86c-.76.88-.25,2-.46,3a18.56,18.56,0,0,1-5.46,9.7A3.32,3.32,0,0,0,392,69.08"/>
        <path class="cls-1" d="M69.41,52.78c-.15,4.86-1.77,8.11-7.06,14.12a6.38,6.38,0,0,1,.17,2.18"/>
        <path class="cls-1" d="M402.39,155.26c2.07.37,4.1-.43,6.23-.07a39.77,39.77,0,0,0,6.37.07h6.21"/>
        <path class="cls-1" d="M288.82,52.78a17.58,17.58,0,0,1-4.88,11.75c-1.2,1.25-2.23,2.87-4.36,2.53"/>
        <path class="cls-1" d="M309,44.38c-.92.79-.4,1.84-.29,2.68a36.74,36.74,0,0,1-2.23,19,1.29,1.29,0,0,0,0,.34"/>
        <path class="cls-1" d="M73.11,155.26c1.4-.14,2.81.22,4.23-.44.83-.39,1.79.5,2.82.47,3.81-.08,7.62,0,11.43,0"/>
        <path class="cls-1" d="M292.52,155.26c1.4-.14,2.81.22,4.22-.44.84-.39,1.8.5,2.83.47,3.81-.08,7.62,0,11.43,0"/>
        <path class="cls-1" d="M59.16,27.75a27.75,27.75,0,0,0-12.77-.86c-.73.09-.6.65-.83,1"/>
        <path class="cls-1" d="M397.52,41.86c-2.55.13-3.57-2.14-5.17-3.41a19.17,19.17,0,0,0-8.26-3.9,2.06,2.06,0,0,0-1.86.42"/>
        <path class="cls-1" d="M352.66,107a3,3,0,0,1-.81,3.23c-3.11,3.22-6.06,6.59-9.12,9.86a5.09,5.09,0,0,0-1.33,2.54"/>
        <path class="cls-1" d="M23.21,107a4.25,4.25,0,0,1-1.31,3.73c-3.06,3.16-5.95,6.48-8.95,9.7a4,4,0,0,0-1.16,2.2"/>
        <path class="cls-1" d="M80,61.68c-.21.14-.5-.24-.71.33-1.35,3.65-3.74,6.71-5.71,10a47,47,0,0,1-5.82,7.5c-.9,1-1.63,2.1-3.05,2.31-.69.1-.87.72-1.35,1"/>
        <path class="cls-1" d="M255.05,26.07a4.87,4.87,0,0,1-1.65,2.22,30.48,30.48,0,0,0-8.09,8.87c-.23.41-.4.86-1,.67"/>
        <path class="cls-1" d="M279.58,27.16a2.11,2.11,0,0,1-1.86.29,26.35,26.35,0,0,0-12.42-.37"/>
        <path class="cls-1" d="M245,109.06a4.28,4.28,0,0,0-3.54,1.5q-4.41,4.91-8.9,9.75a4.11,4.11,0,0,0-1.33,2.36"/>
        <path class="cls-1" d="M406.92,56.06c-.33.26-.77.26-.87.91a23.54,23.54,0,0,1-5.36,11.62,3.14,3.14,0,0,1,.19,1.49"/>
        <path class="cls-1" d="M390.12,27.08c-2,1.14-3.92-.2-5.87-.37a36.3,36.3,0,0,0-8.4.21c-.51.07-.7.5-.68,1"/>
        <path class="cls-1" d="M408.94,61.68a28.79,28.79,0,0,1-6.38,10.59c-.12.11-.32.21-.33.34-.34,3.63-3.64,5.09-5.59,7.52a3.75,3.75,0,0,0-1.14,3.06"/>
        <path class="cls-1" d="M77.14,56.22c-.51.19-.59.69-.66,1.1a22.34,22.34,0,0,1-4.4,10.06,3.6,3.6,0,0,0-.82,2.7"/>
        <path class="cls-1" d="M364.92,26.24c0,1.07-.8,1.48-1.51,2a33.27,33.27,0,0,0-8.4,9.4"/>
        <path class="cls-1" d="M65.21,43.54a3.23,3.23,0,0,0-1-3.91A20,20,0,0,0,53.7,34.3"/>
        <path class="cls-1" d="M287.31,41.69a3.94,3.94,0,0,1-3.22-1.49,17.84,17.84,0,0,0-11-5.9"/>
        <path class="cls-1" d="M35.31,26.24c0,1.07-.74,1.63-1.51,2.18a29.89,29.89,0,0,0-8.24,9.24"/>
        <path class="cls-1" d="M296.21,56.56A27.06,27.06,0,0,1,291,68.22c-.49.63-.22,1.24-.31,1.86"/>
        <path class="cls-1" d="M362.24,108.72a3.28,3.28,0,0,1-1,2.72c-3.15,3.29-6.21,6.68-9.26,10.06a3.75,3.75,0,0,1-2.19,1.19,2.91,2.91,0,0,0-1.85.82"/>
        <path class="cls-1" d="M298.73,62a32.05,32.05,0,0,1-5.39,9.39,3.23,3.23,0,0,0-1.16,2.37c0,.54-.38.83-.68,1.17-1.74,2-3.71,3.8-5.37,5.88a1.74,1.74,0,0,1-1.34.72,3,3,0,0,0-2,1.3"/>
        <path class="cls-1" d="M35,110.4a3.82,3.82,0,0,0-3.71,1.5c-3,3.3-6,6.53-9.07,9.75-.93,1-.58,2.11-.66,3.2"/>
        <path class="cls-1" d="M252,108.05a6.33,6.33,0,0,0,.21,2.26c-3.25,3.49-6.51,7-9.79,10.5-.91,1-1.83,1.88-1.51,3.37"/>
        <path class="cls-1" d="M146.19,138.29a23.57,23.57,0,0,1-8.4-6.72c-.91-1-1.61-2.34-3.19-2.52"/>
        <path class="cls-1" d="M172.4,26.07c1.94.33,3.31,1.69,4.66,2.9a27.25,27.25,0,0,1,4.6,4.81,3.13,3.13,0,0,0,2.5,1.53"/>
        <path class="cls-1" d="M112.42,103.26c.45,2.38.89,4.76,1.35,7.14.18,1,.22,2,1.31,2.57a2.34,2.34,0,0,1,.85,1.47,49.26,49.26,0,0,0,2.69,8.57c0,.12-.1.33-.15.5"/>
        <path class="cls-1" d="M29.43,140c.95,2.69.95,2.74,3.69,2.67,1.92,0,3.91.46,5.72-.64a.58.58,0,0,1,.5,0c2.6,1.23,5.38.43,8.06.66"/>
        <path class="cls-1" d="M152.74,33.8a3.4,3.4,0,0,1-1.67,2.71,22.15,22.15,0,0,0-8.24,9.38"/>
        <path class="cls-1" d="M359,140c.6,2.69.6,2.74,3.36,2.67,1.92,0,3.91.46,5.72-.64a.58.58,0,0,1,.5,0c2.72,1.25,5.6.42,8.4.66"/>
        <path class="cls-1" d="M246.32,139.3c1.65,0,3.05.23,3.23,2.35,0,.66.55,1.15,1.47,1,2.4-.3,4.91.56,7.23-.68a.6.6,0,0,1,.49,0c2.61,1.23,5.38.43,8.07.66"/>
        <path class="cls-1" d="M157.78,26.57a19.73,19.73,0,0,0-9.2,2.27,6.83,6.83,0,0,1-4.41.92"/>
        <path class="cls-1" d="M27.41,17.33c-4.52.84-6.7,4.63-9.57,7.56-.54,4.26-4.43,6.87-5.39,10.92,0,.13-.21.23-.33.34"/>
        <path class="cls-1" d="M288.48,31.44a4.09,4.09,0,0,0,1.3,3.58,22.65,22.65,0,0,1,5,7.83,3.5,3.5,0,0,1,0,3.38"/>
        <path class="cls-1" d="M69.24,33.8a28.69,28.69,0,0,1,6.06,8.9,3.39,3.39,0,0,1,0,3.53"/>
        <path class="cls-1" d="M246.82,17.33c-4.44.81-6.54,4.59-9.41,7.39-.66,4.15-4.17,6.88-5.36,10.76-.1.32-.37.43-.52.67"/>
        <path class="cls-1" d="M174.41,134.6a5.12,5.12,0,0,0-4,.64c-2.83,1.7-6,2.15-9.23,2.55"/>
        <path class="cls-1" d="M357.53,17.5c-2.39-.14-4.15,1.06-5.71,2.69-.77.79-1.58,1.56-2.35,2.35a6.27,6.27,0,0,0-2.14,3.68c-.25,1.68-1.91,3-2.77,4.53s-1.86,3.44-2.65,5.23"/>
        <path class="cls-1" d="M177.77,118a4.08,4.08,0,0,0-2.92,2.15,23.54,23.54,0,0,1-6.29,7.13c-1.32,1-2.48,1.28-3.89.47"/>
        <path class="cls-1" d="M398.36,31.44c-.1,1.83,1,3,2.13,4.24a22.55,22.55,0,0,1,4.43,7.52c.32.91.48,2,1.84,2.1"/>
        <path class="cls-1" d="M175.42,42a4.9,4.9,0,0,1-3.73-2.16,17,17,0,0,0-7.7-5.06,1.67,1.67,0,0,0-1.51,0"/>
        <path class="cls-1" d="M243.63,61.68H232.88"/>
        <path class="cls-1" d="M24.22,61.68H13.47"/>
        <path class="cls-1" d="M257.07,32.45a2.9,2.9,0,0,0-3.55.65,25.84,25.84,0,0,0-6.31,8.78c-.42,1-1.43.67-1.9,1.32"/>
        <path class="cls-1" d="M365.26,29.76a4.47,4.47,0,0,1-1.64,3.41A26.16,26.16,0,0,0,357.56,41a2.13,2.13,0,0,0-.2,2.34"/>
        <path class="cls-1" d="M145.85,120.48c-.71,1.57-.13,2.71,1,3.89a18.07,18.07,0,0,0,8.93,5.35"/>
        <path class="cls-1" d="M346.44,137.28c-2.45.92-4.12,3.11-6.56,4-.53.19-1,.92-1.75.37"/>
        <path class="cls-1" d="M353.5,61.68H343.08"/>
        <path class="cls-1" d="M396.51,10.61a2.87,2.87,0,0,1-3,.34,51,51,0,0,0-8.9-1.85"/>
        <path class="cls-1" d="M35.64,29.76A3.73,3.73,0,0,1,34.31,33,27.11,27.11,0,0,0,28,41.17a2.4,2.4,0,0,0,0,2.54"/>
        <path class="cls-1" d="M25.56,135.6c-.36-.83-1-.82-1.67-.49-2.79,1.41-6.14,1.2-8.78,3.13a18.9,18.9,0,0,0-1.85,1.35,11.92,11.92,0,0,1-4.66,2.23"/>
        <path class="cls-1" d="M290.84,92.6c-2.24,2.46-4.48,4.93-6.73,7.38-.53.59-1.18,1.08-.84,2,.17.47-.22.71-.5,1-1.51,1.62-2.93,3.35-4.56,4.84a4.43,4.43,0,0,0-1.65,4.23"/>
        <path class="cls-1" d="M53.12,93.94q-3.54,3.78-7,7.56c-.19.21-.5.32-.52.67-.14,2.78-2.65,3.94-4,5.87a8.49,8.49,0,0,1-1.33,1.35,4.18,4.18,0,0,0-1.51,4"/>
        <path class="cls-1" d="M272.52,93.94c-2,2.18-4,4.39-6.06,6.54a4.79,4.79,0,0,0-1.62,2.87c-.06.84-.7,1.17-1.09,1.65a41.79,41.79,0,0,1-4.19,4.53,4.15,4.15,0,0,0-1.48,3.9"/>
        <path class="cls-1" d="M71.43,92.6c-2.3,2.52-4.56,5.07-6.91,7.54a2.86,2.86,0,0,0-.82,2.37"/>
        <path class="cls-1" d="M400.88,92.76,394.15,100a3.46,3.46,0,0,0-1,2.69"/>
        <path class="cls-1" d="M382.4,94.11c-2.19,2.41-4.35,4.83-6.57,7.21-.6.65-1.22,1.28-1,2.19.22.76-.43.85-.71,1.17-1.76,1.93-3.54,3.85-5.37,5.71-.92.94-.31,2-.5,3"/>
        <path class="cls-1" d="M167.86,28.59c2.09-.79,3.4.88,4.83,1.74A22.82,22.82,0,0,1,177.8,35c.79.9-.22,1.72.14,2.54"/>
        <path class="cls-1" d="M138.46,128.72a3,3,0,0,1,2.9,1.14,21.63,21.63,0,0,0,7.36,5.73c.67.32,1.42.7,2.17.1"/>
        <path class="cls-1" d="M112.08,64.54c-.18,3.14-.75,6.25-.67,9.41"/>
        <path class="cls-1" d="M38.67,139.47a1.7,1.7,0,0,0-1.35-.66c-2.47.14-5-.51-7.39.66-1.05.53-2-.38-3-.17"/>
        <path class="cls-1" d="M102.34,54.8c-.74,1.43-.33,3-.6,4.55-.8,4.52-1.15,9.12-2.25,13.59a2.09,2.09,0,0,0,0,.5"/>
        <path class="cls-1" d="M258.08,139.47a2,2,0,0,0-1.52-.68c-1.68,0-3.36,0-5,0-1,0-1.67.69-2.52,1"/>
        <path class="cls-1" d="M130.06,45.22c.41.76-.09,1.35-.31,2-.63,1.89-1.2,3.79-1.68,5.72a3,3,0,0,1-.87,1.33"/>
        <path class="cls-1" d="M368.12,139.47c-.34-.33-.63-.71-1.18-.68-2.47.17-5-.47-7.39.68-.21.1-.33.39-.68.18-1.44-.89-3.29-.52-4.7-1.53"/>
        <path class="cls-1" d="M114.44,55a61.59,61.59,0,0,1-1.2,8.23c0,.19-.32.34-.48.51"/>
        <path class="cls-1" d="M205.83,100.66c-.86.58-.75,1.57-.8,2.35-.13,2.15-1.06,4.2-.71,6.39"/>
        <path class="cls-1" d="M325,143.5a1.63,1.63,0,0,1-1.42,1.34c-1.46.33-1.79,1.43-1.84,2.69s0,2.24,0,3.36"/>
        <path class="cls-1" d="M92.09,70.92a2.82,2.82,0,0,0-2.72,1.84,26.4,26.4,0,0,1-4,6.19,3.65,3.65,0,0,0-1,2.89"/>
        <path class="cls-1" d="M311.5,70.92a2.88,2.88,0,0,0-2.75,2,33,33,0,0,1-3.81,5.9,3.68,3.68,0,0,1-2.35,1.67c-.72.1-1,.64-1.51,1"/>
        <path class="cls-1" d="M194.07,66.22c.22,2.8.45,5.6.67,8.4"/>
        <path class="cls-1" d="M123.84,89.74c.41,2.79.45,5.6.68,8.4"/>
        <path class="cls-1" d="M191.38,110.07c-1.21,1-1,2.57-1.5,3.87a26.27,26.27,0,0,1-1.69,4.53"/>
        <path class="cls-1" d="M361.9,134.43a8.77,8.77,0,0,0,5.22-3.86,1.28,1.28,0,0,1,1.33-.67c1.73.36,3.48.06,5.21.16a2.44,2.44,0,0,1,1.34.17,2.63,2.63,0,0,0,3.21-.15,3.39,3.39,0,0,1,3.7-.23c1,.56,2.22.12,3.34.21"/>
        <path class="cls-1" d="M193.73,101.58c-.63,2.29-.75,4.68-1.29,7a1.45,1.45,0,0,1-.89,1.08"/>
        <path class="cls-1" d="M32.28,134.43c2.17-.71,4.21-1.55,5.24-3.85.23-.54.89-.55,1.48-.53,1.74,0,3.55-.31,5.19.09,2.21.52,4.19.75,6.07-.75a.7.7,0,0,1,.83,0c1.52,1.09,3.25.52,4.88.66"/>
        <path class="cls-1" d="M251.69,134.43c2.14-.74,4.28-1.46,5.24-3.85.21-.54.89-.55,1.48-.53,1.74,0,3.55-.31,5.19.09,2.21.52,4.19.75,6.07-.75a.7.7,0,0,1,.83,0c1.52,1.09,3.25.52,4.88.66"/>
        <path class="cls-1" d="M95.45,74.45a23.81,23.81,0,0,1-2.68,7.4c-.42.65,0,1.34,0,2"/>
        <path class="cls-1" d="M126.11,54.29c.56.81,0,1.58-.09,2.35-.26,1.52-.63,3-.8,4.54-.11,1-.48,2,.46,2.87a1,1,0,0,1,.17,1c-.41,1.38-.19,2.82-.49,4.2"/>
        <path class="cls-1" d="M191.55,58A25,25,0,0,1,192.69,64a2,2,0,0,0,.71,1.34"/>
        <path class="cls-1" d="M399.2,150.56a4,4,0,0,0,3,1c1.46.1,3.07-.59,4.37.65"/>
        <path class="cls-1" d="M125,98.48a3.1,3.1,0,0,1,.88,1.84,47.77,47.77,0,0,0,1.14,6.05"/>
        <path class="cls-1" d="M205.83,61.68c-1.08,1.48-.25,3-.13,4.54a4.33,4.33,0,0,1-.21,2.52"/>
        <path class="cls-1" d="M245,135.6c-.33-.91-1-.83-1.67-.49-2.85,1.42-6.16,1.42-9,3.09-.94.56-1.32,1.54-2.29,2-1.2.5-2.37,1.08-3.74,1.71,1.15.61.44,1.7.88,2.48"/>
        <path class="cls-1" d="M65.88,102.51a3.6,3.6,0,0,0-3.39,1.31c-1.63,1.84-3.21,3.72-5,5.43-.78.75-.23,1.88-.36,2.83"/>
        <path class="cls-1" d="M111.75,74.45c1.16,1.13.78,2.62.58,3.85-.17,1-.14,2-.25,3"/>
        <path class="cls-1" d="M395.5,102.34a4,4,0,0,0-3.4,1.48c-1.37,1.63-3,3.09-4.34,4.72a2.9,2.9,0,0,1-2.34,1.41c-.8,0-1.26.92-1.85,1.46"/>
        <path class="cls-1" d="M70.25,150.89c.84,1,2,.57,3,.68,1.24.13,2.62-.47,3.69.67"/>
        <path class="cls-1" d="M289.66,150.89c.84,1,2,.57,3,.68,1.25.13,2.63-.47,3.7.67"/>
        <path class="cls-1" d="M377.52,22.88c-1.5-.1-2.88.62-4.36.71-.22,0-.55.44-.84.28-2.3-1.24-4.13.4-5.82,1.31a4.13,4.13,0,0,1-3.59.38"/>
        <path class="cls-1" d="M25.56,123.84c-1.12,1.18-2.2,2.39-3.37,3.52-.94.92-1.47,1.84-.41,3-1.16,1.37-1.31,3.29-3.08,4.16-.64.31.12,1.18,0,1.8"/>
        <path class="cls-1" d="M384.08,9.44a2.38,2.38,0,0,1-2,.68c-1.51,0-3,0-4.54,0"/>
        <path class="cls-1" d="M267.32,22.88a10.3,10.3,0,0,0-3.18.54,3.86,3.86,0,0,1-1.67.23c-2.41-.75-4.17.68-6.06,1.6a3.81,3.81,0,0,1-3,.48"/>
        <path class="cls-1" d="M245,123.84c-1.23,1.35-2.46,2.7-3.7,4-.27.3-.61.52-.5,1,.55,2.37-.74,4-2.38,5.34-.9.73-.13,1.39-.31,2.06"/>
        <path class="cls-1" d="M124.85,82.68c0,1.52,0,3,0,4.54a2.35,2.35,0,0,1-.68,2"/>
        <path class="cls-1" d="M92.6,151.56c-2.19-.1-4.38.22-6.56-.16"/>
        <path class="cls-1" d="M112.76,96.12c.39,1.55.2,3.17.64,4.71a1.79,1.79,0,0,1-.64,1.85"/>
        <path class="cls-1" d="M336.7,128.88a3.67,3.67,0,0,1,1.17-3.53c1.09-.94,1.88-2.24,3.4-2.65a5.08,5.08,0,0,0,4.83.78c1-.27,1.76-.18,2.19.87"/>
        <path class="cls-1" d="M7.42,128.88c.12-.71-.37-1.32-.25-2.08,1.45-1.31,2.4-3.31,4.45-4.13a4.82,4.82,0,0,0,4.69.81,1.87,1.87,0,0,1,2.62,1.2"/>
        <path class="cls-1" d="M47.91,22.88a8.75,8.75,0,0,0-3.18.54,3.7,3.7,0,0,1-1.67.23c-2.26-.75-4,.46-5.71,1.45a4.86,4.86,0,0,1-4.06.46"/>
        <path class="cls-1" d="M422.21,151.56h-6.38"/>
        <path class="cls-1" d="M226.83,128.88a6.57,6.57,0,0,0-.2-2.23c.88-1.21,2.14-2.1,3.1-3.27a1.36,1.36,0,0,1,2-.25c1.12.79,2.49.54,3.84.42,1.79-.15,3.44-.86,5.2-1"/>
        <path class="cls-1" d="M54.46,9.44c-.63.76-1.5.67-2.35.67H48.24"/>
        <path class="cls-1" d="M194.4,75.12c-.76.63-.67,1.5-.67,2.36,0,1.28,0,2.57,0,3.86"/>
        <path class="cls-1" d="M185.16,16a4.21,4.21,0,0,0,1.68,3.53,48.29,48.29,0,0,1,4.95,5,3,3,0,0,0-.24,1.59"/>
        <path class="cls-1" d="M312,151.56h-6"/>
        <path class="cls-1" d="M184.49,33.12c-.57,1.91.31,3.41,1.34,4.88a5.24,5.24,0,0,1,1,1.68c.3,1.35,1.26,1.82,2.39,2.18"/>
        <path class="cls-1" d="M130.4,122.92c1.2.46,1.35,1.73,2,2.62.31.43.33,1.15.71,1.47,1.41,1.19,1.35,2.66,1,4.23"/>
        <path class="cls-1" d="M262.78,138.29c-1,.45-2,.93-3,1.34s-.88,1.41-1.17,2.19"/>
        <path class="cls-1" d="M193.23,95c-.11,1.34-.14,2.7-.37,4a2,2,0,0,0,.54,2"/>
        <path class="cls-1" d="M43.37,138.29a21.24,21.24,0,0,1-2.2,1,2.79,2.79,0,0,0-2,2.57"/>
        <path class="cls-1" d="M384.41,125.86a22.19,22.19,0,0,1-2.36,1,2.42,2.42,0,0,0-1.84,2.2"/>
        <path class="cls-1" d="M248.33,148.88c-1.33-.25-2.76.08-4-.53-.7-.35-1.11.1-1.51.38a16.29,16.29,0,0,0-3.21,3.16c-.64.8-.19,1.69-.33,2.53"/>
        <path class="cls-1" d="M261.1,125.86c-1.92.66-3.22,1.79-3,4"/>
        <path class="cls-1" d="M27.08,148.29c-.52.37-1,.67-1.69.25a1.68,1.68,0,0,0-2.19.32,32.16,32.16,0,0,0-2.87,2.85c-.79.86-.33,1.81-.48,2.71"/>
        <path class="cls-1" d="M41.69,125.86c-1.92.66-3.28,1.74-3,4"/>
        <path class="cls-1" d="M393.65,22.71a3.16,3.16,0,0,0,2.37,3,3,3,0,0,1,1.13.76,4.14,4.14,0,0,0,4.06,1"/>
        <path class="cls-1" d="M356.69,148.2c-.55.46-1.2.77-1.83.32-.91-.65-1.51-.13-2.21.35a13.52,13.52,0,0,0-3,3.06c-.53.68-.12,1.65-.2,2.49"/>
        <path class="cls-1" d="M371,125.86c-1.67.75-3,1.79-2.85,3.86"/>
        <path class="cls-1" d="M283.78,22.71a2.62,2.62,0,0,0,1.68,2.68c1.64.69,2.79,2.47,4.87,2.2a.37.37,0,0,0,.34-.18"/>
        <path class="cls-1" d="M119.48,36.32a3.07,3.07,0,0,1-.16,3,1.26,1.26,0,0,0,0,1.5"/>
        <path class="cls-1" d="M64.2,23c.62,2.59,3.32,2.84,4.91,4.34.52.48,1.42.29,2.15,0"/>
        <path class="cls-1" d="M348,147.36c-.11,1.86-1.66,2.56-2.86,3.53"/>
        <path class="cls-1" d="M354.84,124c-1,1.12-1.94,2.32-3,3.34s-1.32,1.87-.4,3c-1,1.24-1.36,2.8-2.6,3.76"/>
        <path class="cls-1" d="M187.52,41.36c-.65,1.19,0,2.26.33,3.36.13.4.47.05.67.16"/>
        <path class="cls-1" d="M238.08,147.36c0,2-1.94,2.31-3,3.36"/>
        <path class="cls-1" d="M243.29,139.3a17.73,17.73,0,0,1-3.53-1.64c-.34,2.57-.26,2.71.8,5.19a5.76,5.76,0,0,1,0,2.16"/>
        <path class="cls-1" d="M181.47,129.89c0,.69-.13,1.4.52,2-1.15,1.15-2.11,2.26-3.23,3.21a2.63,2.63,0,0,0-1,2.54"/>
        <path class="cls-1" d="M18.51,147.7c-.22,1.06-.58,2-1.84,2.22-.45.1-.79.64-1.19,1"/>
        <path class="cls-1" d="M141.15,26.07c-.05,2.95-2.64,4.16-4.24,6-.46.53-1.42.15-2.15.2"/>
        <path class="cls-1" d="M23.88,139.3c-1.12-.63-2.53-.59-3.69-1.75v4.27"/>
        <path class="cls-1" d="M130.73,119.48a3.75,3.75,0,0,1,.34,3.69"/>
        <path class="cls-1" d="M411.29,151.4c-1.17.53-2.68-.38-3.69.84"/>
        <path class="cls-1" d="M232.54,147.36c-.67.31-.34.82-.15,1.17a4.07,4.07,0,0,1,.49,2.36"/>
        <path class="cls-1" d="M13.13,147.36c-.66.31-.34.82-.15,1.17a4.07,4.07,0,0,1,.49,2.36"/>
        <path class="cls-1" d="M348.21,134.43c-.51.88-1.18.07-1.77.15a16.83,16.83,0,0,1-2,0"/>
        <path class="cls-1" d="M355,136.28c-.3-1.59-.66-1.71-2.52-.84"/>
        <path class="cls-1" d="M81.51,151.56c-1.09.1-2.3-.35-3.19.68"/>
        <path class="cls-1" d="M300.92,151.56c-1.09.1-2.3-.35-3.2.68"/>
        <path class="cls-1" d="M354,145v3"/>
        <path class="cls-1" d="M368,111.08c-1.45-.15-2,1.08-2.86,1.84"/>
        <path class="cls-1" d="M243.8,145c0,1,.11,2,.16,3"/>
        <path class="cls-1" d="M24.39,145l.17,3"/>
        <path class="cls-1" d="M276.39,109.73c-1.39-.17-2,.92-2.86,1.68"/>
        <path class="cls-1" d="M38.5,111.24a2.68,2.68,0,0,0-2.69,1.52"/>
        <path class="cls-1" d="M56.81,109.73c-1.34-.16-1.9.94-2.69,1.68"/>
        <path class="cls-1" d="M349.64,137.12a10.47,10.47,0,0,1-.17,2.85"/>
        <path class="cls-1" d="M363.58,150.56a6.44,6.44,0,0,1-2.69,1.34"/>
        <path class="cls-1" d="M338.38,142a3.51,3.51,0,0,1,.84,2.69"/>
        <path class="cls-1" d="M34,150.56a6.46,6.46,0,0,1-2.68,1.34"/>
        <path class="cls-1" d="M232.37,140.31a4,4,0,0,1,.51,2.69"/>
        <path class="cls-1" d="M395.33,81.51c-1.26-.15-1.92.77-2.69,1.51"/>
        <path class="cls-1" d="M9.1,142c.78.78.43,1.77.5,2.69"/>
        <path class="cls-1" d="M13,140.48c.1.85.74,1.6.51,2.52"/>
        <path class="cls-1" d="M364.92,123.84c-1.19,1.77-.59,3.35.51,4.88"/>
        <path class="cls-1" d="M84.2,80.16c-1.16-.14-1.82.65-2.52,1.35"/>
        <path class="cls-1" d="M367.28,125.86l-2.52,1"/>
        <path class="cls-1" d="M37.66,125.86l-2.35,1"/>
        <path class="cls-1" d="M242.62,107v2.36"/>
        <path class="cls-1" d="M255.22,29.76c-.36.75,0,1.61-.34,2.36"/>
        <path class="cls-1" d="M270.17,77.14v2.35"/>
        <path class="cls-1" d="M254.72,123.84c-1.2,1.77-.18,3.3.5,4.88"/>
        <path class="cls-1" d="M35.31,123.84a14.1,14.1,0,0,0-.84,2.36"/>
        <path class="cls-1" d="M331,150.39h-2.35"/>
        <path class="cls-1" d="M300.08,79.32a6,6,0,0,1-2.19.17"/>
        <path class="cls-1" d="M53.12,79.16a13.45,13.45,0,0,1-2.19.16"/>
        <path class="cls-1" d="M14.31,151.9c-.09-.39-.46-.81-.67-.8-1.94.09-3.57-1.44-5.55-1"/>
        <path class="cls-1" d="M126.87,139.8l-2.19-.16"/>
        <path class="cls-1" d="M347.28,24.89a13.26,13.26,0,0,0-2.18.17"/>
        <path class="cls-1" d="M254.72,156.44a39.18,39.18,0,0,0-4.71.5"/>
        <path class="cls-1" d="M34.64,156.44l-4,.5"/>
        <path class="cls-1" d="M281.93,66.89v2.19"/>
        <path class="cls-1" d="M118.3,26.07c-.79-.09-1.44.4-2.18.5"/>
        <path class="cls-1" d="M351,122.67c.06.73.11,1.45.17,2.18"/>
        <path class="cls-1" d="M245.31,15.32c0,.74-.55,1.4-.34,2.18"/>
        <path class="cls-1" d="M25.9,15.32a4,4,0,0,0-.34,2.18"/>
        <path class="cls-1" d="M238.76,28.42l.5,2.18"/>
        <path class="cls-1" d="M300.24,93.27v2.18"/>
        <path class="cls-1" d="M254.38,96.8V99"/>
        <path class="cls-1" d="M25.56,109.06a13.26,13.26,0,0,1-2.18.17"/>
        <path class="cls-1" d="M35.48,32.12a3.9,3.9,0,0,1,2.18.33"/>
        <path class="cls-1" d="M252.36,154.42v2.18"/>
        <path class="cls-1" d="M137,32.28l.17,2.19"/>
        <path class="cls-1" d="M331.83,151.23c.05.73.11,1.45.17,2.18"/>
        <path class="cls-1" d="M386.6,109.9a6.14,6.14,0,0,0,.16,2.18"/>
        <path class="cls-1" d="M371.81,34.8c.1.79-.52,1.42-.5,2.19"/>
        <path class="cls-1" d="M394.32,112.59a12.25,12.25,0,0,0-2.18.17"/>
        <path class="cls-1" d="M234.05,151.9a13.48,13.48,0,0,0-6.55-1.85"/>
        <path class="cls-1" d="M342.58,140.48a6,6,0,0,1,.34,2.18"/>
        <path class="cls-1" d="M173.07,41.69a3.84,3.84,0,0,1-.34,2.19"/>
        <path class="cls-1" d="M395.16,41.52a4.37,4.37,0,0,0-.33,2"/>
        <path class="cls-1" d="M285.12,41.52c-.27.65-.07,1.41-.5,2"/>
        <path class="cls-1" d="M252.36,110.4h2"/>
        <path class="cls-1" d="M221.79,151.4v2"/>
        <path class="cls-1" d="M339.72,147.7c.47,1.78,1.23,3.49,1.18,5.38"/>
        <path class="cls-1" d="M288.32,33.63a5.75,5.75,0,0,1-2,.17"/>
        <path class="cls-1" d="M175.08,116.45a5.37,5.37,0,0,0,.68,2"/>
        <path class="cls-1" d="M414.65,31.11a4,4,0,0,1-2-.51"/>
        <path class="cls-1" d="M190.2,30.77c-.71.13-1.29-.52-2-.33"/>
        <path class="cls-1" d="M146.52,30.1a5,5,0,0,0-.33,2"/>
        <path class="cls-1" d="M230.86,151.06v2"/>
        <path class="cls-1" d="M172.56,132.24c.13.72-.52,1.3-.33,2"/>
        <path class="cls-1" d="M362.57,156.6h2"/>
        <path class="cls-1" d="M62.19,66.89h-2"/>
        <path class="cls-1" d="M421.71,70.76a5.36,5.36,0,0,0-2,.67"/>
        <path class="cls-1" d="M3.56,158.79v2"/>
        <path class="cls-1" d="M191.88,24.39c.73-.21,1.32.39,2,.33"/>
        <path class="cls-1" d="M333,161h-2"/>
        <path class="cls-1" d="M334,161.64h2"/>
        <path class="cls-1" d="M179.79,20a5,5,0,0,1,.33,2"/>
        <path class="cls-1" d="M31.61,148.88a4.43,4.43,0,0,1,2,1"/>
        <path class="cls-1" d="M251,148.88a4.43,4.43,0,0,1,2,1"/>
        <path class="cls-1" d="M92.43,82.18l-2,.17"/>
        <path class="cls-1" d="M311.84,82.18c-.72-.13-1.3.52-2,.34"/>
        <path class="cls-1" d="M361.23,148.88a4.39,4.39,0,0,1,2,1"/>
        <path class="cls-1" d="M128,12.29c-.64-.35-1.34-.09-2-.17"/>
        <path class="cls-1" d="M391.8,96.63h-2"/>
        <path class="cls-1" d="M81,95.28h2"/>
        <path class="cls-1" d="M301.42,11.62c-.65.35-1.35.09-2,.17"/>
        <path class="cls-1" d="M82,11.62a5.46,5.46,0,0,1-2,.17"/>
        <path class="cls-1" d="M226.49,126.7h-2"/>
        <path class="cls-1" d="M140.64,126.87v2"/>
        <path class="cls-1" d="M410.62,95.28h2"/>
        <path class="cls-1" d="M239.43,141.82a4.35,4.35,0,0,1-1.85.34"/>
        <path class="cls-1" d="M35.14,4.06a2.84,2.84,0,0,0-.67,1.85"/>
        <path class="cls-1" d="M254.55,4.06c.08.73-1,1-.67,1.85"/>
        <path class="cls-1" d="M180,126.2l-1.85.16"/>
        <path class="cls-1" d="M304.44,66.89c.69.24,1.06-.55,1.84-.5.64.44.7,1.25.85,2"/>
        <path class="cls-1" d="M85,66.89c.68.24,1-.55,1.83-.5.64.44.7,1.25.85,2"/>
        <path class="cls-1" d="M31.11,19.85c.18.67-.52,1.18-.34,1.85"/>
        <path class="cls-1" d="M250.52,19.85c.18.67-.52,1.18-.34,1.85"/>
        <path class="cls-1" d="M360.56,19.85c-.06.62-.12,1.23-.17,1.85"/>
        <path class="cls-1" d="M143.5,47.24c-.34-2.06-1.61-1.14-2.69-.84"/>
        <path class="cls-1" d="M114.6,131.74a4.22,4.22,0,0,1-1.84-.5"/>
        <path class="cls-1" d="M365.09,32a4.19,4.19,0,0,0,1.85.33"/>
        <path class="cls-1" d="M128.55,133.59l1.85.17"/>
        <path class="cls-1" d="M302.43,30.94c.06.65-.52,1.18-.34,1.85"/>
        <path class="cls-1" d="M33,126.36c1.94-.22,2-.19,2.34,1.69.06.34.36.43.51.67"/>
        <path class="cls-1" d="M323.93,152.07a1.91,1.91,0,0,1-1.34-.51"/>
      </g>
    </g>
  </g>
</svg>
